<svg width="215" height="251" viewBox="0 0 215 251" fill="none" xmlns="http://www.w3.org/2000/svg">
<g clip-path="url(#clip0_23_829)">
<path d="M207.789 92.8748H6.75536C4.9641 92.8727 3.2468 92.1635 1.98019 90.9027C0.713579 89.642 0.00109176 87.9326 -0.000976562 86.1495V7.71265C0.00109176 5.92963 0.713579 4.22023 1.98019 2.95945C3.2468 1.69866 4.9641 0.989455 6.75536 0.987396H207.789C209.58 0.989455 211.298 1.69866 212.564 2.95945C213.831 4.22023 214.543 5.92963 214.545 7.71265V86.1496C214.543 87.9326 213.831 89.642 212.564 90.9027C211.298 92.1635 209.58 92.8727 207.789 92.8748Z" fill="#F2F2F2"/>
<path d="M160.904 88.5856H38.6664C29.5575 88.5753 20.8245 84.969 14.3835 78.5576C7.94254 72.1462 4.31948 63.4534 4.3092 54.3864V39.4796C4.31947 30.4125 7.94252 21.7197 14.3835 15.3083C20.8245 8.89689 29.5574 5.29044 38.6664 5.28015H175.879C184.988 5.29044 193.721 8.89689 200.162 15.3083C206.603 21.7197 210.226 30.4125 210.236 39.4796C210.222 52.4988 205.019 64.9805 195.771 74.1865C186.522 83.3925 173.983 88.5708 160.904 88.5856Z" fill="white"/>
<path d="M129.371 27.7342H48.5709C48.1088 27.7342 47.6656 27.5514 47.3388 27.2261C47.0121 26.9009 46.8285 26.4597 46.8285 25.9997C46.8285 25.5397 47.0121 25.0985 47.3388 24.7733C47.6656 24.448 48.1088 24.2653 48.5709 24.2653H129.371C129.833 24.2653 130.277 24.448 130.603 24.7733C130.93 25.0985 131.114 25.5397 131.114 25.9997C131.114 26.4597 130.93 26.9009 130.603 27.2261C130.277 27.5514 129.833 27.7342 129.371 27.7342Z" fill="#E6E6E6"/>
<path d="M170.274 46.2395H48.5709C48.1088 46.2395 47.6656 46.0568 47.3388 45.7315C47.0121 45.4062 46.8285 44.965 46.8285 44.505C46.8285 44.045 47.0121 43.6039 47.3388 43.2786C47.6656 42.9533 48.1088 42.7706 48.5709 42.7706H170.274C170.736 42.7706 171.179 42.9533 171.506 43.2786C171.833 43.6039 172.016 44.045 172.016 44.505C172.016 44.965 171.833 45.4062 171.506 45.7315C171.179 46.0568 170.736 46.2395 170.274 46.2395Z" fill="#E6E6E6"/>
<path d="M170.274 64.7448H48.5709C48.1088 64.7448 47.6656 64.5621 47.3388 64.2368C47.0121 63.9116 46.8285 63.4704 46.8285 63.0104C46.8285 62.5504 47.0121 62.1092 47.3388 61.784C47.6656 61.4587 48.1088 61.276 48.5709 61.276H170.274C170.736 61.276 171.179 61.4587 171.506 61.784C171.833 62.1092 172.016 62.5504 172.016 63.0104C172.016 63.4704 171.833 63.9116 171.506 64.2368C171.179 64.5621 170.736 64.7448 170.274 64.7448Z" fill="#E6E6E6"/>
<path d="M170.274 64.7448H48.5709C48.1088 64.7448 47.6656 64.5621 47.3388 64.2368C47.0121 63.9116 46.8285 63.4704 46.8285 63.0104C46.8285 62.5504 47.0121 62.1092 47.3388 61.784C47.6656 61.4587 48.1088 61.276 48.5709 61.276H170.274C170.736 61.276 171.179 61.4587 171.506 61.784C171.833 62.1092 172.016 62.5504 172.016 63.0104C172.016 63.4704 171.833 63.9116 171.506 64.2368C171.179 64.5621 170.736 64.7448 170.274 64.7448Z" fill="#E6E6E6"/>
<path d="M120.845 48.3634C120.864 48.8859 120.998 49.3977 121.238 49.863C121.477 50.3282 121.817 50.7355 122.231 51.0561C122.646 51.3768 123.127 51.603 123.639 51.7188C124.151 51.8346 124.682 51.8372 125.196 51.7265L131.841 62.5776L134.669 56.6039L127.925 47.2153C127.681 46.3693 127.134 45.6418 126.387 45.1706C125.64 44.6995 124.745 44.5174 123.873 44.6589C123 44.8004 122.21 45.2557 121.652 45.9385C121.093 46.6212 120.806 47.4841 120.845 48.3634H120.845Z" fill="#FFB6B6"/>
<path d="M170.712 79.4621L147.811 67.0977L140.588 60.352C140.588 60.352 137.448 59.5151 138.604 58.4988C139.76 57.4825 136.466 56.5023 136.466 56.5023L132.588 52.8811L127.078 56.7618L128.673 59.2223C128.673 59.2223 128.563 63.2956 130.805 62.512C133.047 61.7284 132.487 65.1066 132.487 65.1066L145.867 85.7528L170.712 79.4621Z" fill="#3F3D56"/>
<path d="M103.113 67.8129C115.466 67.8129 125.481 57.8445 125.481 45.5478C125.481 33.2511 115.466 23.2827 103.113 23.2827C90.7592 23.2827 80.7448 33.2511 80.7448 45.5478C80.7448 57.8445 90.7592 67.8129 103.113 67.8129Z" fill="#09AF1F"/>
<path d="M170.782 241.636H166.131L163.918 223.78H170.782V241.636Z" fill="#FFB6B6"/>
<path d="M173.237 249.658H169.902L169.307 246.523L167.782 249.658H158.936C158.512 249.658 158.099 249.523 157.757 249.273C157.416 249.023 157.163 248.67 157.037 248.267C156.911 247.864 156.918 247.432 157.056 247.033C157.194 246.634 157.457 246.289 157.806 246.049L164.87 241.193V238.024L172.3 238.466L173.237 249.658Z" fill="#2F2E41"/>
<path d="M133.585 241.636H128.934L126.72 223.78H133.585V241.636Z" fill="#FFB6B6"/>
<path d="M136.04 249.658H132.704L132.109 246.523L130.584 249.658H121.738C121.314 249.658 120.901 249.523 120.56 249.273C120.218 249.023 119.966 248.67 119.84 248.267C119.713 247.864 119.72 247.432 119.858 247.033C119.996 246.634 120.259 246.289 120.608 246.049L127.672 241.193V238.024L135.103 238.466L136.04 249.658Z" fill="#2F2E41"/>
<path d="M165.848 106.588H142.373V133.19H165.848V106.588Z" fill="#FFB6B6"/>
<path d="M142.915 119.71L138.942 124.383L132.081 138.762L114.791 179.711L111.134 188.371L114.087 203.68C114.087 203.68 114.565 214.465 114.565 216.231C114.565 219.826 117.586 221.818 117.586 221.818L119.802 233.306L141.29 232.408C141.29 232.408 140.54 219.744 136.04 216.549C131.539 213.355 129.47 196.707 129.47 196.707L127.025 189.321L150.86 161.196L151.014 171.027L151.089 175.785C151.089 175.785 147.598 206.735 151.667 212.741C155.736 218.747 151.75 218.041 151.75 218.041L151.944 230.43L177.404 230.61L171.787 194.939C171.787 194.939 168.935 192.698 170.461 190.444C171.987 188.191 168.982 185.431 168.982 185.431L170.33 157.584C170.33 157.584 168.838 152.774 170.593 152.149C172.348 151.524 170.823 147.388 170.823 147.388L171.084 141.998L165.848 125.282L142.915 119.71Z" fill="#2F2E41"/>
<path d="M166.209 106.588L168.737 99.0393L170.542 96.5229L171.265 89.3332C171.265 69.9212 166.915 73.1537 166.915 73.1537L164.403 66.3263L152.846 65.9668L145.443 72.9768L139.303 75.1337L136.899 87.5683L141.29 100.837L142.373 108.026C140.306 111.824 140.481 110.028 142.193 112.879L162.597 118.451C169.82 120.968 169.82 114.497 168.372 112.879C166.923 111.262 166.209 106.588 166.209 106.588Z" fill="#3F3D56"/>
<path d="M157.132 63.5537C163.049 63.5537 167.845 58.7792 167.845 52.8896C167.845 46.9999 163.049 42.2255 157.132 42.2255C151.215 42.2255 146.418 46.9999 146.418 52.8896C146.418 58.7792 151.215 63.5537 157.132 63.5537Z" fill="#FFB6B6"/>
<path d="M171.434 67.1243C171.535 67.2939 171.597 67.4839 171.613 67.6803C171.63 67.8766 171.603 68.0742 171.532 68.2584C171.462 68.4425 171.35 68.6085 171.207 68.7439C171.063 68.8793 170.89 68.9806 170.701 69.0404C169.264 69.5149 168.379 70.8989 167.346 72.0061C166.317 73.1098 164.659 74.0264 163.345 73.2751C162.034 72.5274 161.944 70.6185 160.846 69.5832C159.777 68.5767 158 68.6989 156.743 69.4646L156.706 69.4876C156.489 69.6284 156.235 69.7028 155.976 69.7016C155.717 69.7004 155.464 69.6237 155.248 69.481C155.033 69.3383 154.864 69.1357 154.763 68.8985C154.661 68.6612 154.632 68.3996 154.679 68.146C155.119 65.8149 155.559 63.484 155.999 61.1533C154.843 63.9251 153.165 66.451 151.055 68.5946C150.474 69.2623 149.737 69.7781 148.91 70.0973C148.159 70.3345 147.429 69.5616 146.7 69.7018C148.513 68.1237 154.609 58.0078 153.518 51.246C152.236 51.3898 150.954 51.5336 149.672 51.6774C149.533 51.0734 149.237 50.5166 148.812 50.0633C148.864 50.6511 148.789 51.2431 148.592 51.7996C148.058 51.8607 147.52 51.9182 146.985 51.9793C146.241 52.062 145.432 52.1339 144.793 51.7457C143.727 51.0986 143.695 49.5672 143.998 48.3593C144.887 44.8472 147.581 41.9102 150.878 40.3716C154.175 38.8366 155.15 42.2553 158.625 41.1625C165.486 39.0056 170.745 42.6939 172.597 49.5385C174.154 55.2794 173.023 61.3726 171.434 67.1243Z" fill="#2F2E41"/>
<path d="M201.094 249.89H187.976L187.92 249.788C187.752 249.485 187.59 249.164 187.439 248.834C186.087 245.955 185.516 242.661 185.012 239.756L184.633 237.566C184.587 237.3 184.621 237.027 184.732 236.782C184.843 236.536 185.025 236.329 185.254 236.187C185.484 236.045 185.751 235.974 186.021 235.984C186.292 235.994 186.553 236.084 186.771 236.243C188.765 237.687 190.759 239.129 192.755 240.57C193.51 241.118 194.373 241.751 195.199 242.435C195.279 242.05 195.362 241.663 195.446 241.282C195.503 241.019 195.638 240.779 195.833 240.592C196.029 240.406 196.276 240.282 196.542 240.236C196.809 240.19 197.083 240.225 197.33 240.335C197.577 240.445 197.785 240.626 197.928 240.855L199.463 243.309C200.583 245.102 201.571 246.868 201.369 248.773C201.37 248.797 201.369 248.82 201.364 248.843C201.324 249.155 201.249 249.463 201.141 249.76L201.094 249.89Z" fill="#F0F0F0"/>
<path d="M214.261 250.172L89.6027 250.293C89.4783 250.292 89.3592 250.243 89.2714 250.155C89.1837 250.067 89.1344 249.948 89.1344 249.825C89.1344 249.701 89.1837 249.582 89.2714 249.494C89.3592 249.406 89.4783 249.357 89.6027 249.356L214.261 249.235C214.385 249.236 214.505 249.285 214.592 249.373C214.68 249.461 214.729 249.58 214.729 249.704C214.729 249.827 214.68 249.946 214.592 250.034C214.505 250.122 214.385 250.171 214.261 250.172Z" fill="#CACACA"/>
<path d="M101.08 75.5151L87.3677 63.9887C86.899 63.5939 86.6068 63.0301 86.5552 62.421C86.5036 61.812 86.6968 61.2074 87.0925 60.74L89.6162 57.7653C90.0129 57.2988 90.5793 57.0079 91.1912 56.9566C91.8031 56.9052 92.4104 57.0976 92.8799 57.4914L106.592 69.0178C107.061 69.4126 107.353 69.9764 107.404 70.5855C107.456 71.1945 107.263 71.7991 106.867 72.2665L104.343 75.2412C103.947 75.7077 103.38 75.9986 102.768 76.0499C102.156 76.1013 101.549 75.9089 101.08 75.5151Z" fill="#3F3D56"/>
<path d="M88.0872 60.9798C87.874 61.2317 87.7698 61.5575 87.7976 61.8857C87.8254 62.2139 87.9829 62.5177 88.2354 62.7305L101.947 74.2569C102.2 74.4691 102.528 74.5727 102.857 74.545C103.187 74.5174 103.492 74.3607 103.706 74.1093L106.23 71.1346C106.443 70.8827 106.547 70.5569 106.519 70.2287C106.492 69.9005 106.334 69.5967 106.082 69.3839L92.3697 57.8575C92.1166 57.6453 91.7893 57.5417 91.4596 57.5694C91.1299 57.597 90.8246 57.7537 90.6109 58.0051L88.0872 60.9798Z" fill="white"/>
<path d="M96.1369 65.4607C96.0893 65.5269 96.0269 65.5813 95.9545 65.6193C95.8822 65.6574 95.8019 65.6782 95.7201 65.6801L93.5656 65.7293C93.4964 65.7309 93.4276 65.7189 93.363 65.694C93.2985 65.6691 93.2395 65.6318 93.1894 65.5842C93.1394 65.5366 93.0992 65.4796 93.0713 65.4166C93.0433 65.3535 93.0281 65.2856 93.0265 65.2167C93.0249 65.1479 93.037 65.0793 93.062 65.0151C93.087 64.9508 93.1245 64.8921 93.1723 64.8423C93.2201 64.7924 93.2774 64.7525 93.3407 64.7246C93.404 64.6968 93.4723 64.6817 93.5415 64.6801L94.9509 64.6478L93.5629 61.0021C93.5137 60.8721 93.5184 60.7279 93.5759 60.6013C93.6334 60.4747 93.7389 60.3759 93.8695 60.3266C94 60.2774 94.1449 60.2817 94.2722 60.3386C94.3996 60.3955 94.4991 60.5004 94.5489 60.6302L96.201 64.9695C96.2309 65.048 96.2414 65.1325 96.2317 65.2158C96.222 65.2992 96.1924 65.3791 96.1453 65.4487L96.1369 65.4607Z" fill="#1790BE"/>
<path d="M96.4133 66.3768C96.9329 66.4527 97.4295 66.6412 97.8681 66.9289C98.3066 67.2165 98.6765 67.5964 98.9516 68.0418C99.2267 68.4871 99.4003 68.9871 99.4603 69.5065C99.5203 70.0259 99.4651 70.552 99.2987 71.0479L109.413 78.8031L103.14 80.952L94.4968 73.2581C93.6784 72.9246 93.0114 72.3039 92.6221 71.5136C92.2328 70.7233 92.1482 69.8183 92.3845 68.9701C92.6207 68.1219 93.1613 67.3894 93.9038 66.9115C94.6464 66.4335 95.5392 66.2433 96.4133 66.3768L96.4133 66.3768Z" fill="#FFB6B6"/>
<path d="M149.07 70.2113L123.174 86.0596C123.174 86.0596 112.734 82.2143 114.774 80.4342C116.814 78.654 110.319 77.4506 110.319 77.4506L103.143 72.6451L98.9789 77.4621C98.9789 77.4621 99.7376 85.2864 101.029 83.9316C102.319 82.5768 104.249 86.2778 104.249 86.2778C104.249 86.2778 104.819 90.4102 108.494 89.3703C112.169 88.3304 122.03 99.2309 122.03 99.2309L153.899 87.3995L149.07 70.2113Z" fill="#3F3D56"/>
<path d="M102.326 54.4794C102.026 54.4794 101.73 54.4098 101.461 54.2761C101.193 54.1424 100.959 53.9484 100.779 53.7093L96.0367 47.4147C95.8844 47.2124 95.7735 46.9823 95.7105 46.7375C95.6475 46.4926 95.6335 46.2378 95.6695 45.9876C95.7054 45.7373 95.7905 45.4966 95.9199 45.2791C96.0492 45.0616 96.2204 44.8716 96.4235 44.7199C96.8338 44.4137 97.3496 44.2821 97.8573 44.3544C98.1086 44.3901 98.3505 44.4748 98.569 44.6036C98.7875 44.7324 98.9784 44.9028 99.1307 45.105L102.234 49.2227L110.203 37.3241C110.487 36.8993 110.93 36.6044 111.433 36.5043C111.935 36.4042 112.458 36.507 112.884 36.7902C113.311 37.0734 113.607 37.5137 113.708 38.0143C113.809 38.5149 113.705 39.0348 113.421 39.4596L103.935 53.6222C103.764 53.8783 103.533 54.0898 103.262 54.2388C102.992 54.3879 102.689 54.4701 102.38 54.4788C102.362 54.4791 102.344 54.4794 102.326 54.4794Z" fill="white"/>
</g>
<defs>
<clipPath id="clip0_23_829">
<rect width="214.73" height="249.306" fill="white" transform="translate(-0.000976562 0.987427)"/>
</clipPath>
</defs>
</svg>
