<svg width="375" height="293" viewBox="0 0 375 293" fill="none" xmlns="http://www.w3.org/2000/svg">
<path d="M196.46 247.458C197.133 247.111 197.766 246.699 198.359 246.228L263.065 194.298C264.87 192.838 266.17 190.87 266.754 188.719C267.338 186.565 267.171 184.353 266.28 182.439L217.034 78.7194C216.199 76.9492 214.784 75.5331 212.986 74.6736C211.188 73.8166 209.102 73.5577 207.023 73.9362L124.685 88.7889C123.626 88.9915 122.59 89.348 121.615 89.8461C119.205 91.0889 117.316 93.1668 116.36 95.6231C115.406 98.077 115.46 100.709 116.517 102.938L183.361 243.725C183.652 244.352 184.024 244.933 184.467 245.461C185.813 247.085 187.732 248.164 189.907 248.525C192.084 248.889 194.393 248.513 196.46 247.458Z" fill="#1B1C1D"/>
<path d="M265.699 89.7332L140.904 72.9248L124.77 202.934L249.565 219.745L265.699 89.7332Z" fill="#FFCAA0"/>
<g clip-path="url(#clip0_1136_6928)">
<path d="M183.44 152.971H163.637L163.427 146.612C163.418 146.337 163.466 146.062 163.569 145.808C163.671 145.554 163.825 145.325 164.019 145.139C164.214 144.953 164.445 144.813 164.697 144.729C164.948 144.645 165.214 144.618 165.476 144.652L177 146.126H177.001C178.71 146.13 180.347 146.842 181.554 148.105C182.761 149.368 183.439 151.079 183.44 152.863V152.971Z" fill="#E4A90D"/>
<path d="M174.614 130.417H160.803C160.619 130.417 160.437 130.455 160.268 130.528C160.098 130.601 159.944 130.709 159.814 130.845C159.684 130.98 159.581 131.141 159.511 131.319C159.44 131.496 159.404 131.686 159.404 131.878V146.302C159.404 146.494 159.44 146.684 159.511 146.861C159.581 147.038 159.684 147.199 159.814 147.335C159.944 147.47 160.098 147.578 160.268 147.651C160.437 147.725 160.619 147.763 160.803 147.762H174.614C174.798 147.763 174.98 147.725 175.149 147.651C175.319 147.578 175.473 147.47 175.603 147.335C175.733 147.199 175.836 147.038 175.906 146.861C175.977 146.684 176.013 146.494 176.013 146.302V131.878C176.013 131.686 175.977 131.496 175.906 131.319C175.836 131.141 175.733 130.98 175.603 130.845C175.473 130.709 175.319 130.601 175.149 130.528C174.98 130.455 174.798 130.417 174.614 130.417Z" fill="#CCCCCC"/>
<path d="M171.503 141.203L164.982 142.529C164.596 142.607 164.195 142.522 163.868 142.292C163.542 142.062 163.316 141.706 163.24 141.302L162.739 138.614C162.664 138.21 162.745 137.792 162.965 137.45C163.186 137.109 163.526 136.873 163.913 136.794L170.434 135.468C170.821 135.39 171.222 135.475 171.548 135.705C171.875 135.935 172.101 136.291 172.177 136.694L172.678 139.383C172.753 139.787 172.671 140.205 172.451 140.546C172.231 140.888 171.89 141.124 171.503 141.203Z" fill="#3F3D56"/>
<path d="M170.199 138.025L165.222 139.037C165.131 139.056 165.037 139.036 164.96 138.982C164.883 138.928 164.83 138.844 164.812 138.749C164.795 138.654 164.814 138.555 164.866 138.475C164.917 138.395 164.998 138.339 165.089 138.321L170.065 137.308C170.156 137.29 170.25 137.31 170.327 137.364C170.404 137.418 170.457 137.502 170.475 137.597C170.493 137.692 170.474 137.791 170.422 137.871C170.37 137.951 170.29 138.007 170.199 138.025Z" fill="white"/>
<path d="M169.232 139.523L166.657 140.047C166.566 140.065 166.472 140.045 166.395 139.991C166.318 139.937 166.265 139.853 166.247 139.758C166.23 139.663 166.249 139.565 166.301 139.484C166.353 139.404 166.433 139.349 166.524 139.33L169.098 138.807C169.143 138.797 169.189 138.798 169.234 138.807C169.279 138.817 169.322 138.835 169.36 138.862C169.398 138.889 169.431 138.923 169.456 138.963C169.482 139.003 169.499 139.048 169.508 139.095C169.517 139.142 169.516 139.191 169.507 139.238C169.498 139.285 169.48 139.329 169.455 139.369C169.429 139.409 169.396 139.443 169.358 139.469C169.319 139.496 169.277 139.514 169.232 139.523Z" fill="white"/>
<path d="M176.013 131.878V133.795H159.404V131.878C159.404 131.686 159.44 131.496 159.511 131.319C159.581 131.141 159.684 130.98 159.814 130.845C159.944 130.709 160.098 130.601 160.268 130.528C160.437 130.455 160.619 130.417 160.803 130.417H174.614C174.798 130.417 174.98 130.455 175.149 130.528C175.319 130.601 175.473 130.709 175.603 130.845C175.733 130.98 175.836 131.141 175.906 131.319C175.977 131.496 176.013 131.686 176.013 131.878Z" fill="#B3B3B3"/>
<path d="M209.178 134.394C209.082 134.07 208.92 133.773 208.702 133.522C208.484 133.272 208.216 133.074 207.917 132.944C207.619 132.813 207.296 132.752 206.972 132.766C206.648 132.779 206.331 132.867 206.044 133.022L187.042 125.902L186.205 130.86L205.146 136.299C205.428 136.787 205.872 137.15 206.393 137.319C206.914 137.488 207.476 137.452 207.973 137.217C208.47 136.982 208.867 136.565 209.089 136.044C209.311 135.524 209.343 134.937 209.178 134.394Z" fill="#FFB8B8"/>
<path opacity="0.2" d="M209.178 134.394C209.082 134.07 208.92 133.773 208.702 133.522C208.484 133.272 208.216 133.074 207.917 132.944C207.619 132.813 207.296 132.752 206.972 132.766C206.648 132.779 206.331 132.867 206.044 133.022L187.042 125.902L186.205 130.86L205.146 136.299C205.428 136.787 205.872 137.15 206.393 137.319C206.914 137.488 207.476 137.452 207.973 137.217C208.47 136.982 208.867 136.565 209.089 136.044C209.311 135.524 209.343 134.937 209.178 134.394Z" fill="black"/>
<path d="M190.415 126.806L188.621 131.702C188.57 131.841 188.49 131.967 188.389 132.072C188.287 132.176 188.164 132.256 188.03 132.307C187.896 132.358 187.752 132.377 187.61 132.365C187.468 132.353 187.33 132.308 187.205 132.235L182.844 129.672C182.164 129.395 181.616 128.848 181.321 128.149C181.026 127.451 181.008 126.659 181.271 125.948C181.534 125.236 182.057 124.662 182.725 124.352C183.392 124.042 184.15 124.021 184.833 124.294L189.702 125.422C189.842 125.454 189.973 125.518 190.087 125.608C190.201 125.698 190.295 125.812 190.362 125.944C190.43 126.075 190.47 126.22 190.479 126.369C190.488 126.518 190.466 126.667 190.415 126.806Z" fill="#E4A90D"/>
<path d="M210.674 138.928L203.865 142.16L204.759 145.674C206.486 152.461 206.944 159.532 206.109 166.5L211.087 167.585L215.213 156.596L213.769 144.099L210.674 138.928Z" fill="#E4A90D"/>
<path d="M224.033 155.194C219.56 155.194 215.914 158.591 215.737 162.844H232.329C232.152 158.591 228.506 155.194 224.033 155.194Z" fill="#3F3D56"/>
<path d="M220.551 155.929C220.318 136.731 209.849 138.497 209.849 138.497C209.849 138.497 210.044 144.473 210.139 144.658C216.81 157.841 205.8 173.295 191.784 170.452C191.52 170.399 191.266 170.344 191.023 170.289C189.247 169.902 187.679 168.823 186.638 167.271C185.597 165.72 185.161 163.812 185.419 161.937C186.799 150.358 179.932 150.563 179.932 150.563H169.892L164.677 145.662C164.493 145.489 164.271 145.366 164.031 145.303C163.791 145.24 163.54 145.24 163.299 145.302C163.059 145.364 162.837 145.487 162.652 145.659C162.468 145.832 162.327 146.049 162.241 146.291L161.57 148.193C161.57 148.193 151.667 149.27 152.492 159.398H155.554C155.546 159.685 155.557 159.973 155.587 160.259L178.437 160.065C179.776 160.054 180.958 161.187 180.964 162.586C180.965 162.927 180.901 163.264 180.775 163.578C180.648 163.892 180.463 164.176 180.229 164.414C179.995 164.651 179.717 164.836 179.413 164.959C179.109 165.082 178.784 165.139 178.458 165.128L174.774 165C173.64 170.279 176.425 173.834 179.494 176.07C182.383 178.144 185.812 179.244 189.318 179.221H199.326C212.324 179.221 214.594 167.801 214.594 167.801C221.402 164.784 220.551 155.929 220.551 155.929Z" fill="#3F3D56"/>
<path d="M223.414 185.47C229.824 185.47 235.02 180.044 235.02 173.35C235.02 166.656 229.824 161.229 223.414 161.229C217.005 161.229 211.809 166.656 211.809 173.35C211.809 180.044 217.005 185.47 223.414 185.47Z" fill="#3F3D56"/>
<path d="M223.414 176.319C224.985 176.319 226.258 174.989 226.258 173.349C226.258 171.708 224.985 170.378 223.414 170.378C221.843 170.378 220.569 171.708 220.569 173.349C220.569 174.989 221.843 176.319 223.414 176.319Z" fill="white"/>
<path d="M164.82 185.47C172.198 185.47 178.179 179.224 178.179 171.518C178.179 163.813 172.198 157.566 164.82 157.566C157.442 157.566 151.461 163.813 151.461 171.518C151.461 179.224 157.442 185.47 164.82 185.47Z" fill="#3F3D56"/>
<path d="M164.82 174.938C166.628 174.938 168.094 173.407 168.094 171.518C168.094 169.63 166.628 168.099 164.82 168.099C163.011 168.099 161.546 169.63 161.546 171.518C161.546 173.407 163.011 174.938 164.82 174.938Z" fill="white"/>
<path d="M203.885 143.114L201.435 136.165C201.308 135.803 201.249 135.418 201.264 135.032C201.279 134.647 201.366 134.268 201.521 133.917C201.676 133.567 201.896 133.252 202.167 132.99C202.439 132.728 202.757 132.525 203.104 132.392L210.127 129.692C210.737 129.457 211.385 129.35 212.035 129.377C212.685 129.404 213.323 129.565 213.913 129.849C214.504 130.134 215.034 130.537 215.475 131.036C215.917 131.535 216.259 132.12 216.484 132.757C216.686 133.329 216.79 133.934 216.789 134.544C216.787 135.318 216.619 136.082 216.298 136.78C215.977 137.478 215.512 138.093 214.935 138.58C214.518 138.929 214.05 139.204 213.549 139.396L203.885 143.114Z" fill="#3F3D56"/>
<path d="M216.686 134.545C216.686 135.304 216.522 136.053 216.208 136.736C215.894 137.42 215.437 138.022 214.871 138.497C214.002 138.258 213.194 137.824 212.502 137.225C211.81 136.627 211.251 135.878 210.864 135.031C210.478 134.184 210.272 133.259 210.262 132.321C210.252 131.383 210.438 130.454 210.806 129.598C211.514 129.437 212.247 129.444 212.952 129.618C213.657 129.792 214.315 130.129 214.879 130.603C215.443 131.078 215.898 131.678 216.211 132.36C216.524 133.042 216.686 133.789 216.686 134.545Z" fill="#E4A90D"/>
<path d="M154.246 160.798C155.841 160.798 157.134 159.158 157.134 157.135C157.134 155.112 155.841 153.472 154.246 153.472C152.65 153.472 151.357 155.112 151.357 157.135C151.357 159.158 152.65 160.798 154.246 160.798Z" fill="#E4A90D"/>
<path d="M192.428 170.101H194.957L196.161 163.25L192.427 163.25L192.428 170.101Z" fill="#FFB8B8"/>
<path d="M191.783 169.239L196.764 169.238H196.764C197.181 169.238 197.594 169.324 197.979 169.491C198.364 169.657 198.714 169.901 199.009 170.209C199.304 170.517 199.538 170.883 199.697 171.285C199.857 171.687 199.939 172.118 199.939 172.554V172.661L191.783 172.662L191.783 169.239Z" fill="#2F2E41"/>
<path d="M195.364 167.289C195.334 167.289 195.305 167.288 195.275 167.285L191.775 167.019C191.633 167.005 191.496 166.958 191.375 166.88C191.254 166.802 191.151 166.697 191.075 166.571C190.999 166.446 190.952 166.304 190.937 166.156C190.922 166.008 190.94 165.859 190.989 165.72L195.673 154.727C195.707 154.629 195.721 154.525 195.714 154.422C195.707 154.318 195.679 154.217 195.633 154.124C195.587 154.031 195.522 153.949 195.444 153.884C195.365 153.818 195.274 153.771 195.177 153.745C192.974 153.144 187.322 151.543 182.429 149.669C180.333 148.866 179.013 147.706 178.505 146.221C177.836 144.263 178.826 142.477 178.868 142.402L178.901 142.344L183.505 142.781L188.497 143.224L199.434 149.35C200.351 149.867 201.047 150.726 201.384 151.756C201.721 152.785 201.675 153.91 201.254 154.905L196.211 166.715C196.138 166.886 196.019 167.031 195.869 167.133C195.718 167.235 195.543 167.289 195.364 167.289Z" fill="#2F2E41"/>
<path d="M184.305 121.035C187.104 121.035 189.373 118.665 189.373 115.742C189.373 112.82 187.104 110.45 184.305 110.45C181.507 110.45 179.238 112.82 179.238 115.742C179.238 118.665 181.507 121.035 184.305 121.035Z" fill="#FFB8B8"/>
<path d="M190.983 170.748H193.513L194.716 163.896L190.983 163.897L190.983 170.748Z" fill="#FFB8B8"/>
<path d="M190.338 169.886L195.319 169.886H195.319C195.736 169.886 196.149 169.971 196.534 170.138C196.919 170.305 197.269 170.549 197.564 170.857C197.859 171.165 198.093 171.53 198.252 171.932C198.412 172.335 198.494 172.766 198.494 173.201V173.309L190.338 173.309L190.338 169.886Z" fill="#2F2E41"/>
<path d="M193.919 167.936C193.89 167.936 193.86 167.934 193.831 167.932L190.33 167.665C190.188 167.652 190.052 167.604 189.931 167.527C189.809 167.449 189.707 167.343 189.631 167.218C189.555 167.092 189.508 166.95 189.493 166.803C189.478 166.655 189.495 166.506 189.544 166.366L194.229 155.374C194.262 155.276 194.276 155.172 194.269 155.068C194.262 154.964 194.235 154.863 194.188 154.771C194.142 154.678 194.078 154.596 193.999 154.53C193.921 154.465 193.83 154.418 193.732 154.392C191.529 153.79 185.877 152.189 180.985 150.315C178.888 149.513 177.568 148.353 177.061 146.867C176.391 144.909 177.381 143.124 177.424 143.049L177.457 142.99L182.061 143.427L187.052 143.871L197.99 149.996C198.906 150.514 199.602 151.373 199.94 152.402C200.277 153.432 200.23 154.556 199.809 155.552L194.767 167.361C194.694 167.532 194.575 167.678 194.424 167.78C194.274 167.882 194.099 167.936 193.919 167.936Z" fill="#2F2E41"/>
<path d="M185.869 124.034L180.504 122.095C180.504 122.095 177.137 124.797 178.755 131.5C179.599 134.959 179.353 138.61 178.053 141.911C177.896 142.32 177.716 142.718 177.513 143.103C177.513 143.103 183.496 150.645 189.067 145.042L186.9 134.161C186.9 134.161 190.304 126.943 185.869 124.034Z" fill="#E4A90D"/>
<path d="M184.935 121.213C184.214 120.086 183.645 118.523 184.439 117.45C185.222 116.391 186.768 116.547 187.969 116.079C189.641 115.426 190.611 113.375 190.308 111.537C190.006 109.7 188.594 108.177 186.911 107.554C185.229 106.931 183.332 107.134 181.685 107.851C179.657 108.735 177.917 110.443 177.188 112.608C176.458 114.773 176.848 117.372 178.361 119.035C179.984 120.819 182.53 121.295 184.886 121.266" fill="#2F2E41"/>
<path d="M180.221 111.595C179.312 112.368 177.925 112.024 176.95 111.346C175.974 110.668 175.183 109.703 174.127 109.171C172.266 108.234 170.017 108.857 168.205 109.895C166.394 110.933 164.789 112.367 162.876 113.182C160.963 113.997 158.522 114.037 157.073 112.499C156.717 113.577 156.688 114.745 156.99 115.841C157.292 116.938 157.911 117.91 158.762 118.626C159.613 119.342 160.654 119.766 161.745 119.84C162.835 119.915 163.921 119.637 164.854 119.043C166.95 117.71 168.107 114.914 170.458 114.178C171.759 113.771 173.156 114.099 174.471 114.454C175.786 114.809 177.157 115.193 178.484 114.891C179.811 114.588 181.052 113.343 180.883 111.935L180.221 111.595Z" fill="#2F2E41"/>
<path d="M208.926 134.179C208.793 133.871 208.596 133.597 208.35 133.376C208.105 133.156 207.815 132.994 207.503 132.903C207.191 132.812 206.864 132.793 206.544 132.848C206.225 132.903 205.92 133.031 205.653 133.222L185.956 128.605L185.711 133.633L205.15 136.59C205.487 137.038 205.97 137.341 206.507 137.442C207.044 137.542 207.598 137.434 208.063 137.136C208.529 136.839 208.874 136.374 209.033 135.829C209.192 135.284 209.154 134.697 208.926 134.179Z" fill="#FFB8B8"/>
<path d="M189.41 129.069L188.208 134.158C188.174 134.303 188.11 134.439 188.021 134.555C187.932 134.672 187.821 134.768 187.693 134.835C187.566 134.903 187.426 134.941 187.283 134.947C187.141 134.953 186.998 134.927 186.866 134.87L182.236 132.888C181.527 132.702 180.918 132.229 180.543 131.574C180.167 130.919 180.056 130.135 180.233 129.395C180.41 128.654 180.861 128.017 181.488 127.624C182.114 127.23 182.864 127.112 183.574 127.295L188.539 127.787C188.682 127.801 188.819 127.847 188.943 127.922C189.067 127.997 189.173 128.098 189.256 128.22C189.339 128.342 189.395 128.48 189.422 128.627C189.448 128.773 189.444 128.924 189.41 129.069V129.069Z" fill="#E4A90D"/>
<path d="M206.651 138.174C207.448 138.174 208.095 137.499 208.095 136.666C208.095 135.833 207.448 135.157 206.651 135.157C205.853 135.157 205.207 135.833 205.207 136.666C205.207 137.499 205.853 138.174 206.651 138.174Z" fill="#E4A90D"/>
</g>
<path d="M257.573 112.124C267.3 112.124 275.187 103.91 275.187 93.7774C275.187 83.6444 267.3 75.4307 257.573 75.4307C247.847 75.4307 239.963 83.6444 239.963 93.7774C239.963 103.91 247.847 112.124 257.573 112.124Z" fill="#F2652A"/>
<path d="M250.798 93.5377L256.266 99.2341L264.38 88.3223" stroke="black" stroke-width="1.5" stroke-linecap="round" stroke-linejoin="round"/>
<path d="M28.4226 195.556C40.2562 185.213 62.1867 171.247 80.5523 183.103C80.5523 183.103 62.4867 159.688 71.6835 148.754C83.6976 134.431 119.051 173.356 113.749 180.044C108.295 186.878 96.1031 156.301 102.483 139.302C107.517 125.932 131.545 145.99 135.41 157.847" stroke="black" stroke-width="1.5" stroke-linecap="round" stroke-linejoin="round"/>
<path d="M264.975 227.683L265.205 243.673L271.901 228.572L281.135 235.635L275.208 223.871L286.397 212.237L272.379 218.39L272.442 201.75L266.972 218.715L255.743 209.681L263.791 222.787L250.605 227.812L264.975 227.683Z" fill="#F2652A"/>
<path d="M127.42 57.3838L113.449 67.6388L104.541 59.9256L127.42 57.3838Z" fill="#FFCAA0"/>
<path d="M299.367 150.839C303.694 150.839 307.198 147.189 307.198 142.684C307.198 138.177 303.694 134.526 299.367 134.526C295.043 134.526 291.539 138.177 291.539 142.684C291.539 147.189 295.043 150.839 299.367 150.839Z" fill="#76DDAE"/>
<path d="M77.9977 209.653C83.2289 208.467 86.5453 203.09 85.4063 197.643C84.2672 192.193 79.1063 188.738 73.8774 189.925C68.6461 191.111 65.3297 196.488 66.4688 201.938C67.6078 207.385 72.7688 210.84 77.9977 209.653Z" stroke="#76DDAE" stroke-width="1.5" stroke-linecap="round" stroke-linejoin="round"/>
<defs>
<clipPath id="clip0_1136_6928">
<rect width="104.615" height="77.8471" fill="white" transform="translate(139.423 107.183)"/>
</clipPath>
</defs>
</svg>
