<svg width="350" height="220" viewBox="0 0 350 220" fill="none" xmlns="http://www.w3.org/2000/svg">
<g clip-path="url(#clip0_133_304)">
<path fill-rule="evenodd" clip-rule="evenodd" d="M334.394 0H15.2122C6.81828 0 0.0136719 6.7332 0.0136719 15.0391V204.557C0.0136719 212.863 6.81828 219.596 15.2122 219.596H334.394C342.788 219.596 349.592 212.863 349.592 204.557V15.0391C349.592 6.7332 342.788 0 334.394 0Z" fill="black"/>
<mask id="mask0_133_304" style="mask-type:luminance" maskUnits="userSpaceOnUse" x="0" y="0" width="350" height="220">
<path fill-rule="evenodd" clip-rule="evenodd" d="M334.394 0H15.2122C6.81828 0 0.0136719 6.7332 0.0136719 15.0391V204.557C0.0136719 212.863 6.81828 219.596 15.2122 219.596H334.394C342.788 219.596 349.592 212.863 349.592 204.557V15.0391C349.592 6.7332 342.788 0 334.394 0Z" fill="white"/>
</mask>
<g mask="url(#mask0_133_304)">
<path fill-rule="evenodd" clip-rule="evenodd" d="M318.429 -48.9981C351.4 -49.3984 348.301 12.399 377.069 28.4999C406.479 44.9606 447.72 20.6615 475.905 39.1389C506.174 58.9828 523.573 94.7689 531.863 129.98C541.155 169.449 549.074 216.44 525.402 249.374C501.533 282.58 452.745 282.86 413.546 294.587C382.172 303.972 350.404 304.217 318.429 311.292C276.382 320.595 236.173 356.772 195.424 342.849C155.668 329.265 122.522 285.801 121.036 243.847C119.452 199.109 170.275 171.143 187.887 129.98C197.186 108.244 185.284 80.321 199.185 61.1931C212.921 42.2919 243.443 45.774 260.606 29.914C284.975 7.39523 285.238 -48.5951 318.429 -48.9981Z" fill="#FFB800"/>
<path fill-rule="evenodd" clip-rule="evenodd" d="M203.741 175.583C223.691 235.976 130.418 279.444 76.8024 313.659C35.5444 339.989 -26.0687 315.116 -63.7851 346.308C-114.042 387.871 -102.338 485.923 -162.353 511.444C-215.858 534.196 -275.883 488.416 -325.07 457.416C-373.094 427.148 -434.129 392.568 -440.476 336.157C-447.342 275.137 -384.878 230.183 -356.78 175.583C-341.67 146.221 -318.188 121.191 -313.064 88.5696C-303.712 29.0273 -365.328 -55.6897 -315.199 -89.1536C-266.914 -121.386 -217.445 -30.348 -162.353 -12.039C-128.901 -0.921661 -89.2534 -21.5325 -58.7194 -3.91665C-28.1837 13.7001 -28.9068 61.8363 0.191795 81.7372C62.9311 124.645 179.9 103.41 203.741 175.583Z" fill="#1867FF" fill-opacity="0.6"/>
</g>
<path opacity="0.401246" d="M312.633 197.687C321.266 197.687 328.266 190.735 328.266 182.16C328.266 173.585 321.266 166.634 312.633 166.634C303.999 166.634 297 173.585 297 182.16C297 190.735 303.999 197.687 312.633 197.687Z" fill="white"/>
<path opacity="0.859468" d="M293.219 197.687C301.853 197.687 308.852 190.735 308.852 182.16C308.852 173.585 301.853 166.634 293.219 166.634C284.585 166.634 277.586 173.585 277.586 182.16C277.586 190.735 284.585 197.687 293.219 197.687Z" fill="white"/>
</g>
<defs>
<clipPath id="clip0_133_304">
<rect width="350" height="220" fill="white"/>
</clipPath>
</defs>
</svg>
