<svg width="120" height="98" viewBox="0 0 120 98" fill="none" xmlns="http://www.w3.org/2000/svg">
<path d="M50.545 30.6675C50.5364 35.051 48.8883 39.2727 45.9248 42.5027C42.9613 45.7327 38.8968 47.7373 34.5302 48.1224C30.1636 48.5075 25.8109 47.2452 22.3279 44.5838C18.8448 41.9223 16.4833 38.0542 15.7076 33.7399C14.9319 29.4255 15.7981 24.9771 18.136 21.2691C20.4739 17.561 24.1143 14.8617 28.3415 13.7016C32.5687 12.5416 37.077 13.0048 40.98 15.0003C44.883 16.9957 47.8984 20.379 49.4334 24.4849C49.4717 24.588 49.509 24.6911 49.5453 24.7952V24.7962C49.7074 25.2538 49.8501 25.7199 49.9735 26.1945C50.3541 27.655 50.5462 29.1582 50.545 30.6675Z" fill="#3F3D56"/>
<path d="M30.9357 18.7417C30.1413 18.3122 29.2594 18.0697 28.3571 18.0328C27.4548 17.9959 26.556 18.1655 25.7292 18.5287C25.0013 18.8455 24.2348 19.4138 23.9919 20.4401C24.9741 19.8605 26.2455 20.7763 26.4982 22.2455L26.4392 22.2617C26.3057 23.2793 26.6037 24.3872 27.1806 25.0182C27.2235 24.7335 27.3293 24.4619 27.4903 24.2232C27.6512 23.9845 27.8633 23.7846 28.1112 23.6381C28.5351 23.3594 29.004 23.157 29.3275 22.6781C29.7111 22.1103 29.8085 21.2804 29.9609 20.5234C30.1132 19.7663 30.4023 18.9527 30.9357 18.7417Z" fill="white"/>
<path d="M25.4379 27.4011C25.1659 27.8096 24.8025 28.0659 24.4765 28.3851C24.1002 28.7274 23.8532 29.189 23.7774 29.6921C23.7361 30.0476 23.7999 30.4089 23.7911 30.7683C23.7823 31.1277 23.6625 31.5323 23.4179 31.6217C23.032 31.7611 22.7374 31.0443 22.3407 30.9942C22.0255 30.9549 21.7417 31.4508 21.833 31.8809C21.9244 32.311 22.3535 32.5015 22.6 32.2207C22.8229 32.5948 22.6657 33.2734 22.3309 33.3883C22.2955 33.6239 22.2602 33.8586 22.2258 34.0943C21.3794 33.5022 20.5241 32.9002 19.8043 32.0331C19.0037 31.0769 18.5072 29.9034 18.3784 28.663C18.2851 27.6663 18.4236 26.5262 17.966 25.7593C17.5997 25.1455 16.9713 25.01 16.4056 25.0483C16.3025 25.0552 16.1985 25.067 16.0953 25.0797C16.4289 24.0779 16.8526 23.1083 17.3611 22.1829C17.4762 22.1335 17.5831 22.067 17.6783 21.9855C18.2046 21.5387 18.4383 20.6343 18.8655 20.0088C18.893 19.9685 18.9215 19.9293 18.9509 19.891C19.3879 19.3204 19.9731 19.0268 20.5388 18.7538C21.7908 18.146 23.0791 17.5303 24.4009 17.6147L24.0248 17.6511C23.5858 18.8805 23.1466 20.1099 22.707 21.3394C22.6402 21.5279 22.5728 21.7168 22.5047 21.906C22.2553 22.6051 21.998 23.3495 22.0363 24.1321C22.0589 24.5956 22.2199 25.0905 22.5263 25.2496C22.812 25.3969 23.1243 25.2162 23.4002 25.0375C23.5171 24.9629 23.633 24.8882 23.7498 24.8126C24.1691 24.5426 24.6336 24.2657 25.0765 24.4463C25.482 24.6113 25.7815 25.1622 25.8385 25.7563C25.8907 26.3338 25.7498 26.9123 25.4379 27.4011Z" fill="white"/>
<path d="M27.9316 35.7951C26.707 35.0411 25.4823 34.287 24.2577 33.533L24.2785 33.4795C23.5171 33.7695 23.201 35.1229 23.3268 36.2298C23.4526 37.3366 23.8793 38.3261 24.0948 39.4045C24.3855 40.8804 24.2758 42.4072 23.7771 43.8263C25.3875 42.0194 26.8126 40.0557 28.0311 37.9645C28.2013 37.701 28.331 37.4134 28.4159 37.1113C28.5058 36.7894 28.4737 36.4456 28.3259 36.1459C28.2257 35.998 28.0901 35.8774 27.9316 35.7951Z" fill="white"/>
<path d="M23.0985 22.077C22.9547 22.3858 22.9326 22.7374 23.0365 23.0618C23.1573 23.3231 23.3765 23.5262 23.6463 23.6266L24.323 23.962C24.5481 24.0736 24.7907 24.1863 25.0202 24.0945C25.297 23.9838 25.4889 23.5499 25.4393 23.147C25.3864 22.7183 25.1162 22.4235 24.8663 22.1724C24.5166 21.821 24.1669 21.4696 23.8171 21.1182L23.62 21.3596C23.4069 21.5675 23.2305 21.8101 23.0985 22.077Z" fill="white"/>
<path d="M46.9176 26.6599C47.222 26.7316 47.5264 26.8033 47.8308 26.8749C47.7778 27.9031 47.2682 28.8546 46.5847 29.1993C46.2999 29.3427 45.9828 29.3957 45.7471 29.6638C45.534 29.9073 45.426 30.2863 45.3268 30.6487C45.153 31.2811 44.9792 31.9135 44.8053 32.5458C44.6188 33.2273 44.3792 33.9845 43.8941 34.23C43.4777 34.4411 43.0015 34.1828 42.6813 33.7498C42.3612 33.3167 42.1658 32.7344 41.9763 32.1668C41.9881 32.7855 41.7004 33.3923 41.2928 33.6074C40.8843 33.8224 40.3874 33.628 40.1145 33.1478C39.9181 32.8031 39.8366 32.3485 39.6441 31.9989C39.4516 31.6493 39.048 31.449 38.8379 31.777C38.6994 31.995 38.7171 32.3288 38.6484 32.6058C38.6138 32.7896 38.5227 32.9581 38.3879 33.0878C38.2531 33.2175 38.0812 33.302 37.8962 33.3295C37.726 33.3256 37.5584 33.2871 37.4036 33.2164C37.2488 33.1456 37.11 33.0441 36.9957 32.918C36.3944 32.3029 36.0029 31.5134 35.8772 30.6624C35.792 30.2544 35.8028 29.8322 35.9087 29.4291C36.0294 29.0471 36.3211 28.7525 36.6108 28.8252C36.8013 28.4225 36.4252 27.8884 36.0864 27.9355C35.7466 27.9826 35.4805 28.3469 35.2016 28.6268C34.9237 28.9067 34.5349 29.1099 34.255 28.832C34.2612 28.9337 34.2269 29.0336 34.1594 29.1099C34.092 29.1862 33.997 29.2326 33.8953 29.2389C33.8853 29.2395 33.8752 29.2397 33.8651 29.2396C33.6791 29.1861 33.5061 29.0945 33.3575 28.9705C32.7162 28.5708 31.9022 28.836 31.4465 29.5921C31.7313 28.3803 32.1486 26.9898 33.0236 26.705C33.381 26.5882 33.7709 26.6844 34.1087 26.4821C34.7067 26.1237 34.8275 24.7696 34.311 24.2108C34.3767 24.7391 34.364 25.3558 34.0851 25.7172C33.8062 26.0786 33.221 25.8429 33.2563 25.3087C33.2484 25.3838 33.2169 25.4545 33.1663 25.5106C33.1157 25.5668 33.0487 25.6054 32.9748 25.6211C32.9009 25.6368 32.8239 25.6287 32.7549 25.598C32.6859 25.5673 32.6283 25.5155 32.5905 25.4501C32.405 25.1673 32.4207 24.7048 32.5523 24.367C32.6879 24.061 32.8824 23.7848 33.1247 23.5539C33.5912 23.0541 34.0645 22.5484 34.6046 22.2341C35.1457 21.9199 35.7702 21.8138 36.3122 22.1261C36.598 22.2911 36.8494 22.566 37.141 22.7114C37.2096 22.7539 37.2858 22.7825 37.3654 22.7956C37.445 22.8086 37.5264 22.8059 37.6049 22.7875C37.6834 22.7691 37.7576 22.7354 37.8231 22.6884C37.8886 22.6413 37.9442 22.5819 37.9867 22.5133C37.99 22.508 37.9932 22.5027 37.9964 22.4973C38.2134 22.1163 38.1112 21.5507 38.1918 21.0744C38.3361 20.2329 39.1777 19.8391 39.6441 20.3949C39.2955 20.3055 38.9351 20.7179 38.8919 21.2178C38.8477 21.7176 39.1001 22.2223 39.4379 22.3736C40.0055 22.6249 40.5613 21.9925 40.9904 21.4073C41.4382 20.7945 41.8866 20.1821 42.3357 19.57C42.4074 19.4658 42.4879 19.3679 42.5763 19.2774C42.7169 19.1403 42.9044 19.0618 43.1008 19.0578C43.2972 19.0538 43.4877 19.1246 43.6339 19.2558C44.0875 19.626 44.3006 20.3851 44.6728 20.9075C45.2129 21.6665 46.0211 21.8512 46.7732 21.9985C47.3339 22.1075 47.895 22.2171 48.4564 22.3274C48.8306 23.0236 49.157 23.7444 49.4334 24.4848C48.404 24.9542 47.5309 25.7091 46.9176 26.6599Z" fill="white"/>
<path d="M48.7303 38.4751C48.3096 39.3293 47.8202 40.148 47.2671 40.9231C46.9136 40.7719 46.5336 41.0419 46.2027 41.2953C45.857 41.5604 45.4416 41.8187 45.0871 41.5771C44.7248 41.3297 44.6079 40.6374 44.7228 40.0885C44.8549 39.5821 45.0858 39.1068 45.4023 38.6901C45.6969 38.2502 46.0121 37.7936 46.4216 37.6227C46.8321 37.4518 47.3594 37.6934 47.4792 38.2767L47.7699 38.2669C47.6069 38.043 47.6923 37.5795 47.9113 37.498C48.1637 37.4027 48.3827 37.7494 48.5319 38.0558C48.5987 38.1942 48.6664 38.3337 48.7303 38.4751Z" fill="white"/>
<path d="M37.5982 34.3272C36.9734 34.3665 36.4785 33.5974 36.1497 32.8407C35.8208 32.0841 35.5207 31.2188 34.957 30.8337C34.6349 30.6136 34.2677 30.5834 33.9183 30.4768C33.7201 30.4267 33.5367 30.3302 33.3833 30.1951C33.2299 30.06 33.1109 29.8904 33.0362 29.7001L32.6399 29.54C32.0855 29.8171 31.5778 30.1791 31.1352 30.6129C30.6293 31.1503 30.3143 31.839 30.2386 32.5731C30.1629 33.3664 30.4424 34.2509 30.9648 34.5489C31.3775 34.7844 31.8581 34.636 32.2761 34.8515C32.7985 35.1208 33.1086 35.9032 33.226 36.6756C33.3434 37.4481 33.3137 38.2509 33.3977 39.0321C33.4816 39.8134 33.7131 40.6263 34.1922 41.0266C34.7916 41.5276 35.6713 41.1113 35.9402 40.1993C36.0721 39.752 36.0676 39.2472 36.1663 38.7828C36.34 37.9651 36.8089 37.3584 37.1808 36.6876C37.5527 36.0168 37.8455 35.1057 37.5982 34.3272Z" fill="white"/>
<path d="M31.4244 26.2913C31.4827 26.3449 31.5371 26.4027 31.5871 26.464C31.6389 26.5534 31.6654 26.6551 31.6636 26.7584C31.6619 26.8616 31.632 26.9625 31.5771 27.05C31.6524 27.0457 31.7259 27.0259 31.7931 26.9917C31.8603 26.9575 31.9197 26.9098 31.9675 26.8516C32.0816 26.7217 32.1819 26.5804 32.2669 26.4299C32.3068 26.3784 32.3354 26.3189 32.3506 26.2555C32.3658 26.1921 32.3673 26.1262 32.3551 26.0621C32.3256 25.9779 32.2558 25.9419 32.2069 25.8786C32.1391 25.7547 32.0928 25.6203 32.07 25.4809C32.0428 25.3503 31.9798 25.2298 31.888 25.1331C31.7962 25.0363 31.6792 24.967 31.5502 24.9331L31.5815 24.9391C31.5282 24.9707 31.4861 25.0182 31.4612 25.075C31.4362 25.1317 31.4296 25.1948 31.4424 25.2555C31.4613 25.378 31.5401 25.4797 31.5322 25.6047C31.521 25.7844 31.3414 25.8688 31.3303 26.0485C31.3285 26.1387 31.3623 26.2259 31.4244 26.2913Z" fill="white"/>
<path d="M30.354 23.2375L30.3568 23.237C30.376 23.2194 30.3938 23.2005 30.4101 23.1802L30.354 23.2375Z" fill="white"/>
<path d="M30.5413 24.0813C30.6164 24.0155 30.6719 23.9303 30.7018 23.835C30.7317 23.7398 30.7349 23.6381 30.7109 23.5412C30.6655 23.3369 30.5049 23.1995 30.3567 23.2372C30.3138 23.2808 30.2604 23.3127 30.2017 23.33C30.143 23.3473 30.0808 23.3494 30.0211 23.336C29.9295 23.3124 29.8289 23.2517 29.7494 23.3207C29.704 23.3723 29.6722 23.4344 29.6569 23.5014C29.6275 23.5917 29.5981 23.6819 29.5687 23.7722C29.5547 23.8045 29.5511 23.8403 29.5583 23.8748C29.5639 23.8886 29.573 23.9007 29.5847 23.91C29.5964 23.9193 29.6102 23.9254 29.6249 23.9278L30.1543 24.0838C30.215 24.1118 30.2812 24.1261 30.3481 24.1257C30.415 24.1252 30.4809 24.1101 30.5413 24.0813Z" fill="white"/>
<path d="M43.8611 35.7271C43.7796 35.5936 43.698 35.46 43.6165 35.3265C43.5363 35.1719 43.4268 35.0344 43.294 34.9217C43.236 34.873 43.1609 34.8494 43.0855 34.8561C43.01 34.8628 42.9403 34.8991 42.8916 34.9572L42.8873 34.9624L42.8973 35.0387C43.1156 35.2728 43.2645 35.5632 43.327 35.8772C43.3456 36.0136 43.3391 36.1549 43.3554 36.2919C43.3571 36.3555 43.3714 36.4181 43.3973 36.4761C43.4232 36.5342 43.4603 36.5865 43.5065 36.6302C43.635 36.716 43.7858 36.5895 43.8772 36.4351C43.9589 36.3084 43.9955 36.1578 43.9812 36.0076C43.9608 35.9069 43.92 35.8114 43.8611 35.7271Z" fill="white"/>
<path d="M45.1405 35.901C45.156 35.776 45.1459 35.6491 45.1106 35.5282C45.1048 35.3645 45.1481 35.2029 45.2351 35.0642C45.3215 34.9334 45.387 34.7898 45.4292 34.6388C45.447 34.57 45.4437 34.4974 45.4199 34.4304C45.3929 34.3698 45.3275 34.3421 45.29 34.3902L45.3703 34.4419C45.2619 34.4225 45.1505 34.4279 45.0445 34.4576C44.984 34.4808 44.93 34.5182 44.8871 34.5666C44.8441 34.615 44.8134 34.6731 44.7977 34.7359C44.7844 34.8339 44.7627 34.9305 44.7329 35.0247C44.685 35.1231 44.5923 35.1558 44.5341 35.2422C44.4944 35.3188 44.4743 35.404 44.4758 35.4903C44.4772 35.5765 44.5001 35.6611 44.5423 35.7363C44.6154 35.8593 44.7317 35.9508 44.8685 35.9928C44.9665 36.028 45.0956 36.0299 45.1405 35.901Z" fill="white"/>
<path d="M47.4189 36.5887C47.4543 36.6809 47.5018 36.768 47.5601 36.8478C47.6692 36.9576 47.8174 36.8901 47.9497 36.8634C48.0698 36.8445 48.1928 36.8583 48.3056 36.9036C48.4184 36.9488 48.5169 37.0238 48.5906 37.1205C48.5393 36.8645 48.4273 36.6247 48.264 36.421C48.1008 36.2173 47.891 36.0558 47.6524 35.95C47.3423 35.8426 47.0156 35.7915 46.6875 35.7991L46.6315 35.8134C46.7743 36.2291 47.2226 36.2198 47.4189 36.5887Z" fill="white"/>
<path d="M37.769 37.4388L37.7699 37.4406L37.7862 37.4092L37.769 37.4388Z" fill="white"/>
<path d="M37.4233 38.1076C37.3479 38.2445 37.2831 38.3869 37.2294 38.5336C37.1583 38.7713 37.1112 39.0154 37.0889 39.2625C37.0713 39.403 37.0659 39.5824 37.1539 39.6508C37.1792 39.6676 37.2097 39.6746 37.2397 39.6705C37.2698 39.6664 37.2973 39.6515 37.3172 39.6286C37.3661 39.5769 37.4061 39.5174 37.4356 39.4527C37.6086 39.1548 37.7429 38.836 37.8352 38.5042C37.9316 38.1521 37.9086 37.778 37.7698 37.4404C37.6543 37.6628 37.5388 37.8852 37.4233 38.1076Z" fill="white"/>
<path d="M34.0889 20.2831C34.1438 20.3367 34.2132 20.3732 34.2886 20.3879C34.3639 20.4026 34.4419 20.3949 34.513 20.3658C34.6601 20.3015 34.7951 20.2124 34.912 20.1023C35.0088 20.0306 35.091 19.941 35.1539 19.8384C35.1886 19.777 35.2108 19.7094 35.2193 19.6395C35.2278 19.5695 35.2224 19.4986 35.2034 19.4307C35.1764 19.3657 35.1332 19.3086 35.078 19.2649C35.0227 19.2212 34.9573 19.1924 34.8878 19.181C34.6919 19.1229 34.4961 19.0649 34.3003 19.0068L34.4419 18.8791C34.2962 18.8009 34.1349 18.9461 34.0438 19.1258C33.9854 19.2432 33.9447 19.3685 33.923 19.4978C33.892 19.6329 33.8908 19.7731 33.9194 19.9087C33.9481 20.0443 34.0059 20.1721 34.0889 20.2831Z" fill="white"/>
<path d="M37.5463 19.1225C37.6015 19.1834 37.6778 19.2209 37.7597 19.2276C37.8416 19.2343 37.9229 19.2095 37.9872 19.1584C38.0426 19.1168 38.0885 19.0641 38.1222 19.0035C38.1558 18.943 38.1762 18.8761 38.1823 18.8071C38.1961 18.6531 38.1199 18.4819 38.0112 18.4686L38.0361 18.3243C37.8265 18.2865 37.5686 18.2789 37.4563 18.5334C37.4185 18.6309 37.4068 18.7366 37.4226 18.84C37.4384 18.9434 37.4811 19.0408 37.5463 19.1225Z" fill="white"/>
<path d="M23.3 29.4976C24.022 29.4976 24.6073 28.7128 24.6073 27.7446C24.6073 26.7765 24.022 25.9917 23.3 25.9917C22.5781 25.9917 21.9928 26.7765 21.9928 27.7446C21.9928 28.7128 22.5781 29.4976 23.3 29.4976Z" fill="#E6E6E6"/>
<path d="M47.1887 51.2039C47.8128 51.0377 48.225 50.551 48.1094 50.1168C47.9938 49.6827 47.3941 49.4655 46.77 49.6317C46.1459 49.7979 45.7337 50.2846 45.8494 50.7187C45.965 51.1529 46.5646 51.3701 47.1887 51.2039Z" fill="#E6E6E6"/>
<path d="M39.5449 51.345C40.169 51.1788 40.5812 50.6921 40.4656 50.2579C40.35 49.8238 39.7503 49.6066 39.1262 49.7728C38.5021 49.939 38.0899 50.4257 38.2056 50.8598C38.3212 51.294 38.9209 51.5112 39.5449 51.345Z" fill="#E6E6E6"/>
<path d="M48.5468 44.844C49.1709 44.6778 49.583 44.1911 49.4674 43.757C49.3518 43.3228 48.7522 43.1056 48.1281 43.2718C47.504 43.438 47.0918 43.9247 47.2074 44.3588C47.323 44.793 47.9227 45.0102 48.5468 44.844Z" fill="#E6E6E6"/>
<path d="M50.8012 42.1404C51.083 42.1055 51.2707 41.7488 51.2205 41.3437C51.1703 40.9387 50.9011 40.6386 50.6193 40.6736C50.3376 40.7085 50.1498 41.0652 50.2001 41.4703C50.2503 41.8753 50.5194 42.1754 50.8012 42.1404Z" fill="#E6E6E6"/>
<path d="M51.372 37.3426C51.6538 37.3077 51.8415 36.951 51.7913 36.5459C51.7411 36.1408 51.4719 35.8408 51.1901 35.8757C50.9084 35.9106 50.7206 36.2673 50.7709 36.6724C50.8211 37.0775 51.0902 37.3775 51.372 37.3426Z" fill="#E6E6E6"/>
<path d="M43.6666 46.5662C43.9484 46.5313 44.1361 46.1746 44.0859 45.7695C44.0356 45.3645 43.7665 45.0644 43.4847 45.0993C43.2029 45.1343 43.0152 45.491 43.0654 45.896C43.1156 46.3011 43.3848 46.6012 43.6666 46.5662Z" fill="#E6E6E6"/>
<path d="M47.5312 47.9647C47.813 47.9297 48.0007 47.573 47.9505 47.168C47.9003 46.7629 47.6311 46.4628 47.3493 46.4978C47.0675 46.5327 46.8798 46.8894 46.93 47.2945C46.9803 47.6996 47.2494 47.9996 47.5312 47.9647Z" fill="#E6E6E6"/>
<path d="M42.8388 51.9271C43.1206 51.8921 43.3083 51.5354 43.2581 51.1304C43.2079 50.7253 42.9387 50.4252 42.657 50.4602C42.3752 50.4951 42.1874 50.8518 42.2377 51.2569C42.2879 51.6619 42.557 51.962 42.8388 51.9271Z" fill="#E6E6E6"/>
<path d="M9.19288 44.7844C9.81696 44.6182 10.2292 44.1315 10.1135 43.6974C9.99791 43.2632 9.39826 43.046 8.77417 43.2122C8.15009 43.3784 7.73789 43.8651 7.85352 44.2993C7.96914 44.7334 8.56879 44.9506 9.19288 44.7844Z" fill="#E6E6E6"/>
<path d="M1.54871 44.926C2.1728 44.7598 2.585 44.2731 2.46938 43.839C2.35376 43.4048 1.7541 43.1876 1.13001 43.3538C0.505921 43.52 0.0937295 44.0067 0.209351 44.4409C0.324971 44.875 0.924622 45.0922 1.54871 44.926Z" fill="#E6E6E6"/>
<path d="M10.5512 38.4246C11.1752 38.2584 11.5874 37.7717 11.4718 37.3375C11.3562 36.9034 10.7565 36.6862 10.1325 36.8524C9.50836 37.0186 9.09617 37.5053 9.21179 37.9394C9.32742 38.3736 9.92707 38.5908 10.5512 38.4246Z" fill="#E6E6E6"/>
<path d="M12.8054 35.721C13.0872 35.6861 13.2749 35.3294 13.2247 34.9243C13.1744 34.5192 12.9053 34.2192 12.6235 34.2541C12.3417 34.2891 12.154 34.6458 12.2042 35.0508C12.2544 35.4559 12.5236 35.7559 12.8054 35.721Z" fill="#E6E6E6"/>
<path d="M13.3762 30.9232C13.658 30.8882 13.8457 30.5315 13.7955 30.1265C13.7452 29.7214 13.4761 29.4213 13.1943 29.4563C12.9125 29.4912 12.7248 29.8479 12.775 30.253C12.8252 30.658 13.0944 30.9581 13.3762 30.9232Z" fill="#E6E6E6"/>
<path d="M5.67073 40.1468C5.95252 40.1119 6.14025 39.7552 6.09003 39.3501C6.0398 38.945 5.77065 38.645 5.48886 38.6799C5.20708 38.7148 5.01935 39.0715 5.06957 39.4766C5.1198 39.8817 5.38895 40.1817 5.67073 40.1468Z" fill="#E6E6E6"/>
<path d="M9.53536 41.5457C9.81715 41.5108 10.0049 41.1541 9.95464 40.749C9.90442 40.3439 9.63528 40.0439 9.35349 40.0788C9.0717 40.1138 8.88397 40.4705 8.9342 40.8755C8.98442 41.2806 9.25357 41.5807 9.53536 41.5457Z" fill="#E6E6E6"/>
<path d="M4.84297 45.5076C5.12475 45.4727 5.31248 45.116 5.26226 44.7109C5.21203 44.3059 4.94288 44.0058 4.6611 44.0407C4.37931 44.0757 4.19159 44.4324 4.24181 44.8374C4.29204 45.2425 4.56118 45.5426 4.84297 45.5076Z" fill="#E6E6E6"/>
<path d="M55.6345 15.3919C56.2586 15.2256 56.6708 14.739 56.5552 14.3048C56.4396 13.8707 55.8399 13.6535 55.2158 13.8197C54.5917 13.9859 54.1795 14.4726 54.2952 14.9067C54.4108 15.3408 55.0104 15.5581 55.6345 15.3919Z" fill="#E6E6E6"/>
<path d="M47.9902 15.5334C48.6143 15.3672 49.0265 14.8806 48.9109 14.4464C48.7953 14.0123 48.1956 13.7951 47.5715 13.9613C46.9475 14.1275 46.5353 14.6141 46.6509 15.0483C46.7665 15.4824 47.3662 15.6997 47.9902 15.5334Z" fill="#E6E6E6"/>
<path d="M56.9927 9.0315C57.6168 8.86529 58.029 8.37861 57.9134 7.94446C57.7977 7.51031 57.1981 7.2931 56.574 7.45931C55.9499 7.62551 55.5377 8.1122 55.6533 8.54635C55.7689 8.9805 56.3686 9.19771 56.9927 9.0315Z" fill="#E6E6E6"/>
<path d="M59.247 6.32843C59.5288 6.2935 59.7165 5.9368 59.6663 5.53173C59.6161 5.12666 59.3469 4.82661 59.0651 4.86155C58.7834 4.89648 58.5956 5.25318 58.6459 5.65825C58.6961 6.06332 58.9652 6.36337 59.247 6.32843Z" fill="#E6E6E6"/>
<path d="M59.8177 1.53009C60.0995 1.49516 60.2872 1.13846 60.237 0.733389C60.1868 0.328319 59.9176 0.0282677 59.6358 0.0632049C59.354 0.0981421 59.1663 0.454838 59.2165 0.859908C59.2668 1.26498 59.5359 1.56503 59.8177 1.53009Z" fill="#E6E6E6"/>
<path d="M52.1124 10.7542C52.3942 10.7193 52.5819 10.3626 52.5317 9.95751C52.4814 9.55244 52.2123 9.25239 51.9305 9.28733C51.6487 9.32226 51.461 9.67896 51.5112 10.084C51.5614 10.4891 51.8306 10.7892 52.1124 10.7542Z" fill="#E6E6E6"/>
<path d="M55.977 12.1531C56.2588 12.1182 56.4465 11.7615 56.3963 11.3564C56.3461 10.9514 56.0769 10.6513 55.7951 10.6863C55.5133 10.7212 55.3256 11.0779 55.3758 11.483C55.4261 11.888 55.6952 12.1881 55.977 12.1531Z" fill="#E6E6E6"/>
<path d="M51.2846 16.1151C51.5664 16.0801 51.7541 15.7234 51.7039 15.3183C51.6537 14.9133 51.3845 14.6132 51.1028 14.6482C50.821 14.6831 50.6332 15.0398 50.6835 15.4449C50.7337 15.8499 51.0028 16.15 51.2846 16.1151Z" fill="#E6E6E6"/>
<path d="M6.89609 45.8721C5.64544 45.8721 4.83238 45.5613 4.47251 44.9435C3.76286 43.7253 4.9514 41.5877 8.00505 38.5902L8.26157 38.8515C5.42504 41.636 4.19174 43.734 4.78887 44.7592C5.16674 45.4077 6.29126 45.6401 8.04158 45.431C9.77916 45.2236 12.0819 44.6053 14.8857 43.5935C20.6581 41.5102 27.9001 37.9962 35.2777 33.6987C42.6551 29.4013 49.2842 24.8352 53.944 20.8415C54.839 20.0743 55.6513 19.3362 56.3583 18.6479C57.2863 17.7665 58.1424 16.8123 58.9185 15.7945C59.9637 14.3753 60.3165 13.2823 59.9387 12.6338C59.3077 11.5506 56.6568 11.6524 52.474 12.921L52.3678 12.5706C56.8554 11.2097 59.5092 11.1689 60.2551 12.4495C60.7186 13.2452 60.3681 14.4437 59.2134 16.0117C58.4254 17.0456 57.5561 18.0149 56.6137 18.9103C55.9012 19.604 55.0832 20.3473 54.1823 21.1195C49.5062 25.1272 42.8579 29.707 35.462 34.0151C28.0659 38.3234 20.8026 41.8474 15.0101 43.938C12.1801 44.9593 9.85014 45.584 8.08498 45.7946C7.69055 45.8438 7.29356 45.8697 6.89609 45.8721Z" fill="#3F3D56"/>
<g clip-path="url(#clip0_909_1080)">
<path d="M53.8165 89.9641C53.4951 92.4889 52.3131 94.7988 51.0521 97.024C51.0104 97.0997 50.9675 97.1744 50.9236 97.2501H37.8178C37.5527 97.1811 37.2911 97.1054 37.0305 97.024C35.5503 96.5722 34.1528 95.883 32.8924 94.9831C28.0708 91.5007 26.2154 84.9202 27.0534 79.0238C27.5745 75.3604 29.1783 71.6202 32.3014 69.6472C33.9503 68.6036 36.0684 68.2644 37.9666 68.6522C38.0163 68.6612 38.0659 68.6725 38.1166 68.6827C39.7498 69.0513 41.2047 69.9671 42.0326 71.4427C43.5214 74.0941 42.6349 77.3787 41.9029 80.3297C41.1732 83.2807 40.7773 86.8129 42.8954 88.9895C42.1961 86.926 42.8864 84.4645 44.5568 83.0693C45.8188 82.0166 47.5761 81.622 49.1788 81.9488C49.3321 81.9816 49.4833 82.0189 49.6322 82.0641C49.992 82.1698 50.3389 82.3154 50.6664 82.4983C53.1646 83.897 54.1763 87.1182 53.8165 89.9641Z" fill="#F2F2F2"/>
<path d="M46.0455 97.0239C46.4087 97.1087 46.773 97.1833 47.1395 97.2501H45.1579C44.8984 97.18 44.6402 97.1053 44.3842 97.0239C43.8214 96.8475 43.2672 96.6452 42.7217 96.4168C40.5336 95.4964 38.5181 94.1147 36.9933 92.2763C36.2475 91.3855 35.6385 90.3882 35.1864 89.3173C34.6962 88.1069 34.3846 86.8313 34.2616 85.5307C33.9853 82.8623 34.2672 80.1205 34.7939 77.4996C35.3375 74.7832 36.2149 72.1448 37.4061 69.6448C37.5493 69.3452 37.6974 69.0475 37.8505 68.7516C37.861 68.7273 37.8769 68.7056 37.897 68.6884C37.9172 68.6711 37.941 68.6587 37.9666 68.6521C38.0187 68.642 38.0726 68.653 38.1166 68.6826C38.1694 68.713 38.2086 68.7626 38.226 68.8211C38.2434 68.8796 38.2378 68.9425 38.2102 68.997C36.9821 71.398 36.0511 73.9405 35.4379 76.5679C34.8379 79.1311 34.4973 81.8131 34.6135 84.4487C34.724 86.9112 35.3658 89.3331 36.8218 91.3468C38.1516 93.1853 39.9877 94.6348 42.019 95.6219C43.3047 96.2386 44.6553 96.7088 46.0455 97.0239Z" fill="white"/>
<path d="M50.3946 97.25H49.8103C49.7449 97.1754 49.6818 97.0997 49.6197 97.0239C48.289 95.403 47.3874 93.4718 46.9986 91.409C46.5263 88.8348 46.8937 86.1765 48.0463 83.8279C48.3679 83.1693 48.7469 82.5405 49.1787 81.9487C49.3321 81.9815 49.4833 82.0188 49.6321 82.0641C48.4962 83.5728 47.7322 85.3294 47.4023 87.1905C47.1081 88.9344 47.2059 90.7222 47.6887 92.4234C48.1714 94.1246 49.0269 95.6963 50.1927 97.0239C50.2581 97.0997 50.3258 97.1754 50.3946 97.25Z" fill="white"/>
<path d="M103.025 95.3269C103.11 95.9932 103.422 96.6029 103.755 97.1901C103.766 97.2101 103.777 97.2298 103.789 97.2498H107.248C107.318 97.2316 107.387 97.2116 107.455 97.1901C107.846 97.0709 108.215 96.889 108.547 96.6515C109.82 95.7324 110.31 93.9957 110.088 92.4395C109.951 91.4727 109.528 90.4856 108.703 89.9649C108.256 89.6916 107.722 89.5978 107.208 89.7023C107.195 89.7047 107.182 89.7076 107.169 89.7103C106.955 89.7518 106.752 89.8381 106.574 89.9636C106.396 90.0892 106.246 90.2511 106.135 90.4387C105.742 91.1385 105.976 92.0054 106.169 92.7842C106.362 93.563 106.467 94.4952 105.907 95.0697C105.989 94.8294 106.006 94.5717 105.956 94.3229C105.905 94.0741 105.79 93.8432 105.621 93.654C105.452 93.4648 105.236 93.324 104.995 93.2463C104.754 93.1685 104.496 93.1565 104.249 93.2115C104.209 93.2202 104.169 93.23 104.13 93.2419C104.035 93.2698 103.943 93.3083 103.857 93.3565C103.197 93.7257 102.93 94.5758 103.025 95.3269Z" fill="#F2F2F2"/>
<path d="M105.076 97.1905C104.98 97.2129 104.884 97.2325 104.787 97.2502H105.31C105.379 97.2317 105.447 97.212 105.515 97.1905C105.663 97.1439 105.809 97.0905 105.953 97.0302C106.537 96.7926 107.056 96.4178 107.465 95.9375C107.662 95.7024 107.823 95.4392 107.942 95.1565C108.071 94.8371 108.154 94.5004 108.186 94.1572C108.245 93.4476 108.198 92.7331 108.046 92.0376C107.902 91.3207 107.671 90.6244 107.356 89.9646C107.318 89.8856 107.279 89.807 107.239 89.7289C107.236 89.7225 107.232 89.7168 107.227 89.7122C107.221 89.7077 107.215 89.7044 107.208 89.7026C107.195 89.7 107.18 89.7029 107.169 89.7107C107.155 89.7187 107.144 89.7318 107.14 89.7472C107.135 89.7627 107.137 89.7793 107.144 89.7936C107.468 90.4273 107.714 91.0983 107.876 91.7918C108.042 92.4719 108.115 93.1716 108.093 93.8716C108.081 94.5227 107.879 95.1558 107.51 95.6922C107.152 96.1753 106.681 96.5627 106.139 96.8205C105.799 96.9832 105.443 97.1073 105.076 97.1905Z" fill="white"/>
<path d="M103.928 97.2502H104.083C104.1 97.2305 104.116 97.2105 104.133 97.1905C104.484 96.7627 104.722 96.2531 104.825 95.7087C104.949 95.0293 104.852 94.3277 104.548 93.7079C104.463 93.5341 104.363 93.3681 104.249 93.2119C104.209 93.2206 104.169 93.2304 104.13 93.2423C104.429 93.6405 104.631 94.1041 104.718 94.5953C104.796 95.0556 104.77 95.5274 104.642 95.9764C104.515 96.4254 104.289 96.8402 103.982 97.1905C103.964 97.2105 103.947 97.2305 103.928 97.2502Z" fill="white"/>
<path d="M71.8488 80.0276H61.0234L60.9087 76.691C60.9037 76.5463 60.9301 76.4023 60.9859 76.2689C61.0418 76.1354 61.1259 76.0157 61.2323 75.9179C61.3387 75.8201 61.4651 75.7467 61.6026 75.7025C61.74 75.6584 61.8854 75.6446 62.0287 75.6622L68.3284 76.4355H68.3291C69.2631 76.438 70.1579 76.8116 70.8177 77.4743C71.4774 78.137 71.8482 79.0348 71.8488 79.9711V80.0276Z" fill="white"/>
<path d="M67.024 68.1919H59.4738C59.3734 68.1919 59.274 68.2117 59.1812 68.2502C59.0884 68.2887 59.0041 68.3452 58.9331 68.4163C58.8621 68.4875 58.8058 68.572 58.7674 68.665C58.729 68.758 58.7092 68.8577 58.7092 68.9584V76.5273C58.7092 76.628 58.729 76.7276 58.7674 76.8206C58.8058 76.9136 58.8621 76.9981 58.9331 77.0693C59.0041 77.1405 59.0884 77.197 59.1812 77.2355C59.274 77.274 59.3734 77.2938 59.4738 77.2938H67.024C67.1244 77.2938 67.2238 77.274 67.3166 77.2355C67.4094 77.197 67.4937 77.1405 67.5647 77.0693C67.6357 76.9981 67.692 76.9136 67.7304 76.8206C67.7688 76.7276 67.7886 76.628 67.7885 76.5273V68.9584C67.7886 68.8577 67.7688 68.758 67.7304 68.665C67.692 68.572 67.6357 68.4875 67.5647 68.4163C67.4937 68.3451 67.4094 68.2887 67.3166 68.2502C67.2238 68.2117 67.1244 68.1919 67.024 68.1919Z" fill="#CCCCCC"/>
<path d="M65.3235 73.8519L61.7587 74.5478C61.5473 74.5888 61.3282 74.5441 61.1496 74.4234C60.971 74.3027 60.8475 74.116 60.8061 73.9041L60.532 72.4934C60.4911 72.2815 60.5357 72.0619 60.6561 71.8828C60.7765 71.7038 60.9628 71.5799 61.1741 71.5384L64.7389 70.8425C64.9504 70.8015 65.1694 70.8462 65.348 70.9669C65.5266 71.0875 65.6502 71.2743 65.6916 71.4862L65.9656 72.8968C66.0065 73.1088 65.9619 73.3284 65.8415 73.5074C65.7211 73.6865 65.5348 73.8104 65.3235 73.8519Z" fill="#3F3D56"/>
<path d="M64.6103 72.1849L61.8898 72.716C61.84 72.7257 61.7885 72.7152 61.7464 72.6868C61.7044 72.6584 61.6753 72.6144 61.6656 72.5645C61.6559 72.5146 61.6664 72.4629 61.6948 72.4208C61.7231 72.3786 61.767 72.3495 61.8167 72.3398L64.5372 71.8087C64.587 71.799 64.6385 71.8095 64.6806 71.8379C64.7226 71.8663 64.7517 71.9103 64.7613 71.9602C64.771 72.0101 64.7606 72.0618 64.7322 72.1039C64.7039 72.146 64.66 72.1752 64.6103 72.1849Z" fill="white"/>
<path d="M64.0815 72.9715L62.6743 73.2462C62.6246 73.2559 62.573 73.2454 62.531 73.217C62.4889 73.1886 62.4599 73.1446 62.4502 73.0947C62.4405 73.0449 62.451 72.9932 62.4793 72.951C62.5076 72.9089 62.5515 72.8797 62.6013 72.87L64.0084 72.5953C64.033 72.5905 64.0584 72.5906 64.083 72.5956C64.1076 72.6006 64.131 72.6105 64.1518 72.6245C64.1726 72.6386 64.1904 72.6566 64.2043 72.6776C64.2182 72.6986 64.2278 72.7221 64.2326 72.7468C64.2374 72.7715 64.2373 72.7969 64.2323 72.8216C64.2273 72.8462 64.2175 72.8696 64.2034 72.8905C64.1894 72.9114 64.1714 72.9293 64.1505 72.9432C64.1296 72.9571 64.1061 72.9667 64.0815 72.9715Z" fill="white"/>
<path d="M67.7885 68.9584V69.9644H58.7092V68.9584C58.7092 68.8577 58.729 68.758 58.7674 68.665C58.8058 68.572 58.8621 68.4875 58.9331 68.4163C59.0041 68.3452 59.0884 68.2887 59.1812 68.2502C59.274 68.2117 59.3734 68.1919 59.4738 68.1919H67.024C67.1244 68.1919 67.2238 68.2117 67.3166 68.2502C67.4094 68.2887 67.4937 68.3452 67.5647 68.4163C67.6357 68.4875 67.692 68.572 67.7304 68.665C67.7688 68.758 67.7886 68.8577 67.7885 68.9584Z" fill="#B3B3B3"/>
<path d="M85.9191 70.2794C85.8666 70.1098 85.7778 69.9538 85.6587 69.8223C85.5396 69.6908 85.3932 69.5871 85.2299 69.5185C85.0665 69.4499 84.8901 69.4181 84.7131 69.4252C84.5361 69.4323 84.3628 69.4782 84.2055 69.5598L73.8182 65.8237L73.3607 68.4251L83.7149 71.2795C83.869 71.5354 84.1115 71.7258 84.3963 71.8145C84.681 71.9033 84.9884 71.8842 85.2601 71.7609C85.5318 71.6376 85.7489 71.4187 85.8704 71.1457C85.9918 70.8726 86.0092 70.5644 85.9191 70.2794Z" fill="#FFB8B8"/>
<path opacity="0.2" d="M85.9191 70.2794C85.8666 70.1098 85.7778 69.9538 85.6587 69.8223C85.5396 69.6908 85.3932 69.5871 85.2299 69.5185C85.0665 69.4499 84.8901 69.4181 84.7131 69.4252C84.5361 69.4323 84.3628 69.4782 84.2055 69.5598L73.8182 65.8237L73.3607 68.4251L83.7149 71.2795C83.869 71.5354 84.1115 71.7258 84.3963 71.8145C84.681 71.9033 84.9884 71.8842 85.2601 71.7609C85.5318 71.6376 85.7489 71.4187 85.8704 71.1457C85.9918 70.8726 86.0092 70.5644 85.9191 70.2794Z" fill="black"/>
<path d="M75.6619 66.2976L74.681 68.8665C74.6531 68.9396 74.6098 69.0058 74.5541 69.0606C74.4983 69.1154 74.4315 69.1575 74.358 69.1841C74.2846 69.2107 74.2063 69.2211 74.1285 69.2146C74.0507 69.2081 73.9752 69.1848 73.9072 69.1464L71.5233 67.8014C71.1511 67.6561 70.8516 67.3688 70.6904 67.0024C70.5292 66.6361 70.5194 66.2206 70.6633 65.8471C70.8072 65.4736 71.0929 65.1725 71.4579 65.0098C71.8229 64.8472 72.2373 64.8362 72.6103 64.9794L75.2723 65.5713C75.3485 65.5882 75.4202 65.6215 75.4824 65.6687C75.5447 65.7159 75.596 65.7761 75.633 65.845C75.67 65.9139 75.6917 65.99 75.6967 66.0682C75.7017 66.1463 75.6898 66.2245 75.6619 66.2976Z" fill="white"/>
<path d="M86.7366 72.6582L83.0146 74.3542L83.5033 76.1984C84.4469 79.7598 84.6974 83.47 84.2409 87.1263L86.9622 87.6961L89.2179 81.9297L88.4284 75.3718L86.7366 72.6582Z" fill="white"/>
<path d="M94.0395 81.1943C91.5941 81.1943 89.6012 82.9765 89.5045 85.2082H98.5746C98.4779 82.9765 96.485 81.1943 94.0395 81.1943Z" fill="#3F3D56"/>
<path d="M92.1359 81.5793C92.0087 71.5053 86.2855 72.432 86.2855 72.432C86.2855 72.432 86.3926 75.5678 86.444 75.6653C90.091 82.5827 84.0721 90.6923 76.4105 89.2004C76.2661 89.1722 76.1273 89.1437 75.9942 89.1148C75.0234 88.9116 74.1663 88.3453 73.5972 87.5311C73.0281 86.717 72.7897 85.7161 72.9305 84.732C73.6853 78.6563 69.9315 78.7638 69.9315 78.7638H64.4426L61.5921 76.192C61.4915 76.1012 61.3702 76.0365 61.2389 76.0036C61.1075 75.9706 60.9702 75.9705 60.8388 76.003C60.7074 76.0356 60.5859 76.1 60.4851 76.1905C60.3842 76.281 60.307 76.3949 60.2602 76.5222L59.8935 77.5201C59.8935 77.5201 54.4797 78.0854 54.9309 83.3995H56.6046C56.6006 83.5505 56.6066 83.7016 56.6227 83.8518L69.1139 83.75C69.8461 83.744 70.4924 84.3388 70.4954 85.0728C70.4962 85.2515 70.4609 85.4286 70.3919 85.5933C70.3228 85.758 70.2213 85.9071 70.0934 86.0316C69.9656 86.1562 69.8139 86.2535 69.6477 86.318C69.4814 86.3824 69.3038 86.4125 69.1257 86.4066L67.1118 86.3393C66.4915 89.1094 68.0141 90.975 69.6918 92.1481C71.2714 93.2365 73.1457 93.8136 75.0624 93.8017H80.5334C87.639 93.8017 88.8796 87.8091 88.8796 87.8091C92.6016 86.2262 92.1359 81.5793 92.1359 81.5793Z" fill="#3F3D56"/>
<path d="M93.7012 97.0804C97.205 97.0804 100.045 94.2329 100.045 90.7204C100.045 87.2078 97.205 84.3604 93.7012 84.3604C90.1973 84.3604 87.3569 87.2078 87.3569 90.7204C87.3569 94.2329 90.1973 97.0804 93.7012 97.0804Z" fill="#3F3D56"/>
<path d="M93.7012 92.2793C94.56 92.2793 95.2562 91.5814 95.2562 90.7204C95.2562 89.8595 94.56 89.1616 93.7012 89.1616C92.8424 89.1616 92.1462 89.8595 92.1462 90.7204C92.1462 91.5814 92.8424 92.2793 93.7012 92.2793Z" fill="white"/>
<path d="M61.6699 97.0806C65.7032 97.0806 68.9728 93.8029 68.9728 89.7595C68.9728 85.7162 65.7032 82.4385 61.6699 82.4385C57.6366 82.4385 54.3669 85.7162 54.3669 89.7595C54.3669 93.8029 57.6366 97.0806 61.6699 97.0806Z" fill="#3F3D56"/>
<path d="M61.6698 91.5536C62.6584 91.5536 63.4597 90.7502 63.4597 89.7592C63.4597 88.7682 62.6584 87.9648 61.6698 87.9648C60.6813 87.9648 59.8799 88.7682 59.8799 89.7592C59.8799 90.7502 60.6813 91.5536 61.6698 91.5536Z" fill="white"/>
<path d="M83.0252 74.8553L81.686 71.2089C81.6162 71.0189 81.5845 70.8169 81.5925 70.6146C81.6006 70.4122 81.6483 70.2135 81.733 70.0296C81.8177 69.8458 81.9377 69.6804 82.0862 69.5431C82.2346 69.4057 82.4086 69.299 82.5981 69.229L86.4374 67.8122C86.7709 67.689 87.1254 67.633 87.4806 67.6472C87.8357 67.6614 88.1846 67.7456 88.5073 67.8949C88.83 68.0443 89.1202 68.2559 89.3613 68.5177C89.6024 68.7796 89.7897 69.0864 89.9126 69.4208C90.0233 69.7209 90.0799 70.0384 90.0796 70.3584C90.0782 70.7647 89.9864 71.1656 89.8111 71.5319C89.6357 71.8982 89.3812 72.2208 89.0659 72.4761C88.8382 72.6593 88.5821 72.804 88.3079 72.9045L83.0252 74.8553Z" fill="#3F3D56"/>
<path d="M90.0233 70.3584C90.023 70.7564 89.9337 71.1493 89.7619 71.5082C89.5901 71.867 89.3403 72.1827 89.0307 72.432C88.5558 72.3064 88.1139 72.0787 87.7357 71.7646C87.3575 71.4505 87.052 71.0576 86.8406 70.6132C86.6292 70.1688 86.5168 69.6836 86.5113 69.1913C86.5058 68.699 86.6074 68.2114 86.8089 67.7624C87.1957 67.678 87.5965 67.6816 87.9818 67.7729C88.3671 67.8641 88.7271 68.0407 89.0354 68.2897C89.3437 68.5387 89.5924 68.8537 89.7634 69.2117C89.9343 69.5697 90.0232 69.9615 90.0233 70.3584Z" fill="white"/>
<path d="M55.8896 84.1343C56.7616 84.1343 57.4686 83.2737 57.4686 82.2122C57.4686 81.1506 56.7616 80.29 55.8896 80.29C55.0175 80.29 54.3105 81.1506 54.3105 82.2122C54.3105 83.2737 55.0175 84.1343 55.8896 84.1343Z" fill="white"/>
<path d="M76.7619 89.0161H78.1447L78.8026 85.4209L76.7617 85.421L76.7619 89.0161Z" fill="#FFB8B8"/>
<path d="M76.4092 88.5636L79.1323 88.5635H79.1324C79.3603 88.5635 79.5859 88.6085 79.7965 88.6959C80.007 88.7833 80.1983 88.9115 80.3595 89.073C80.5206 89.2345 80.6485 89.4263 80.7357 89.6374C80.8229 89.8485 80.8678 90.0747 80.8678 90.3031V90.3597L76.4093 90.3598L76.4092 88.5636Z" fill="#2F2E41"/>
<path d="M78.3669 87.5407C78.3508 87.5407 78.3346 87.5399 78.3184 87.5384L76.4048 87.3987C76.3274 87.3915 76.2527 87.3666 76.1864 87.3259C76.1201 87.2851 76.0641 87.2297 76.0226 87.1638C75.9811 87.098 75.9552 87.0234 75.947 86.9459C75.9387 86.8685 75.9484 86.7901 75.9751 86.717L78.5361 80.9489C78.5544 80.8975 78.5619 80.8428 78.5581 80.7884C78.5543 80.7339 78.5393 80.6808 78.514 80.6325C78.4888 80.5835 78.4535 80.5405 78.4105 80.5062C78.3675 80.4719 78.3178 80.4471 78.2646 80.4335C77.0603 80.1179 73.9706 79.2777 71.2959 78.2945C70.15 77.8733 69.4283 77.2645 69.1508 76.4852C68.7851 75.4578 69.3262 74.5208 69.3494 74.4815L69.3676 74.4507L71.8844 74.68L74.6128 74.9127L80.592 78.1269C81.093 78.3985 81.4736 78.8493 81.6579 79.3896C81.8422 79.9299 81.8168 80.5199 81.5866 81.0422L78.83 87.2391C78.7901 87.3289 78.7252 87.4051 78.643 87.4586C78.5608 87.5122 78.4649 87.5407 78.3669 87.5407Z" fill="#2F2E41"/>
<path d="M72.322 63.2679C73.8519 63.2679 75.0922 62.0246 75.0922 60.4909C75.0922 58.9572 73.8519 57.7139 72.322 57.7139C70.7921 57.7139 69.5519 58.9572 69.5519 60.4909C69.5519 62.0246 70.7921 63.2679 72.322 63.2679Z" fill="#FFB8B8"/>
<path d="M75.9724 89.3554H77.3552L78.013 85.7603L75.9722 85.7604L75.9724 89.3554Z" fill="#FFB8B8"/>
<path d="M75.6198 88.9025L78.3428 88.9023H78.343C78.5709 88.9023 78.7965 88.9473 79.0071 89.0348C79.2176 89.1222 79.4089 89.2503 79.5701 89.4119C79.7312 89.5734 79.859 89.7652 79.9463 89.9763C80.0335 90.1873 80.0784 90.4136 80.0783 90.642V90.6985L75.6198 90.6987L75.6198 88.9025Z" fill="#2F2E41"/>
<path d="M77.5774 87.8796C77.5613 87.8796 77.5452 87.8788 77.5289 87.8772L75.6153 87.7376C75.5379 87.7304 75.4632 87.7054 75.397 87.6647C75.3307 87.624 75.2747 87.5686 75.2332 87.5027C75.1916 87.4368 75.1658 87.3623 75.1575 87.2848C75.1493 87.2073 75.159 87.129 75.1857 87.0558L77.7467 81.2878C77.765 81.2364 77.7725 81.1817 77.7686 81.1272C77.7648 81.0728 77.7498 81.0197 77.7245 80.9713C77.6993 80.9224 77.6641 80.8794 77.6211 80.8451C77.5781 80.8108 77.5284 80.786 77.4752 80.7724C76.2709 80.4568 73.1811 79.6165 70.5065 78.6334C69.3606 78.2121 68.6389 77.6034 68.3614 76.8241C67.9956 75.7967 68.5368 74.8597 68.56 74.8204L68.5781 74.7896L71.0949 75.0189L73.8234 75.2515L79.8026 78.4658C80.3036 78.7374 80.6841 79.1882 80.8685 79.7285C81.0528 80.2687 81.0273 80.8588 80.7972 81.3811L78.0406 87.578C78.0007 87.6678 77.9357 87.744 77.8535 87.7975C77.7714 87.851 77.6755 87.8795 77.5774 87.8796Z" fill="#2F2E41"/>
<path d="M73.1764 64.8428L70.2439 63.8252C70.2439 63.8252 68.403 65.2431 69.2874 68.7604C69.7491 70.5755 69.6146 72.4914 68.9039 74.2238C68.8183 74.4381 68.7197 74.647 68.6085 74.8492C68.6085 74.8492 71.8793 78.8065 74.9246 75.8668L73.7403 70.1569C73.7403 70.1569 75.6013 66.3692 73.1764 64.8428Z" fill="white"/>
<path d="M72.6659 63.3625C72.2716 62.7709 71.9605 61.9506 72.3946 61.3877C72.8231 60.8321 73.6682 60.9139 74.3244 60.6681C75.2384 60.3256 75.7685 59.2492 75.6032 58.2851C75.4379 57.3211 74.6659 56.5219 73.7463 56.1949C72.8267 55.8679 71.7896 55.9743 70.8891 56.3508C69.7804 56.8144 68.8294 57.711 68.4307 58.8469C68.0319 59.9828 68.2451 61.3466 69.0723 62.2196C69.9593 63.1556 71.3512 63.4051 72.639 63.39" fill="#2F2E41"/>
<path d="M70.0891 58.316C69.5923 58.7215 68.8343 58.5414 68.301 58.1856C67.7677 57.8298 67.335 57.3231 66.758 57.0441C65.7407 56.5523 64.5109 56.8792 63.5208 57.424C62.5308 57.9688 61.6532 58.7214 60.6074 59.149C59.5616 59.5765 58.2272 59.5976 57.4353 58.7904C57.2404 59.3564 57.2245 59.9688 57.3897 60.5442C57.5549 61.1196 57.8931 61.6299 58.3583 62.0055C58.8235 62.3811 59.3929 62.6036 59.9889 62.6428C60.5849 62.682 61.1784 62.5358 61.6885 62.2244C62.8343 61.5247 63.4673 60.0576 64.7524 59.6714C65.4636 59.4577 66.2273 59.6298 66.946 59.8162C67.6648 60.0027 68.4143 60.2041 69.1396 60.0454C69.865 59.8867 70.5435 59.2332 70.4512 58.4947L70.0891 58.316Z" fill="#2F2E41"/>
<path d="M85.7812 70.1661C85.7083 70.0043 85.6009 69.8604 85.4665 69.7447C85.3322 69.629 85.1742 69.5442 85.0036 69.4963C84.833 69.4484 84.6541 69.4386 84.4793 69.4676C84.3045 69.4965 84.1382 69.5635 83.9921 69.6639L73.2244 67.2412L73.0906 69.8793L83.717 71.4312C83.9014 71.6661 84.1654 71.825 84.459 71.8779C84.7525 71.9307 85.0551 71.8737 85.3096 71.7178C85.564 71.5618 85.7526 71.3178 85.8395 71.0318C85.9264 70.7458 85.9057 70.4378 85.7812 70.1661Z" fill="#FFB8B8"/>
<path d="M75.1123 67.4838L74.4551 70.1544C74.4364 70.2304 74.4016 70.3015 74.353 70.3627C74.3045 70.424 74.2433 70.4741 74.1737 70.5095C74.1041 70.545 74.0277 70.565 73.9497 70.5681C73.8717 70.5713 73.7939 70.5576 73.7216 70.5279L71.1904 69.488C70.803 69.3901 70.47 69.1421 70.2647 68.7984C70.0595 68.4547 69.9986 68.0434 70.0954 67.6547C70.1923 67.2661 70.4389 66.9318 70.7813 66.7253C71.1237 66.5188 71.5339 66.4569 71.9218 66.5531L74.6363 66.8112C74.714 66.8186 74.7892 66.8427 74.8568 66.8819C74.9244 66.9211 74.9828 66.9744 75.0279 67.0382C75.0731 67.1021 75.104 67.1749 75.1186 67.2518C75.1331 67.3287 75.131 67.4078 75.1123 67.4838V67.4838Z" fill="white"/>
<path d="M84.5373 72.2621C84.9733 72.2621 85.3268 71.9078 85.3268 71.4707C85.3268 71.0336 84.9733 70.6792 84.5373 70.6792C84.1013 70.6792 83.7478 71.0336 83.7478 71.4707C83.7478 71.9078 84.1013 72.2621 84.5373 72.2621Z" fill="white"/>
</g>
<defs>
<clipPath id="clip0_909_1080">
<rect width="93.5" height="41.25" fill="white" transform="translate(26 56)"/>
</clipPath>
</defs>
</svg>
