<svg width="268" height="178" viewBox="0 0 268 178" fill="none" xmlns="http://www.w3.org/2000/svg">
<g clip-path="url(#clip0_334_706)">
<path d="M95.9641 101.999C105.132 85.9217 122.621 73.577 141.135 74.7662C127.479 89.5696 119.516 108.711 118.654 128.804C118.35 136.554 118.822 145.205 113.66 151.009C110.448 154.62 105.538 156.368 100.711 156.735C95.8835 157.102 91.0573 156.233 86.2944 155.367L85.139 155.72C84.6992 137.232 86.7957 118.076 95.9641 101.999Z" fill="#F0F0F0"/>
<path d="M141.162 75.1533C127.472 81.723 115.798 92.6953 108.632 106.077C107.083 108.97 105.764 112.039 105.188 115.284C104.613 118.531 105.015 121.621 106.127 124.705C107.144 127.524 108.512 130.29 108.824 133.306C109.152 136.485 107.979 139.458 105.866 141.817C103.282 144.704 99.8108 146.493 96.3555 148.125C92.5191 149.936 88.5054 151.758 85.7881 155.139C85.4589 155.549 84.8404 155.015 85.1692 154.606C89.8968 148.723 97.9893 147.618 103.601 142.879C106.22 140.667 108.185 137.656 108.061 134.128C107.953 131.042 106.545 128.188 105.491 125.343C104.383 122.355 103.831 119.351 104.228 116.166C104.634 112.908 105.836 109.78 107.304 106.861C110.616 100.276 115.147 94.2302 120.339 89.0042C126.305 82.9971 133.258 78.0517 140.897 74.382C141.37 74.155 141.632 74.9278 141.162 75.1533V75.1533Z" fill="white"/>
<path d="M110.731 101.605C108.632 100.075 107.147 97.8512 106.542 95.3308C105.936 92.8104 106.248 90.1573 107.423 87.8454C107.663 87.3784 108.402 87.7274 108.162 88.1949C107.064 90.3458 106.773 92.8171 107.342 95.163C107.911 97.5089 109.303 99.5747 111.265 100.988C111.692 101.295 111.155 101.91 110.731 101.605V101.605Z" fill="white"/>
<path d="M105.423 123.343C110.682 122.577 115.458 119.863 118.799 115.743C119.13 115.334 119.748 115.867 119.418 116.275C115.933 120.557 110.957 123.371 105.483 124.156C104.961 124.23 104.904 123.417 105.423 123.343V123.343Z" fill="white"/>
<path d="M126.709 84.0001C127.397 84.7606 128.264 85.3389 129.232 85.6829C130.2 86.0269 131.238 86.1258 132.254 85.9709C132.775 85.8899 132.831 86.7033 132.314 86.7838C131.191 86.9498 130.044 86.8391 128.974 86.4614C127.904 86.0837 126.943 85.4505 126.174 84.6171C126.095 84.5445 126.047 84.4448 126.039 84.338C126.031 84.2312 126.065 84.1255 126.132 84.0423C126.203 83.9609 126.304 83.9109 126.412 83.903C126.52 83.8951 126.626 83.93 126.709 84.0001Z" fill="white"/>
<path d="M177.971 125.484C177.647 125.544 177.324 125.604 176.997 125.67C172.65 126.496 168.377 127.674 164.221 129.19C163.898 129.302 163.572 129.421 163.253 129.542C153.28 133.302 144.093 138.874 136.161 145.977C133.007 148.806 130.073 151.871 127.386 155.143C123.674 159.664 120.011 164.859 115.161 167.806C114.659 168.119 114.137 168.401 113.6 168.65L85.6613 157.098C85.6111 157.04 85.5578 156.988 85.5073 156.93L84.3706 156.52C84.4974 156.341 84.6327 156.159 84.7595 155.98C84.8326 155.877 84.9119 155.775 84.9851 155.672C85.0358 155.603 85.0868 155.535 85.1287 155.47C85.1455 155.447 85.1626 155.425 85.1767 155.408C85.2186 155.344 85.2643 155.288 85.3035 155.23C86.0572 154.208 86.8194 153.19 87.5901 152.176C87.5928 152.17 87.5928 152.17 87.6017 152.166C93.494 144.451 100.084 137.16 107.575 131.097C107.8 130.914 108.028 130.725 108.266 130.548C111.658 127.834 115.267 125.401 119.056 123.273C121.135 122.114 123.271 121.061 125.457 120.118C131.109 117.691 137.108 116.166 143.236 115.598C155.451 114.467 167.892 117.243 177.261 124.893C177.5 125.088 177.734 125.282 177.971 125.484Z" fill="#F0F0F0"/>
<path d="M177.761 125.812C162.862 122.841 146.914 124.595 133.111 130.979C130.126 132.359 127.219 134.018 124.8 136.263C122.379 138.51 120.834 141.219 119.86 144.349C118.969 147.21 118.391 150.239 116.818 152.835C115.16 155.571 112.427 157.24 109.316 157.856C105.509 158.609 101.657 157.955 97.9126 157.184C93.7552 156.328 89.4505 155.373 85.2387 156.442C84.7284 156.571 84.5566 155.774 85.0662 155.645C92.394 153.785 99.5234 157.759 106.866 157.343C110.293 157.149 113.681 155.925 115.713 153.033C117.49 150.505 118.089 147.381 118.966 144.476C119.886 141.426 121.26 138.696 123.501 136.391C125.793 134.033 128.641 132.258 131.577 130.808C138.198 127.537 145.468 125.43 152.769 124.373C161.161 123.158 169.7 123.382 178.016 125.037C178.53 125.139 178.272 125.914 177.761 125.812V125.812Z" fill="white"/>
<path d="M137.487 128.668C136.735 126.187 136.893 123.52 137.931 121.144C138.97 118.768 140.822 116.837 143.157 115.697C143.63 115.467 144.009 116.19 143.535 116.419C141.359 117.477 139.634 119.276 138.672 121.49C137.709 123.705 137.573 126.19 138.287 128.496C138.441 128.997 137.641 129.166 137.487 128.668Z" fill="white"/>
<path d="M120.119 142.839C124.781 145.383 130.234 146.083 135.39 144.798C135.901 144.671 136.073 145.467 135.562 145.595C130.194 146.922 124.521 146.182 119.676 143.524C119.214 143.27 119.66 142.586 120.119 142.839V142.839Z" fill="white"/>
<path d="M160.877 124.201C160.968 125.221 161.311 126.203 161.876 127.059C162.441 127.914 163.21 128.617 164.115 129.103C164.58 129.35 164.133 130.034 163.672 129.788C162.675 129.246 161.826 128.47 161.2 127.526C160.573 126.582 160.188 125.499 160.078 124.373C160.059 124.267 160.081 124.159 160.139 124.069C160.197 123.979 160.287 123.914 160.392 123.888C160.497 123.866 160.608 123.887 160.699 123.945C160.79 124.004 160.854 124.095 160.877 124.201V124.201Z" fill="white"/>
<path d="M124.75 144.542C120.837 125.684 115.946 119.396 115.946 119.396L114.078 117.952L111.831 116.212L111.842 115.988L111.309 115.807L111.184 115.71L110.978 115.553L110.945 115.589L110.876 115.661L100.708 112.215L87.8085 107.848L81.8352 100.108C80.8624 98.8476 79.6099 97.8288 78.176 97.1316C76.742 96.4344 75.1656 96.0777 73.5702 96.0895L54.4935 96.2302C51.9141 96.2492 49.4351 97.2294 47.5439 98.978L35.0051 110.572L15.4671 119.874L15.4341 119.841L15.2289 119.987L12.2101 121.426L12.3347 122.072L10.4663 123.416C10.4663 123.416 5.57538 129.267 1.66265 146.815C0.667292 151.28 0.177343 160.858 0.000496973 172.661C-0.00838596 173.258 0.101892 173.851 0.324915 174.405C0.547938 174.959 0.879259 175.463 1.29961 175.889C1.71997 176.314 2.22096 176.652 2.77348 176.883C3.32599 177.113 3.919 177.232 4.51802 177.232H108.874V177.232H121.899C122.498 177.232 123.09 177.113 123.643 176.883C124.195 176.653 124.695 176.315 125.116 175.89C125.536 175.465 125.867 174.961 126.091 174.408C126.314 173.854 126.425 173.262 126.417 172.665C126.244 159.822 125.754 149.385 124.75 144.542Z" fill="#3F3D56"/>
<path d="M138.139 16.4465C134.079 16.4465 130.185 18.0543 127.314 20.9161C124.443 23.778 122.831 27.6594 122.831 31.7067C122.831 35.7539 124.443 39.6354 127.314 42.4972C130.185 45.3591 134.079 46.9668 138.139 46.9668H252.224C256.284 46.9668 260.178 45.3591 263.049 42.4972C265.919 39.6354 267.532 35.7539 267.532 31.7067C267.532 27.6594 265.919 23.778 263.049 20.9161C260.178 18.0543 256.284 16.4465 252.224 16.4465H138.139Z" fill="#E5E5E5"/>
<path d="M138.139 19.5349C134.901 19.5349 131.795 20.8172 129.505 23.0999C127.215 25.3825 125.929 28.4785 125.929 31.7066C125.929 34.9348 127.215 38.0307 129.505 40.3134C131.795 42.5961 134.901 43.8784 138.139 43.8784H252.224C255.462 43.8784 258.568 42.5961 260.858 40.3134C263.148 38.0307 264.434 34.9348 264.434 31.7066C264.434 28.4785 263.148 25.3825 260.858 23.0999C258.568 20.8172 255.462 19.5349 252.224 19.5349H138.139Z" fill="white"/>
<path d="M67.0276 88.9453C80.8305 88.9453 92.02 77.7912 92.02 64.0318C92.02 50.2724 80.8305 39.1183 67.0276 39.1183C53.2247 39.1183 42.0352 50.2724 42.0352 64.0318C42.0352 77.7912 53.2247 88.9453 67.0276 88.9453Z" fill="#9E616A"/>
<path d="M60.6344 87.7255C60.5276 87.4911 60.4211 87.256 60.3149 87.02C60.3559 87.0213 60.3964 87.0272 60.4373 87.0283L60.6344 87.7255Z" fill="#2F2E41"/>
<path d="M41.3401 40.2512C42.6042 39.2461 44.0816 38.3212 45.6977 38.3732C47.3138 38.4251 48.9527 39.8801 48.6178 41.4571C51.5863 36.2177 56.3112 32.188 61.9633 30.0754C67.6153 27.9627 73.8332 27.9021 79.5256 29.9041C83.5423 31.3167 87.4813 34.1429 88.404 38.288C88.6409 39.352 88.6917 40.5188 89.3582 41.3828C90.1986 42.4722 91.8064 42.7187 93.1303 42.3354C93.1435 42.3316 93.1567 42.3277 93.1699 42.3238C93.3936 42.2476 93.635 42.2402 93.8629 42.3023C94.0909 42.3644 94.2949 42.4933 94.4486 42.6723C94.6023 42.8513 94.6986 43.0721 94.725 43.3062C94.7514 43.5403 94.7067 43.7769 94.5967 43.9855L93.4602 46.0984C94.8929 46.4167 96.3815 46.3852 97.7993 46.0064C98.0348 45.9448 98.2837 45.9574 98.5118 46.0424C98.7398 46.1274 98.9359 46.2806 99.0732 46.4811C99.2104 46.6816 99.2821 46.9195 99.2783 47.1622C99.2746 47.4049 99.1956 47.6405 99.0522 47.8366C95.3046 52.9656 89.0437 56.2776 82.6545 56.2386C78.1135 56.211 73.5258 54.6509 69.1064 55.6919C67.3966 56.0946 65.7991 56.8738 64.4309 57.9722C63.0626 59.0707 61.9585 60.4605 61.1994 62.0399C60.4403 63.6192 60.0455 65.3479 60.0441 67.0991C60.0426 68.8503 60.4345 70.5797 61.191 72.1603C59.8333 70.6799 57.2088 71.0304 55.82 72.4818C54.4313 73.9332 54.0717 76.0995 54.2117 78.1005C54.4256 81.1608 55.6285 84.0445 56.8965 86.8511C46.265 86.5175 36.2094 79.0832 32.8246 69.0281C29.4257 58.931 32.9879 46.893 41.3401 40.2512Z" fill="#2F2E41"/>
<path opacity="0.2" d="M24.5991 138.849L31.6089 176.867L35.815 177.232L24.5991 138.849Z" fill="black"/>
<path opacity="0.2" d="M101.814 135.982L94.8037 176.84L90.5977 177.232L101.814 135.982Z" fill="black"/>
<path d="M47.319 27.4561C45.9749 28.0156 44.5725 27.4024 43.9843 25.9984C43.3872 24.5728 43.9449 23.1257 45.3105 22.5572C46.6762 21.9888 48.0537 22.6034 48.6604 24.0519C49.2581 25.4788 48.7065 26.8786 47.319 27.4561ZM44.7444 19.7513L43.6757 20.1961C43.4087 20.3059 43.1102 20.3118 42.839 20.2127C42.5679 20.1136 42.3439 19.9166 42.2115 19.6608L42.1587 19.5577C41.0088 17.4905 40.8771 14.9781 41.7694 12.0943C42.596 9.50731 42.9393 7.68792 42.2489 6.03964C41.4506 4.13392 39.746 3.53695 37.5722 4.40173C36.7291 4.75266 36.4608 4.74707 35.7973 5.40317C35.653 5.54762 35.481 5.66163 35.2915 5.73838C35.102 5.81513 34.899 5.85306 34.6945 5.84991C34.4968 5.84759 34.3016 5.80561 34.1206 5.72647C33.9395 5.64733 33.7763 5.53265 33.6406 5.38928C33.3793 5.11297 33.2329 4.74811 33.231 4.36837C33.2291 3.98864 33.3718 3.62232 33.6303 3.3434C34.7455 2.1797 36.0905 1.25906 37.5806 0.639584C42.2511 -1.30451 44.6023 1.56566 45.6782 4.1342C46.7306 6.64652 46.1386 8.97754 45.1874 11.9964C44.3903 14.5049 44.4368 16.3637 45.3422 18.2119C45.4076 18.3517 45.444 18.5031 45.4492 18.6572C45.4543 18.8113 45.4282 18.9648 45.3724 19.1086C45.3166 19.2524 45.2321 19.3834 45.1242 19.4939C45.0163 19.6043 44.8871 19.6919 44.7444 19.7513L44.7444 19.7513Z" fill="#E4A90D"/>
<path d="M163.339 38.9847H140.64C140.568 38.9852 140.497 38.9715 140.43 38.9443C140.363 38.9172 140.302 38.8771 140.251 38.8264C140.2 38.7758 140.16 38.7155 140.132 38.6492C140.104 38.5828 140.09 38.5116 140.09 38.4397C140.09 38.3678 140.104 38.2967 140.132 38.2303C140.16 38.1639 140.2 38.1037 140.251 38.053C140.302 38.0024 140.363 37.9623 140.43 37.9351C140.497 37.908 140.568 37.8942 140.64 37.8947H163.339C163.483 37.8957 163.621 37.9536 163.723 38.0557C163.825 38.1578 163.882 38.2958 163.882 38.4397C163.882 38.5836 163.825 38.7217 163.723 38.8238C163.621 38.9259 163.483 38.9838 163.339 38.9847Z" fill="#E4A90D"/>
<path d="M192.134 39.1664H169.435C169.363 39.1669 169.292 39.1531 169.225 39.126C169.158 39.0988 169.097 39.0587 169.046 39.0081C168.995 38.9574 168.954 38.8972 168.927 38.8308C168.899 38.7644 168.885 38.6933 168.885 38.6214C168.885 38.5495 168.899 38.4783 168.927 38.4119C168.954 38.3456 168.995 38.2853 169.046 38.2347C169.097 38.184 169.158 38.144 169.225 38.1168C169.292 38.0896 169.363 38.0759 169.435 38.0764H192.134C192.206 38.0759 192.277 38.0896 192.344 38.1168C192.411 38.144 192.472 38.184 192.523 38.2347C192.574 38.2853 192.615 38.3456 192.642 38.4119C192.67 38.4783 192.684 38.5495 192.684 38.6214C192.684 38.6933 192.67 38.7644 192.642 38.8308C192.615 38.8972 192.574 38.9574 192.523 39.0081C192.472 39.0587 192.411 39.0988 192.344 39.126C192.277 39.1531 192.206 39.1669 192.134 39.1664V39.1664Z" fill="#E4A90D"/>
<path d="M220.928 39.348H198.23C198.085 39.347 197.947 39.2892 197.845 39.1871C197.744 39.085 197.687 38.9469 197.687 38.803C197.687 38.6591 197.744 38.521 197.845 38.4189C197.947 38.3168 198.085 38.259 198.23 38.258H220.928C221 38.2575 221.072 38.2713 221.139 38.2984C221.205 38.3256 221.266 38.3657 221.317 38.4163C221.368 38.467 221.409 38.5272 221.437 38.5936C221.464 38.66 221.479 38.7311 221.479 38.803C221.479 38.8749 221.464 38.9461 221.437 39.0124C221.409 39.0788 221.368 39.1391 221.317 39.1897C221.266 39.2404 221.205 39.2804 221.139 39.3076C221.072 39.3348 221 39.3485 220.928 39.348H220.928Z" fill="#E4A90D"/>
<path d="M249.723 39.5297H227.024C226.88 39.5287 226.742 39.4709 226.64 39.3688C226.538 39.2667 226.481 39.1286 226.481 38.9847C226.481 38.8408 226.538 38.7027 226.64 38.6006C226.742 38.4985 226.88 38.4407 227.024 38.4397H249.723C249.867 38.4407 250.005 38.4985 250.107 38.6006C250.209 38.7027 250.266 38.8408 250.266 38.9847C250.266 39.1286 250.209 39.2667 250.107 39.3688C250.005 39.4709 249.867 39.5287 249.723 39.5297Z" fill="#E4A90D"/>
<path d="M151.94 33.9689C154.27 33.9689 156.159 32.0861 156.159 29.7636C156.159 27.441 154.27 25.5582 151.94 25.5582C149.61 25.5582 147.721 27.441 147.721 29.7636C147.721 32.0861 149.61 33.9689 151.94 33.9689Z" fill="#E4A90D"/>
<path d="M180.908 33.9689C183.238 33.9689 185.127 32.0861 185.127 29.7636C185.127 27.441 183.238 25.5582 180.908 25.5582C178.578 25.5582 176.689 27.441 176.689 29.7636C176.689 32.0861 178.578 33.9689 180.908 33.9689Z" fill="#E4A90D"/>
<path d="M209.877 33.9689C212.207 33.9689 214.096 32.0861 214.096 29.7636C214.096 27.441 212.207 25.5582 209.877 25.5582C207.547 25.5582 205.658 27.441 205.658 29.7636C205.658 32.0861 207.547 33.9689 209.877 33.9689Z" fill="#E4A90D"/>
<path d="M238.845 33.9689C241.175 33.9689 243.064 32.0861 243.064 29.7636C243.064 27.441 241.175 25.5582 238.845 25.5582C236.515 25.5582 234.626 27.441 234.626 29.7636C234.626 32.0861 236.515 33.9689 238.845 33.9689Z" fill="#E4A90D"/>
</g>
<defs>
<clipPath id="clip0_334_706">
<rect width="267.533" height="177.232" fill="white"/>
</clipPath>
</defs>
</svg>
