<svg width="200" height="160" viewBox="0 0 200 160" fill="none" xmlns="http://www.w3.org/2000/svg">
<g clip-path="url(#clip0_236_920)">
<path d="M199.655 152.755C199.169 154.397 187.453 156.426 180.165 158.162C175.085 159.371 169.878 159.971 164.657 159.913L35.1432 158.469C26.8115 158.376 18.5563 156.867 10.731 154.005L0 150.081C11.1205 147.016 45.5827 144.799 57.7249 143.888C68.0651 139.907 79.251 135.792 91.524 136.027C105.001 136.284 116.997 141.783 130.465 142.169C141.374 142.48 135.175 142.151 145.147 139.48C155.12 136.81 150.904 141.049 161.35 141.287C170.601 141.498 179.775 137.675 188.616 139.325C197.298 140.944 201.245 147.381 199.655 152.755Z" fill="#E4E5E6"/>
<path d="M131.712 153.567H36.1586C35.625 153.567 35.1909 153.133 35.1909 152.599C35.1909 152.066 35.625 151.631 36.1586 151.631H131.712C132.245 151.631 132.679 152.066 132.679 152.599C132.679 153.133 132.245 153.567 131.712 153.567Z" fill="#CFD1D2"/>
<path d="M83.9143 158.05H39.6083C39.0747 158.05 38.6406 157.615 38.6406 157.082C38.6406 156.548 39.0747 156.114 39.6083 156.114H83.9143C84.4479 156.114 84.8821 156.548 84.8821 157.082C84.8821 157.615 84.4479 158.05 83.9143 158.05Z" fill="#CFD1D2"/>
<path d="M111.661 150.431H16.1083C15.5747 150.431 15.1406 149.997 15.1406 149.463C15.1406 148.929 15.5747 148.495 16.1083 148.495H111.661C112.195 148.495 112.629 148.929 112.629 149.463C112.629 149.997 112.195 150.431 111.661 150.431Z" fill="#CFD1D2"/>
<path d="M126.904 147.531C126.922 148.886 126.939 150.24 126.957 151.595C126.961 151.903 127.212 152.155 127.521 152.159C130.073 152.192 132.625 152.225 135.178 152.258C136.454 152.274 137.73 152.295 139.006 152.307C139.498 152.311 140.002 152.284 140.449 152.057C140.926 151.815 141.221 151.345 141.289 150.823C141.364 150.241 141.184 149.676 140.95 149.152C140.728 148.657 140.395 148.11 140.588 147.557C140.688 147.27 140.474 146.94 140.194 146.864C139.883 146.778 139.601 146.969 139.501 147.257C139.125 148.333 139.88 149.186 140.129 150.175C140.2 150.455 140.25 150.835 139.983 151.027C139.666 151.254 139.145 151.181 138.781 151.176C136.379 151.145 133.977 151.114 131.574 151.083C130.223 151.066 128.872 151.049 127.521 151.031L128.084 151.595C128.067 150.24 128.049 148.886 128.032 147.531C128.023 146.806 126.895 146.804 126.904 147.531H126.904Z" fill="#2F2E43"/>
<path d="M100.91 140.055C100.386 141.305 99.8624 142.554 99.3386 143.803C99.2518 144.011 99.3927 144.348 99.5977 144.44C101.96 145.503 104.322 146.566 106.684 147.628C107.858 148.156 109.026 148.7 110.206 149.212C110.763 149.454 111.384 149.66 111.984 149.439C112.467 149.26 112.79 148.875 112.977 148.406C113.163 147.936 113.184 147.421 113.171 146.921C113.16 146.466 113.098 145.864 113.436 145.502C113.93 144.971 113.135 144.172 112.639 144.705C111.915 145.481 112.1 146.458 112.042 147.423C112.024 147.73 111.96 148.121 111.727 148.311C111.444 148.543 110.947 148.315 110.642 148.179C108.412 147.189 106.192 146.177 103.967 145.176L100.167 143.467L100.426 144.103C100.95 142.854 101.474 141.604 101.997 140.355C102.115 140.074 101.87 139.735 101.604 139.661C101.278 139.572 101.028 139.773 100.91 140.055L100.91 140.055Z" fill="#2F2E43"/>
<path d="M124.701 135.643L125.005 142.24L124.7 144.066L125.765 146.196L134.132 147.108L134.588 143.153L130.177 140.871L130.049 137.144L124.701 135.643Z" fill="#FFAEB0"/>
<path d="M131.523 140.119L131.973 130.056L122.224 129.381C122.224 129.381 124.7 147.565 124.7 148.325C124.7 149.086 139.152 149.086 141.327 148.782C143.501 148.477 142.803 146.5 142.803 146.5L133.785 142.231L131.523 140.119L131.523 140.119Z" fill="#2F2E43"/>
<path d="M103.423 128.71L101.6 135.057L100.728 136.69L101.055 139.048L108.689 142.59L110.388 138.989L106.938 135.416L109.102 129.805L103.423 128.71Z" fill="#FFAEB0"/>
<path d="M108.87 136.678L110.388 127.659L101.003 125.317C101.003 125.317 99.608 140.004 99.3645 140.725C99.1211 141.446 112.813 146.07 114.97 146.478C117.128 146.886 117.099 144.789 117.099 144.789L110.388 138.989L108.87 136.678L108.87 136.678Z" fill="#2F2E43"/>
<path d="M131.852 62.0511L111.066 64.1056L100.808 133.758L107.449 134.78L122.127 86.031L124.323 140.119H130.387L136.515 73.9079L131.852 62.0511Z" fill="#2F2E43"/>
<path d="M124.201 25.6523L124.532 31.0366L114.478 31.5466L117.592 24.4527L124.201 25.6523Z" fill="#FFAEB0"/>
<path d="M125.048 25.4866C125.048 25.4866 118.837 26.8116 114.237 24.0117C114.237 24.0117 113.649 28.5865 115.749 30.5863C117.849 32.5862 119.643 43.4856 119.643 43.4856L126.348 43.0856L126.948 29.0864C126.948 29.0864 129.848 25.5866 125.048 25.4866H125.048Z" fill="#E4A90D"/>
<path d="M108.349 57.6848C108.349 57.6848 102.8 81.3834 103.4 88.283C103.543 89.9264 103.541 91.5102 103.455 92.9696C103.205 97.2405 106.783 100.748 111.048 100.422C122.153 99.5724 139.595 97.881 139.698 95.6326C139.848 92.3328 134.223 60.6846 130.173 57.8348L133.698 30.6864L127.774 26.7255C127.774 26.7255 120.953 29.4864 120.876 39.3858C120.876 39.3858 117.275 27.5643 114.237 26.7255C111.199 25.8866 103.25 34.4861 103.25 34.4861L108.349 57.6848H108.349H108.349Z" fill="#3F3D58"/>
<path d="M98.3098 83.1333C97.9907 85.5531 96.44 87.3301 94.8465 87.1025C93.2529 86.8748 92.2202 84.7289 92.5397 82.3083C92.6536 81.3394 93.0059 80.4157 93.5672 79.6143L95.0532 69.3807L100.009 70.2542L98.0181 80.2501C98.3511 81.1793 98.4512 82.168 98.3098 83.1333C98.3098 83.1333 98.3098 83.1333 98.3098 83.1333Z" fill="#FFAEB0"/>
<path d="M99.0482 79.7875L93.4314 78.5166L93.4361 78.4222L94.5321 55.8923L94.5384 55.8757L102.178 35.5449C102.711 34.1251 104.088 33.1896 105.605 33.2169C106.715 33.2373 107.737 33.7567 108.406 34.6431C109.076 35.5295 109.297 36.6539 109.013 37.7278L102.05 57.8538L99.0482 79.7875H99.0482Z" fill="#3F3D58"/>
<path d="M133.953 79.5868C134.033 82.0262 135.402 83.9467 137.01 83.8763C138.618 83.8059 139.856 81.7715 139.776 79.3313C139.757 78.3559 139.497 77.402 139.017 76.5496L138.541 66.2195L133.523 66.6032L134.525 76.746C134.103 77.6382 133.906 78.6123 133.953 79.5868C133.953 79.5868 133.953 79.5868 133.953 79.5868V79.5868Z" fill="#FFAEB0"/>
<path d="M133.546 76.1846L133.533 76.0712L131.003 53.4113L127.751 33.3511C127.573 32.2545 127.903 31.1573 128.657 30.3407C129.41 29.5242 130.477 29.1082 131.584 29.1957C133.096 29.3173 134.375 30.3833 134.767 31.8484L141.108 75.2393L133.546 76.1846Z" fill="#3F3D58"/>
<path d="M127.035 22.7643C129.155 18.7893 127.652 13.8484 123.677 11.7284C119.702 9.60842 114.761 11.1122 112.641 15.0872C110.521 19.0621 112.025 24.0031 116 26.1231C119.975 28.243 124.915 26.7393 127.035 22.7643Z" fill="#FFAEB0"/>
<path d="M123.719 8.35778C125.516 8.98926 126.544 9.35061 127.485 10.2579C129.076 11.7904 129.339 13.8384 129.583 15.7412C129.773 17.2299 130.02 19.1546 129.149 21.3536C128.851 22.1041 127.408 25.4476 124.646 25.8702C124.103 25.9531 122.83 25.9749 123.197 25.7039C126.594 23.1958 128.044 21.6817 127.925 17.8162C127.851 15.4144 124.181 12.8212 122.002 12.355C121.084 12.1587 119.862 12.3381 118.986 13.0575C117.154 14.5612 117.232 20.7789 115.301 22.0787C114.507 22.6132 115.036 18.8505 114.476 19.4607C113.372 20.6647 114.08 22.5085 114.279 23.2106C115.22 26.5413 116.995 26.8673 117.914 29.7115C118.906 32.7822 117.657 35.6733 117.361 36.3588C116.846 37.5514 115.961 39.5982 113.941 40.5801C111.376 41.8265 109.354 40.2035 108.162 41.5949C107.496 42.3727 107.856 43.1965 106.652 45.6159C106.259 46.4056 106.063 46.8006 105.889 46.7866C105.066 46.7203 103.733 40.1308 105.888 33.9941C106.793 31.4188 107.679 28.8956 110.055 26.9225C111.311 25.8794 112.365 25.504 112.664 24.2859C113.093 22.5456 111.314 21.8029 110.957 19.057C110.714 17.1791 110.543 14.4934 111.206 12.7719C111.832 11.1463 112.375 9.73514 113.798 8.45567C114.14 8.14835 116.898 6.05941 119.822 6.00048C121.169 5.97339 122.158 7.80914 123.719 8.35778H123.719V8.35778Z" fill="#2F2E43"/>
<path d="M111.823 21.6572C111.757 19.2414 112.616 15.6422 114.757 14.5206C115.488 14.1378 116.296 13.6996 117.165 13.023C118.296 12.1432 119.574 11.3603 121.024 10.9914C122.473 10.6225 124.121 10.717 125.31 11.4715C126.498 12.226 130.257 15.2715 129.605 16.4537C129.716 16.1749 129.622 15.7201 129.767 15.2246C130.889 11.3783 128.22 8.25695 124.099 7.23914C123.274 7.03557 122.809 6.25189 122.398 6.00019C121.355 5.35959 119.43 4.59994 117.383 4.38472C118.146 2.73252 116.885 0.76241 114.975 0.19934C113.066 -0.36373 110.812 0.317142 109.369 1.59984C107.926 2.88253 107.212 4.6656 107.016 6.42132C106.917 7.30549 106.959 8.25705 107.55 8.96477C108.141 9.6725 109.444 9.97693 110.226 9.38138C110.813 12.8903 108.324 20.5316 111.823 21.6572H111.823L111.823 21.6572Z" fill="#E4A90D"/>
<path d="M124.141 54.5606C124.904 54.5606 125.522 53.9421 125.522 53.1791C125.522 52.4161 124.904 51.7976 124.141 51.7976C123.378 51.7976 122.759 52.4161 122.759 53.1791C122.759 53.9421 123.378 54.5606 124.141 54.5606Z" fill="#E4A90D"/>
<path d="M124.763 60.1692C125.526 60.1692 126.145 59.5507 126.145 58.7877C126.145 58.0247 125.526 57.4062 124.763 57.4062C124 57.4062 123.382 58.0247 123.382 58.7877C123.382 59.5507 124 60.1692 124.763 60.1692Z" fill="#E4A90D"/>
<path d="M60.5162 29.7075L59.0593 34.6166L68.2494 37.2362L66.8853 30.01L60.5162 29.7075Z" fill="#FFAEB0"/>
<path d="M71.347 152.177L71.3994 156.241C71.4034 156.549 71.6546 156.801 71.9632 156.805C74.5156 156.838 77.0679 156.871 79.6203 156.904C80.8964 156.92 82.1726 156.941 83.4488 156.953C83.9409 156.958 84.4451 156.93 84.8918 156.703C85.3687 156.461 85.664 155.991 85.7316 155.469C85.8069 154.888 85.6269 154.323 85.3922 153.798C85.1707 153.303 84.8375 152.756 85.0305 152.203C85.1308 151.916 84.9162 151.587 84.6367 151.51C84.326 151.424 84.0438 151.615 83.9431 151.904C83.5678 152.979 84.3226 153.832 84.5717 154.821C84.6424 155.102 84.6924 155.481 84.4254 155.673C84.109 155.9 83.5878 155.827 83.2236 155.823C80.8214 155.792 78.4192 155.761 76.017 155.73C74.6657 155.712 73.3145 155.695 71.9632 155.677L72.527 156.241L72.4746 152.177C72.4652 151.452 71.3376 151.45 71.347 152.177H71.347Z" fill="#2F2E43"/>
<path d="M45.3524 144.701C44.8286 145.951 44.3048 147.2 43.781 148.45C43.6941 148.657 43.8351 148.994 44.0401 149.086C46.4021 150.149 48.7642 151.212 51.1262 152.274C52.2999 152.803 53.4681 153.346 54.6487 153.858C55.2058 154.1 55.8264 154.306 56.4266 154.085C56.9095 153.906 57.2328 153.521 57.4189 153.052C57.6054 152.582 57.626 152.067 57.6139 151.568C57.6028 151.112 57.5408 150.51 57.8783 150.148C58.3727 149.618 57.577 148.818 57.081 149.351C56.3573 150.127 56.5419 151.104 56.4849 152.069C56.4667 152.376 56.4022 152.767 56.1695 152.957C55.8862 153.189 55.3898 152.961 55.0844 152.826C52.8544 151.836 50.6341 150.823 48.409 149.822L44.6092 148.113L44.8683 148.749C45.3921 147.5 45.9159 146.25 46.4398 145.001C46.5575 144.72 46.3128 144.381 46.046 144.307C45.7208 144.218 45.4707 144.419 45.3524 144.701V144.701Z" fill="#2F2E43"/>
<path d="M76.2947 66.6972L55.5082 68.7517L45.2502 138.404L51.8919 139.426L66.5695 90.6771L68.7659 144.765H74.8293L80.9575 78.5539L76.2947 66.6972Z" fill="#CFD1D2"/>
<path d="M69.4909 28.4739C69.4909 28.4739 63.2793 29.7988 58.6795 26.999C58.6795 26.999 58.0916 31.5737 60.1914 33.5736C62.2913 35.5735 64.0852 46.4728 64.0852 46.4728L70.7908 46.0729L71.3908 32.0737C71.3908 32.0737 74.2906 28.5739 69.4909 28.4739L69.4909 28.4739Z" fill="#E4E5E6"/>
<path d="M47.9574 79.2568C47.9741 79.4485 47.9888 79.6393 48.0016 79.8292C48.4522 86.5019 54.2151 91.5481 60.8775 90.964C71.4947 90.0332 84.1682 88.522 84.2553 86.6064C84.4053 83.3066 78.1404 35.3324 78.1404 35.3324L71.7653 31.5313L67.6455 35.2426C67.6455 35.2426 61.7174 32.2103 58.6796 31.3715C55.6417 30.5327 52.9801 38.9518 52.9801 38.9518C52.9801 38.9518 47.3574 72.3572 47.9574 79.2568H47.9574Z" fill="#E4A90D"/>
<path d="M90.884 82.6354C91.5557 84.9819 93.351 86.5115 94.8937 86.0519C96.4364 85.5922 97.1422 83.3177 96.4699 80.9704C96.2147 80.0288 95.7303 79.167 95.0573 78.4569L92.0816 68.5533L87.3081 70.1466L90.7483 79.7407C90.5556 80.7088 90.6021 81.7014 90.884 82.6354C90.884 82.6354 90.884 82.6354 90.884 82.6354V82.6354Z" fill="#FFAEB0"/>
<path d="M89.6613 79.4345L89.6213 79.3276L81.6527 57.9648L73.6167 39.299C73.1774 38.2787 73.2304 37.1342 73.7625 36.1587C74.2946 35.1835 75.2281 34.5203 76.3234 34.3358C77.8195 34.0857 79.3194 34.8084 80.0559 36.1341L96.7662 76.6773L89.6613 79.4345H89.6613Z" fill="#E4A90D"/>
<path d="M52.4056 85.3389C52.3251 87.7783 50.9561 89.6988 49.3478 89.6284C47.7396 89.5581 46.5016 87.5237 46.5824 85.0834C46.6008 84.108 46.8609 83.1542 47.3409 82.3017L47.8168 71.9717L52.8346 72.3554L51.8327 82.4982C52.2552 83.3903 52.4516 84.3644 52.4056 85.3389C52.4056 85.3389 52.4056 85.3389 52.4056 85.3389L52.4056 85.3389Z" fill="#FFAEB0"/>
<path d="M45.2502 80.9914L51.5913 37.6005C51.9831 36.1353 53.262 35.0694 54.774 34.9478C55.8813 34.8603 56.9481 35.2763 57.7016 36.0927C58.455 36.9094 58.7849 38.0066 58.6072 39.1031L55.3554 59.1634L52.8253 81.8232L52.8125 81.9367L45.2502 80.9914H45.2502Z" fill="#E4A90D"/>
<path d="M66.2227 30.048C70.1432 30.048 73.3214 26.8698 73.3214 22.9493C73.3214 19.0288 70.1432 15.8506 66.2227 15.8506C62.3022 15.8506 59.124 19.0288 59.124 22.9493C59.124 26.8698 62.3022 30.048 66.2227 30.048Z" fill="#FFB6B6"/>
<path d="M65.6562 13.4056C65.8616 13.5255 66.1368 13.3441 66.2026 13.1156C66.2685 12.887 66.1918 12.6444 66.1157 12.419L65.7327 11.2846C65.461 10.4801 62.4778 11.1439 61.8895 10.5316C61.0016 9.60728 62.2853 7.87559 61.015 8.04594C59.3836 8.2647 57.774 9.14806 57.0155 10.6088C56.257 12.0696 56.5799 14.1078 57.9505 15.0192C55.9971 17.2581 55.3162 19.7534 55.4237 22.7228C55.5312 25.6921 58.7671 28.4249 60.8773 30.5168C61.3486 30.2311 61.777 28.8923 61.5179 28.406C61.2587 27.9196 61.63 27.3562 61.3091 26.9082C60.9881 26.4602 60.7196 27.1736 61.0441 26.7281C61.2488 26.4471 60.4497 25.8004 60.7541 25.6322C62.2261 24.8185 62.7157 22.9837 63.6402 21.5786C64.7554 19.8838 66.664 18.7361 68.6838 18.5457C69.7964 18.4408 70.9716 18.6308 71.8836 19.2767C72.7956 19.9227 73.386 21.077 73.1745 22.1743C73.7222 21.6182 73.9949 20.8032 73.8921 20.0295C73.7892 19.2558 73.3132 18.5403 72.6392 18.1465C73.049 16.7914 72.698 15.2326 71.7468 14.1839C70.7957 13.1353 66.9374 13.3139 65.5488 13.5899" fill="#2F2E41"/>
<path d="M65.4405 18.5869C63.6014 18.7854 62.2735 20.3785 61.1522 21.8497C60.5059 22.6977 59.8289 23.6341 59.8451 24.7002C59.8615 25.778 60.5822 26.7025 60.9266 27.7239C61.4895 29.3935 60.9409 31.38 59.6008 32.524C60.9249 32.7752 62.3563 31.7824 62.5849 30.4542C62.851 28.908 61.6789 27.4157 61.8177 25.8529C61.94 24.476 63.025 23.4164 63.9475 22.387C64.8699 21.3575 65.7362 19.9914 65.3118 18.6759" fill="#2F2E41"/>
<path d="M68.2492 38.799C69.6248 38.799 70.7399 37.6839 70.7399 36.3083C70.7399 34.9328 69.6248 33.8177 68.2492 33.8177C66.8737 33.8177 65.7585 34.9328 65.7585 36.3083C65.7585 37.6839 66.8737 38.799 68.2492 38.799Z" fill="#E4E5E6"/>
<path d="M69.1433 140.289L69.4471 146.886L69.1428 148.712L70.2077 150.842L78.5743 151.754L79.0307 147.799L74.6192 145.517L74.491 141.79L69.1433 140.289Z" fill="#FFAEB0"/>
<path d="M75.9655 144.765L76.4154 134.702L66.666 134.027C66.666 134.027 69.1428 152.211 69.1428 152.971C69.1428 153.732 83.5943 153.732 85.769 153.428C87.9436 153.123 87.2452 151.146 87.2452 151.146L78.2271 146.877L75.9655 144.765L75.9655 144.765Z" fill="#2F2E43"/>
<path d="M47.866 133.356L46.0426 139.704L45.1702 141.336L45.4975 143.694L53.132 147.236L54.8301 143.635L51.3809 140.062L53.5446 134.451L47.866 133.356Z" fill="#FFAEB0"/>
<path d="M53.3127 141.324L54.8302 132.305L45.4454 129.963C45.4454 129.963 44.0506 144.65 43.8072 145.371C43.5637 146.092 57.2552 150.716 59.4128 151.124C61.5705 151.532 61.5417 149.435 61.5417 149.435L54.8302 143.635L53.3127 141.324V141.324Z" fill="#2F2E43"/>
<path d="M56.9782 26.6793C56.9113 24.2634 57.7711 20.6642 59.9119 19.5427C60.6426 19.1599 61.4503 18.7217 62.3201 18.045C63.4512 17.1652 64.7287 16.3823 66.1785 16.0134C67.6282 15.6445 69.2759 15.739 70.4644 16.4935C71.6528 17.2481 73.9733 19.2489 73.3214 20.431C73.4324 20.1522 73.7688 21.4515 73.9134 20.956C75.0358 17.1097 73.3746 13.279 69.2533 12.2612C68.429 12.0576 67.9634 11.2739 67.5533 11.0222C66.5093 10.3816 64.5845 9.62197 62.5379 9.40675C63.3003 7.75456 62.0399 5.78444 60.1302 5.22137C58.2205 4.6583 55.9668 5.33918 54.5237 6.62187C53.0807 7.90457 52.367 9.68763 52.1705 11.4434C52.0716 12.3275 52.114 13.2791 52.7049 13.9868C53.2958 14.6945 54.5991 14.999 55.3813 14.4034C55.968 17.9124 53.4791 25.5537 56.9782 26.6793L56.9782 26.6793Z" fill="#E4A90D"/>
</g>
<defs>
<clipPath id="clip0_236_920">
<rect width="200" height="159.917" fill="white"/>
</clipPath>
</defs>
</svg>
