<svg width="77" height="48" viewBox="0 0 77 48" fill="none" xmlns="http://www.w3.org/2000/svg">
<g id="undraw_travel_mode_re_2lxo 1" clip-path="url(#clip0_1136_5596)">
<path id="Vector" d="M49.1294 24.7633C49.4425 24.8503 49.7766 24.8194 50.0685 24.6765C50.3603 24.5336 50.5896 24.2886 50.7128 23.9879C50.8361 23.6873 50.8448 23.3519 50.7373 23.0452C50.6297 22.7386 50.4135 22.482 50.1295 22.3242L47.3121 19.1279L44.9292 19.6427L48.2807 22.9255C48.1983 23.1 48.1552 23.2905 48.1544 23.4835C48.1536 23.6765 48.1951 23.8673 48.276 24.0425C48.3569 24.2177 48.4753 24.3731 48.6227 24.4976C48.7702 24.6221 48.9432 24.7128 49.1294 24.7633Z" fill="#A0616A"/>
<path id="Vector_2" d="M39.8604 13.3207L46.8823 22.1349L49.0227 21.1522L40.7692 8.30273L39.8604 13.3207Z" fill="#3F3D56"/>
<path id="Vector_3" d="M23.3112 47.1644C23.7365 47.1644 24.0814 46.8196 24.0814 46.3942C24.0814 45.9688 23.7365 45.624 23.3112 45.624C22.8858 45.624 22.541 45.9688 22.541 46.3942C22.541 46.8196 22.8858 47.1644 23.3112 47.1644Z" fill="#3F3D56"/>
<path id="Vector_4" d="M23.8714 30.8866C23.8714 30.8866 25.6919 25.3554 25.8319 24.9703C25.9719 24.5852 27.4422 25.2154 27.8273 25.3204C28.2124 25.4254 28.1074 25.8105 28.1074 25.8105L26.147 31.4818L26.7421 31.7618L28.5625 26.0555C29.6127 24.9703 28.8426 24.9003 28.8426 24.9003C28.8426 24.9003 26.6021 24.1301 25.7619 24.0601C24.9217 23.9901 25.2368 25.0053 25.2368 25.0053L23.2063 30.3965L23.8714 30.8866Z" fill="#3F3D56"/>
<path id="Vector_5" d="M28.2474 32.2162L28.247 32.2159C27.9887 31.8455 27.6219 31.5643 27.1971 31.411C27.1821 31.4054 27.1646 31.3991 27.1446 31.3921C26.1801 31.055 19.4604 29.2406 19.4604 29.2406C19.4604 29.2406 18.1301 28.7505 17.535 30.0807C16.9398 31.411 13.4041 42.4385 13.4041 42.4385C13.4041 42.4385 20.3195 46.1367 22.3356 46.5393C22.4601 46.5693 22.5885 46.5795 22.7161 46.5694C23.0588 46.5219 23.3961 46.4414 23.7233 46.3289C24.0852 46.211 24.4294 46.0446 24.7466 45.8343L28.6675 34.1066C28.6675 34.1066 29.2276 32.8114 28.2474 32.2162Z" fill="#E4A90D"/>
<path id="Vector_6" d="M28.2475 32.2167L28.2471 32.2163C27.9888 31.8459 27.622 31.5647 27.1972 31.4115C27.1822 31.4059 27.1647 31.3996 27.1447 31.3926C27.4619 31.9485 27.5823 32.8118 27.5823 32.8118C27.5823 32.8118 23.7315 44.2594 23.3814 45.3446C23.1146 46.1718 22.5766 46.4529 22.3357 46.5398C22.4602 46.5697 22.5886 46.5799 22.7162 46.5699C23.0589 46.5224 23.3962 46.4418 23.7234 46.3294C23.8191 46.2197 23.9039 46.1009 23.9765 45.9747C23.9765 45.9747 27.8974 34.2471 28.2475 33.687C28.5975 33.1269 28.2475 32.2167 28.2475 32.2167Z" fill="#3F3D56"/>
<path id="Vector_7" d="M20.9484 47.1819C21.3738 47.1819 21.7186 46.8371 21.7186 46.4118C21.7186 45.9864 21.3738 45.6416 20.9484 45.6416C20.523 45.6416 20.1782 45.9864 20.1782 46.4118C20.1782 46.8371 20.523 47.1819 20.9484 47.1819Z" fill="#3F3D56"/>
<path id="Vector_8" d="M13.4743 43.9446C13.8996 43.9446 14.2444 43.5998 14.2444 43.1745C14.2444 42.7491 13.8996 42.4043 13.4743 42.4043C13.0489 42.4043 12.7041 42.7491 12.7041 43.1745C12.7041 43.5998 13.0489 43.9446 13.4743 43.9446Z" fill="#3F3D56"/>
<path id="Vector_9" d="M27.0494 25.4387C26.7397 25.5368 26.4047 25.5178 26.1079 25.3854C25.8112 25.253 25.5734 25.0163 25.4395 24.7202C25.3056 24.4242 25.2849 24.0893 25.3814 23.779C25.478 23.4687 25.685 23.2047 25.9632 23.0368L28.6649 19.7422L31.0646 20.1718L27.8322 23.5718C27.9207 23.7433 27.9706 23.9321 27.9783 24.125C27.986 24.3178 27.9513 24.51 27.8766 24.688C27.802 24.866 27.6893 25.0255 27.5464 25.1552C27.4034 25.2849 27.2338 25.3817 27.0494 25.4387Z" fill="#A0616A"/>
<path id="Vector_10" d="M45.4631 39.9355L47.1367 39.9092L46.9354 45.6132H45.4634L45.4631 39.9355Z" fill="#A0616A"/>
<path id="Vector_11" d="M45.0879 45.1329L47.9868 45.1328H47.9869C48.4769 45.1328 48.9468 45.3275 49.2932 45.6739C49.6397 46.0204 49.8343 46.4903 49.8344 46.9802V47.0402L45.088 47.0404L45.0879 45.1329Z" fill="#2F2E41"/>
<path id="Vector_12" d="M34.3826 38.4229L36.2108 39.5965L32.5539 43.9959L31.3152 43.2007L34.3826 38.4229Z" fill="#A0616A"/>
<path id="Vector_13" d="M31.259 42.5928L33.6985 44.1589L33.6986 44.159C34.1109 44.4237 34.4011 44.8414 34.5054 45.3201C34.6098 45.7988 34.5197 46.2994 34.255 46.7117L34.2226 46.7622L30.2285 44.1979L31.259 42.5928Z" fill="#2F2E41"/>
<path id="Vector_14" d="M33.7314 21.0052C33.7314 21.0052 37.7933 7.51413 39.0987 7.33182C40.4041 7.1495 42.5074 10.7935 42.5074 10.7935C45.2344 14.2728 48.0463 25.5431 48.0463 25.5431C48.0463 25.5431 43.3587 25.8365 39.932 27.6596C36.5054 29.4827 32.4614 27.5673 32.4614 27.5673L33.7314 21.0052Z" fill="#E4A90D"/>
<path id="Vector_15" opacity="0.1" d="M33.7314 21.0051C33.7314 21.0051 37.7933 7.51406 39.0987 7.33175C40.4041 7.14944 41.9732 10.8304 41.9732 10.8304C43.332 16.4469 48.0463 25.5431 48.0463 25.5431C48.0463 25.5431 43.3587 25.8364 39.932 27.6595C36.5054 29.4826 32.4614 27.5672 32.4614 27.5672L33.7314 21.0051Z" fill="black"/>
<path id="Vector_16" d="M37.064 16.9688V23.748L36.2662 33.5681L32.2803 40.9963L34.1826 42.3552L39.6179 35.2893L41.7677 28.2733L45.1438 43.8046L47.6803 43.6234L45.9187 22.0896L42.5759 16.0283L37.064 16.9688Z" fill="#2F2E41"/>
<path id="Vector_17" d="M41.1593 10.412C42.4275 11.6803 41.2499 13.0391 41.2499 13.0391L42.6993 16.3003L36.9922 17.8403L34.9978 8.92835L36.3566 7.47894C39.0743 7.38835 39.0757 7.33203 39.0757 7.33203C39.5519 7.798 41.1593 10.412 41.1593 10.412Z" fill="#CCCCCC"/>
<path id="Vector_18" d="M34.7364 8.02851C34.2646 8.37549 33.9337 8.88088 33.8043 9.45205C33.6749 10.0232 33.7557 10.6219 34.0319 11.1383C34.6857 12.3864 35.389 14.3198 35.0264 16.4422C34.3701 20.2834 32.2665 23.2017 31.0947 24.139C30.6867 24.4652 30.6725 24.9404 30.7324 25.2815C30.8997 26.2345 31.8237 27.316 32.4628 27.5328C32.5059 27.5471 32.5509 27.5542 32.5963 27.5538C33.6346 27.5542 36.1887 24.2472 39.1236 17.7874C40.9515 13.7644 39.6249 10.5386 38.1901 8.54094C38.0018 8.27956 37.7635 8.05814 37.489 7.88952C37.2144 7.72089 36.9092 7.60841 36.5909 7.55859C36.2726 7.50877 35.9476 7.5226 35.6347 7.59928C35.3218 7.67595 35.0272 7.81395 34.768 8.00529L34.7364 8.02851Z" fill="#E4A90D"/>
<path id="Vector_19" d="M37.4438 11.9173L29.2017 22.7316L27.0276 21.8257L34.8182 8.69043L37.4438 11.9173Z" fill="#3F3D56"/>
<path id="Vector_20" d="M39.8885 6.1574H34.2196C34.103 6.15726 33.9912 6.11088 33.9088 6.02843C33.8263 5.94597 33.7799 5.83418 33.7798 5.71757V3.27406C33.7796 2.84393 33.8641 2.41797 34.0285 2.02052C34.193 1.62306 34.4341 1.2619 34.7382 0.957675C35.0423 0.653446 35.4033 0.412108 35.8007 0.247452C36.198 0.0827956 36.6239 -0.00195312 37.0541 -0.00195312C37.4842 -0.00195312 37.9101 0.0827956 38.3075 0.247452C38.7049 0.412108 39.0659 0.653446 39.37 0.957675C39.674 1.2619 39.9152 1.62306 40.0796 2.02052C40.2441 2.41797 40.3286 2.84393 40.3284 3.27406V5.71757C40.3282 5.83418 40.2819 5.94597 40.1994 6.02843C40.1169 6.11088 40.0051 6.15727 39.8885 6.1574Z" fill="#2F2E41"/>
<path id="Vector_21" d="M39.8333 4.8518C40.4692 3.68846 40.0417 2.22985 38.8784 1.59391C37.715 0.957972 36.2564 1.38552 35.6205 2.54886C34.9845 3.7122 35.4121 5.1708 36.5754 5.80674C37.7388 6.44268 39.1974 6.01514 39.8333 4.8518Z" fill="#A0616A"/>
<path id="Vector_22" d="M41.103 3.51886H37.6366L37.601 3.02119L37.4233 3.51886H36.8896L36.8191 2.53249L36.4669 3.51886H35.4341V3.46999C35.4349 2.78329 35.708 2.12494 36.1935 1.63937C36.6791 1.15379 37.3375 0.880658 38.0242 0.879883H38.5129C39.1996 0.880658 39.858 1.15379 40.3435 1.63937C40.8291 2.12494 41.1022 2.78329 41.103 3.46999V3.51886Z" fill="#2F2E41"/>
<path id="Vector_23" d="M37.6083 6.61358C37.5822 6.61356 37.5561 6.61126 37.5304 6.60671L34.9922 6.15886V1.96387H37.7863L37.7171 2.04452C36.7547 3.167 37.4798 4.98713 37.9977 5.97217C38.0358 6.04431 38.0529 6.12577 38.0468 6.20716C38.0407 6.28856 38.0117 6.36657 37.9632 6.43223C37.9226 6.48838 37.8693 6.53409 37.8076 6.56562C37.7459 6.59714 37.6776 6.61358 37.6083 6.61358Z" fill="#2F2E41"/>
</g>
<defs>
<clipPath id="clip0_1136_5596">
<rect width="77" height="47.1824" fill="white"/>
</clipPath>
</defs>
</svg>
