<svg width="63" height="45" viewBox="0 0 63 45" fill="none" xmlns="http://www.w3.org/2000/svg">
<g id="undraw_on_the_way_re_swjt 1" clip-path="url(#clip0_1136_5496)">
<path id="Vector" d="M26.5072 26.4685H14.5819L14.4555 22.7928C14.45 22.6335 14.4791 22.4748 14.5406 22.3278C14.6021 22.1808 14.6947 22.0489 14.812 21.9412C14.9293 21.8335 15.0684 21.7526 15.2199 21.7039C15.3713 21.6553 15.5315 21.6402 15.6894 21.6595L22.6291 22.5114H22.6299C23.6587 22.5142 24.6445 22.9257 25.3713 23.6557C26.098 24.3858 26.5065 25.3749 26.5072 26.4062V26.4685Z" fill="#E4A90D"/>
<path id="Vector_2" d="M21.1923 13.4307H12.875C12.7644 13.4306 12.6548 13.4525 12.5526 13.4949C12.4504 13.5373 12.3576 13.5995 12.2793 13.6779C12.2011 13.7563 12.1391 13.8494 12.0968 13.9519C12.0545 14.0543 12.0327 14.1641 12.0327 14.275V22.613C12.0327 22.7239 12.0545 22.8337 12.0968 22.9361C12.1391 23.0386 12.2011 23.1317 12.2793 23.2101C12.3576 23.2885 12.4504 23.3507 12.5526 23.3931C12.6548 23.4355 12.7644 23.4573 12.875 23.4573H21.1923C21.3029 23.4573 21.4124 23.4355 21.5146 23.3931C21.6168 23.3507 21.7097 23.2885 21.7879 23.2101C21.8661 23.1317 21.9282 23.0386 21.9705 22.9361C22.0128 22.8337 22.0346 22.7239 22.0345 22.613V14.275C22.0346 14.1641 22.0128 14.0543 21.9705 13.9519C21.9282 13.8494 21.8661 13.7563 21.7879 13.6779C21.7097 13.5995 21.6168 13.5373 21.5146 13.4949C21.4124 13.4525 21.3029 13.4306 21.1923 13.4307Z" fill="#CCCCCC"/>
<path id="Vector_3" d="M19.319 19.6655L15.3921 20.4321C15.1591 20.4773 14.9178 20.428 14.7211 20.2951C14.5243 20.1622 14.3882 19.9564 14.3426 19.723L14.0407 18.169C13.9957 17.9355 14.0448 17.6936 14.1774 17.4964C14.31 17.2992 14.5153 17.1627 14.7481 17.117L18.675 16.3504C18.908 16.3052 19.1493 16.3544 19.346 16.4874C19.5428 16.6203 19.6789 16.826 19.7245 17.0595L20.0264 18.6134C20.0715 18.8469 20.0223 19.0888 19.8897 19.2861C19.7571 19.4833 19.5519 19.6198 19.319 19.6655Z" fill="#3F3D56"/>
<path id="Vector_4" d="M18.5333 17.8294L15.5365 18.4145C15.4816 18.4252 15.4248 18.4136 15.3785 18.3823C15.3322 18.351 15.3002 18.3026 15.2895 18.2476C15.2789 18.1927 15.2904 18.1357 15.3216 18.0893C15.3528 18.0429 15.4011 18.0108 15.456 18.0001L18.4529 17.415C18.5077 17.4043 18.5645 17.4159 18.6108 17.4472C18.6571 17.4785 18.6891 17.5269 18.6998 17.5819C18.7105 17.6368 18.6989 17.6938 18.6677 17.7402C18.6365 17.7866 18.5882 17.8187 18.5333 17.8294Z" fill="white"/>
<path id="Vector_5" d="M17.9508 18.6956L16.4007 18.9982C16.3459 19.0089 16.2891 18.9974 16.2428 18.9661C16.1965 18.9348 16.1645 18.8863 16.1538 18.8314C16.1431 18.7764 16.1547 18.7195 16.1859 18.6731C16.2171 18.6266 16.2654 18.5946 16.3202 18.5838L17.8703 18.2812C17.8975 18.2759 17.9254 18.276 17.9525 18.2816C17.9796 18.2871 18.0053 18.2979 18.0283 18.3134C18.0512 18.3289 18.0709 18.3488 18.0861 18.3719C18.1014 18.395 18.112 18.4209 18.1173 18.4481C18.1226 18.4753 18.1224 18.5033 18.1169 18.5304C18.1114 18.5576 18.1006 18.5834 18.0852 18.6064C18.0697 18.6294 18.0499 18.6491 18.0269 18.6644C18.0038 18.6797 17.978 18.6903 17.9508 18.6956Z" fill="white"/>
<path id="Vector_6" d="M22.0345 14.275V15.3832H12.0327V14.275C12.0327 14.1641 12.0545 14.0543 12.0968 13.9519C12.1391 13.8494 12.2011 13.7563 12.2793 13.6779C12.3576 13.5995 12.4504 13.5373 12.5526 13.4949C12.6548 13.4525 12.7644 13.4306 12.875 13.4307H21.1923C21.3029 13.4306 21.4124 13.4525 21.5146 13.4949C21.6168 13.5373 21.7097 13.5995 21.7879 13.6779C21.8661 13.7563 21.9282 13.8494 21.9705 13.9519C22.0128 14.0543 22.0346 14.1641 22.0345 14.275Z" fill="#B3B3B3"/>
<path id="Vector_7" d="M42.0069 15.7297C41.9492 15.5428 41.8513 15.3709 41.7201 15.2261C41.5889 15.0813 41.4277 14.9671 41.2477 14.8915C41.0677 14.8159 40.8734 14.7808 40.6784 14.7887C40.4835 14.7965 40.2926 14.8471 40.1192 14.9369L28.6766 10.8213L28.1726 13.687L39.5788 16.8314C39.7486 17.1133 40.0157 17.323 40.3294 17.4208C40.6431 17.5185 40.9817 17.4975 41.281 17.3617C41.5803 17.2259 41.8195 16.9848 41.9533 16.684C42.0871 16.3832 42.1062 16.0436 42.0069 15.7297Z" fill="#FFB8B8"/>
<path id="Vector_8" opacity="0.2" d="M42.0069 15.7297C41.9492 15.5428 41.8513 15.3709 41.7201 15.2261C41.5889 15.0813 41.4277 14.9671 41.2477 14.8915C41.0677 14.8159 40.8734 14.7808 40.6784 14.7887C40.4835 14.7965 40.2926 14.8471 40.1192 14.9369L28.6766 10.8213L28.1726 13.687L39.5788 16.8314C39.7486 17.1133 40.0157 17.323 40.3294 17.4208C40.6431 17.5185 40.9817 17.4975 41.281 17.3617C41.5803 17.2259 41.8195 16.9848 41.9533 16.684C42.0871 16.3832 42.1062 16.0436 42.0069 15.7297Z" fill="black"/>
<path id="Vector_9" d="M30.7076 11.3436L29.6271 14.1735C29.5964 14.254 29.5487 14.3269 29.4873 14.3873C29.4259 14.4477 29.3522 14.4941 29.2713 14.5233C29.1904 14.5526 29.1042 14.564 29.0185 14.5569C28.9328 14.5497 28.8496 14.5241 28.7747 14.4818L26.1486 13.0001C25.7386 12.8401 25.4086 12.5236 25.231 12.12C25.0534 11.7164 25.0427 11.2587 25.2012 10.8473C25.3597 10.4358 25.6744 10.1041 26.0765 9.92492C26.4786 9.74574 26.9351 9.73369 27.346 9.89141L30.2785 10.5434C30.3624 10.5621 30.4414 10.5987 30.51 10.6508C30.5785 10.7028 30.6351 10.769 30.6758 10.845C30.7166 10.9209 30.7405 11.0048 30.746 11.0908C30.7515 11.1768 30.7384 11.263 30.7076 11.3436Z" fill="#E4A90D"/>
<path id="Vector_10" d="M42.9077 18.3506L38.8076 20.2189L39.3459 22.2505C40.3854 26.1737 40.6613 30.2609 40.1585 34.2887L43.1562 34.9164L45.6412 28.5641L44.7714 21.3399L42.9077 18.3506Z" fill="#E4A90D"/>
<path id="Vector_11" d="M50.9526 27.7539C48.2587 27.7539 46.0633 29.7171 45.9568 32.1756H55.9484C55.8419 29.7171 53.6465 27.7539 50.9526 27.7539Z" fill="#3F3D56"/>
<path id="Vector_12" d="M48.8555 28.1785C48.7153 17.0808 42.4106 18.1018 42.4106 18.1018C42.4106 18.1018 42.5286 21.5561 42.5852 21.6635C46.6028 29.2838 39.9723 38.2173 31.5323 36.5738C31.3732 36.5429 31.2203 36.5114 31.0737 36.4795C30.0043 36.2557 29.0601 35.6319 28.4331 34.735C27.8062 33.8381 27.5436 32.7355 27.6987 31.6515C28.5301 24.9584 24.395 25.0769 24.395 25.0769H18.3483L15.2082 22.2438C15.0974 22.1438 14.9638 22.0725 14.8191 22.0362C14.6745 21.9999 14.5232 21.9997 14.3784 22.0356C14.2336 22.0715 14.0999 22.1424 13.9888 22.2421C13.8777 22.3418 13.7926 22.4673 13.7411 22.6076L13.3371 23.7068C13.3371 23.7068 7.37326 24.3295 7.87024 30.1836H9.71403C9.70958 30.3499 9.71623 30.5164 9.73393 30.6818L23.4943 30.5697C24.3009 30.5631 25.0129 31.2183 25.0162 32.0269C25.017 32.2238 24.9782 32.4188 24.9021 32.6003C24.826 32.7818 24.7142 32.946 24.5734 33.0832C24.4325 33.2203 24.2655 33.3276 24.0823 33.3986C23.8991 33.4695 23.7036 33.5027 23.5073 33.4962L21.2888 33.422C20.6055 36.4736 22.2828 38.5288 24.131 39.821C25.871 41.0201 27.9358 41.6558 30.0473 41.6426H36.0741C43.9016 41.6426 45.2683 35.0413 45.2683 35.0413C49.3684 33.2975 48.8555 28.1785 48.8555 28.1785Z" fill="#3F3D56"/>
<path id="Vector_13" d="M50.5799 45.2546C54.4397 45.2546 57.5687 42.1178 57.5687 38.2484C57.5687 34.379 54.4397 31.2422 50.5799 31.2422C46.7201 31.2422 43.5911 34.379 43.5911 38.2484C43.5911 42.1178 46.7201 45.2546 50.5799 45.2546Z" fill="#3F3D56"/>
<path id="Vector_14" d="M50.5796 39.9647C51.5257 39.9647 52.2926 39.1959 52.2926 38.2475C52.2926 37.2991 51.5257 36.5303 50.5796 36.5303C49.6336 36.5303 48.8667 37.2991 48.8667 38.2475C48.8667 39.1959 49.6336 39.9647 50.5796 39.9647Z" fill="white"/>
<path id="Vector_15" d="M15.2942 45.2548C19.7373 45.2548 23.3391 41.644 23.3391 37.1899C23.3391 32.7358 19.7373 29.125 15.2942 29.125C10.8511 29.125 7.24927 32.7358 7.24927 37.1899C7.24927 41.644 10.8511 45.2548 15.2942 45.2548Z" fill="#3F3D56"/>
<path id="Vector_16" d="M15.2941 39.1663C16.3831 39.1663 17.2659 38.2813 17.2659 37.1896C17.2659 36.0979 16.3831 35.2129 15.2941 35.2129C14.2051 35.2129 13.3223 36.0979 13.3223 37.1896C13.3223 38.2813 14.2051 39.1663 15.2941 39.1663Z" fill="white"/>
<path id="Vector_17" d="M38.8193 20.771L37.3441 16.7541C37.2672 16.5448 37.2322 16.3223 37.2411 16.0994C37.25 15.8765 37.3026 15.6575 37.3959 15.455C37.4892 15.2525 37.6214 15.0703 37.7849 14.919C37.9484 14.7677 38.14 14.6502 38.3489 14.5731L42.5782 13.0123C42.9456 12.8766 43.3361 12.8149 43.7274 12.8305C44.1186 12.8461 44.5029 12.9389 44.8584 13.1034C45.2139 13.268 45.5336 13.5011 45.7992 13.7895C46.0648 14.0779 46.2712 14.416 46.4065 14.7843C46.5285 15.1149 46.5908 15.4647 46.5905 15.8172C46.5889 16.2648 46.4879 16.7064 46.2947 17.1099C46.1015 17.5135 45.8211 17.8688 45.4738 18.1501C45.2229 18.3518 44.9409 18.5113 44.6388 18.622L38.8193 20.771Z" fill="#3F3D56"/>
<path id="Vector_18" d="M46.5285 15.8173C46.5281 16.2557 46.4297 16.6886 46.2405 17.0839C46.0513 17.4792 45.776 17.827 45.4351 18.1016C44.9119 17.9633 44.4251 17.7124 44.0085 17.3664C43.5918 17.0204 43.2553 16.5876 43.0224 16.098C42.7895 15.6085 42.6657 15.074 42.6597 14.5316C42.6536 13.9893 42.7655 13.4521 42.9874 12.9575C43.4136 12.8646 43.8551 12.8685 44.2795 12.9691C44.704 13.0696 45.1006 13.2641 45.4402 13.5384C45.7798 13.8127 46.0538 14.1598 46.2422 14.5541C46.4305 14.9484 46.5283 15.3801 46.5285 15.8173Z" fill="#E4A90D"/>
<path id="Vector_19" d="M8.92621 30.9927C9.88688 30.9927 10.6657 30.0447 10.6657 28.8752C10.6657 27.7058 9.88688 26.7578 8.92621 26.7578C7.96554 26.7578 7.18677 27.7058 7.18677 28.8752C7.18677 30.0447 7.96554 30.9927 8.92621 30.9927Z" fill="#E4A90D"/>
<path id="Vector_20" d="M31.9197 36.3706H33.4429L34.1677 32.4102L31.9194 32.4103L31.9197 36.3706Z" fill="#FFB8B8"/>
<path id="Vector_21" d="M31.5312 35.8722L34.531 35.8721H34.5312C34.7822 35.8721 35.0308 35.9216 35.2627 36.0179C35.4947 36.1142 35.7054 36.2554 35.8829 36.4334C36.0605 36.6113 36.2013 36.8226 36.2973 37.0551C36.3934 37.2876 36.4429 37.5368 36.4429 37.7885V37.8508L31.5313 37.851L31.5312 35.8722Z" fill="#2F2E41"/>
<path id="Vector_22" d="M33.6878 34.7452C33.6701 34.7452 33.6523 34.7443 33.6344 34.7426L31.5264 34.5888C31.4411 34.5808 31.3588 34.5534 31.2858 34.5085C31.2128 34.4637 31.1511 34.4026 31.1053 34.3301C31.0596 34.2575 31.0311 34.1754 31.022 34.09C31.013 34.0047 31.0236 33.9184 31.0531 33.8378L33.8743 27.4837C33.8944 27.427 33.9027 27.3668 33.8985 27.3068C33.8943 27.2468 33.8777 27.1884 33.8499 27.1351C33.8221 27.0812 33.7833 27.0338 33.7359 26.996C33.6886 26.9582 33.6338 26.9309 33.5751 26.9159C32.2485 26.5683 28.8448 25.6426 25.8984 24.5596C24.6361 24.0955 23.8411 23.425 23.5354 22.5665C23.1325 21.4346 23.7286 20.4024 23.7541 20.3591L23.7741 20.3252L26.5467 20.5778L29.5523 20.8341L36.139 24.3749C36.6909 24.6741 37.1102 25.1708 37.3132 25.7659C37.5163 26.3611 37.4882 27.0111 37.2347 27.5865L34.198 34.413C34.1541 34.5119 34.0825 34.5959 33.992 34.6548C33.9014 34.7138 33.7958 34.7452 33.6878 34.7452Z" fill="#2F2E41"/>
<path id="Vector_23" d="M27.0284 8.00705C28.7138 8.00705 30.08 6.63741 30.08 4.94786C30.08 3.25832 28.7138 1.88867 27.0284 1.88867C25.3431 1.88867 23.9768 3.25832 23.9768 4.94786C23.9768 6.63741 25.3431 8.00705 27.0284 8.00705Z" fill="#FFB8B8"/>
<path id="Vector_24" d="M31.0498 36.7446H32.5731L33.2978 32.7842L31.0496 32.7843L31.0498 36.7446Z" fill="#FFB8B8"/>
<path id="Vector_25" d="M30.6611 36.2462L33.6609 36.2461H33.661C33.9121 36.2461 34.1607 36.2957 34.3926 36.392C34.6246 36.4883 34.8353 36.6294 35.0128 36.8074C35.1903 36.9853 35.3312 37.1966 35.4272 37.4291C35.5233 37.6616 35.5727 37.9108 35.5727 38.1625V38.2248L30.6612 38.225L30.6611 36.2462Z" fill="#2F2E41"/>
<path id="Vector_26" d="M32.818 35.1192C32.8002 35.1192 32.7824 35.1184 32.7645 35.1167L30.6565 34.9628C30.5712 34.9549 30.4889 34.9274 30.4159 34.8826C30.3429 34.8377 30.2812 34.7766 30.2355 34.7041C30.1897 34.6315 30.1612 34.5494 30.1522 34.4641C30.1431 34.3787 30.1537 34.2924 30.1832 34.2118L33.0044 27.8577C33.0245 27.8011 33.0328 27.7408 33.0286 27.6809C33.0244 27.6209 33.0078 27.5624 32.98 27.5091C32.9522 27.4552 32.9134 27.4078 32.866 27.37C32.8187 27.3322 32.7639 27.3049 32.7053 27.2899C31.3787 26.9423 27.975 26.0166 25.0285 24.9336C23.7662 24.4696 22.9712 23.799 22.6655 22.9405C22.2626 21.8087 22.8587 20.7765 22.8843 20.7332L22.9043 20.6992L25.6768 20.9519L28.6824 21.2081L35.2692 24.7489C35.8211 25.0482 36.2403 25.5448 36.4433 26.14C36.6464 26.7351 36.6184 27.3851 36.3648 27.9605L33.3281 34.787C33.2842 34.8859 33.2126 34.9699 33.1221 35.0288C33.0316 35.0878 32.9259 35.1192 32.818 35.1192Z" fill="#2F2E41"/>
<path id="Vector_27" d="M27.9697 9.74111L24.7393 8.62012C24.7393 8.62012 22.7114 10.182 23.6856 14.0568C24.1942 16.0563 24.046 18.1669 23.2631 20.0753C23.1689 20.3114 23.0602 20.5415 22.9377 20.7642C22.9377 20.7642 26.5409 25.1236 29.8955 21.8852L28.5909 15.5952C28.5909 15.5952 30.641 11.4226 27.9697 9.74111Z" fill="#E4A90D"/>
<path id="Vector_28" d="M27.4075 8.11057C26.9732 7.45886 26.6304 6.55519 27.1086 5.93511C27.5806 5.32303 28.5116 5.4132 29.2345 5.14236C30.2414 4.76513 30.8254 3.57929 30.6433 2.51729C30.4611 1.4553 29.6107 0.574933 28.5977 0.214717C27.5846 -0.145499 26.4422 -0.0283482 25.4501 0.386463C24.2289 0.897099 23.1813 1.88489 22.742 3.13617C22.3027 4.38744 22.5375 5.88983 23.4488 6.85158C24.4259 7.88269 25.9593 8.15748 27.3778 8.14081" fill="#2F2E41"/>
<path id="Vector_29" d="M24.5685 2.55085C24.0212 2.99749 23.1862 2.79911 22.5988 2.40713C22.0113 2.01515 21.5346 1.457 20.899 1.14967C19.7784 0.607865 18.4235 0.968042 17.3329 1.56819C16.2423 2.16834 15.2755 2.99745 14.1235 3.46842C12.9714 3.93938 11.5014 3.96266 10.6291 3.07337C10.4144 3.69687 10.3968 4.37159 10.5788 5.00545C10.7608 5.63932 11.1334 6.20147 11.6458 6.6152C12.1582 7.02893 12.7855 7.2741 13.4421 7.31724C14.0986 7.36039 14.7525 7.19941 15.3144 6.85628C16.5767 6.08549 17.2739 4.46936 18.6896 4.04392C19.4731 3.8085 20.3143 3.99811 21.1061 4.20348C21.8979 4.40885 22.7235 4.63076 23.5226 4.45592C24.3217 4.28109 25.0691 3.56123 24.9674 2.74769L24.5685 2.55085Z" fill="#2F2E41"/>
<path id="Vector_30" d="M41.855 15.6059C41.7747 15.4276 41.6564 15.2691 41.5084 15.1416C41.3604 15.0141 41.1863 14.9207 40.9984 14.868C40.8105 14.8152 40.6134 14.8044 40.4209 14.8363C40.2283 14.8682 40.0451 14.9421 39.8842 15.0526L28.0224 12.3838L27.875 15.2899L39.5811 16.9995C39.7843 17.2583 40.0751 17.4333 40.3984 17.4915C40.7218 17.5497 41.0552 17.487 41.3355 17.3152C41.6158 17.1434 41.8235 16.8745 41.9193 16.5595C42.015 16.2444 41.9922 15.9051 41.855 15.6059Z" fill="#FFB8B8"/>
<path id="Vector_31" d="M30.1026 12.6512L29.3786 15.5932C29.358 15.6769 29.3196 15.7552 29.2661 15.8227C29.2126 15.8902 29.1453 15.9453 29.0686 15.9844C28.9919 16.0234 28.9077 16.0454 28.8218 16.0489C28.7359 16.0524 28.6502 16.0373 28.5706 16.0046L25.7822 14.859C25.3554 14.7512 24.9886 14.478 24.7625 14.0994C24.5363 13.7208 24.4692 13.2677 24.5759 12.8395C24.6826 12.4114 24.9544 12.0432 25.3316 11.8157C25.7088 11.5881 26.1606 11.5199 26.5879 11.626L29.5782 11.9103C29.6638 11.9184 29.7467 11.945 29.8211 11.9882C29.8956 12.0313 29.9599 12.0901 30.0096 12.1604C30.0594 12.2307 30.0934 12.311 30.1095 12.3957C30.1255 12.4804 30.1232 12.5675 30.1026 12.6512V12.6512Z" fill="#E4A90D"/>
<path id="Vector_32" d="M40.485 17.9147C40.9653 17.9147 41.3547 17.5243 41.3547 17.0428C41.3547 16.5613 40.9653 16.1709 40.485 16.1709C40.0046 16.1709 39.6152 16.5613 39.6152 17.0428C39.6152 17.5243 40.0046 17.9147 40.485 17.9147Z" fill="#E4A90D"/>
</g>
<defs>
<clipPath id="clip0_1136_5496">
<rect width="63" height="45" fill="white"/>
</clipPath>
</defs>
</svg>
