<svg width="50" height="51" viewBox="0 0 50 51" fill="none" xmlns="http://www.w3.org/2000/svg">
<g clip-path="url(#clip0_244_628)">
<path d="M39.6667 10.4359H10.3334C8.31675 10.4359 6.68508 12.0859 6.68508 14.1026L6.66675 36.1026C6.66675 38.1192 8.31675 39.7692 10.3334 39.7692H39.6667C41.6834 39.7692 43.3334 38.1192 43.3334 36.1026V14.1026C43.3334 12.0859 41.6834 10.4359 39.6667 10.4359ZM38.9334 18.2276L25.9717 26.3309C25.3851 26.6976 24.6151 26.6976 24.0284 26.3309L11.0667 18.2276C10.6084 17.9342 10.3334 17.4392 10.3334 16.9076C10.3334 15.6792 11.6717 14.9459 12.7167 15.5876L25.0001 23.2692L37.2834 15.5876C38.3284 14.9459 39.6667 15.6792 39.6667 16.9076C39.6667 17.4392 39.3917 17.9342 38.9334 18.2276Z" fill="white"/>
</g>
<defs>
<clipPath id="clip0_244_628">
<rect width="44" height="44" fill="white" transform="translate(3 3.10254)"/>
</clipPath>
</defs>
</svg>
