<svg width="130" height="56" viewBox="0 0 130 56" fill="none" xmlns="http://www.w3.org/2000/svg">
<g clip-path="url(#clip0_910_1159)">
<path d="M129.938 4.25485V50.6834C129.937 51.3943 129.758 52.0936 129.418 52.7178C129.19 53.1365 128.893 53.5137 128.539 53.8334C128.512 53.8578 128.486 53.8803 128.46 53.9009C128.139 54.1818 127.777 54.4114 127.386 54.5816C127.212 54.6584 127.034 54.723 126.851 54.7747C126.731 54.8084 126.608 54.8384 126.484 54.8609C126.316 54.8942 126.146 54.9161 125.976 54.9266C125.88 54.9341 125.783 54.9378 125.683 54.9378H82.7719L80.625 55.0541L78.5963 54.9378H4.25438C4.16813 54.9378 4.08 54.9359 3.99562 54.9284C3.7633 54.9153 3.53249 54.8827 3.30563 54.8309C2.36633 54.6162 1.52776 54.089 0.927223 53.3355C0.326687 52.582 -0.000231977 51.647 1.23502e-07 50.6834V4.25485C0.00135872 3.12694 0.450025 2.04562 1.24758 1.24806C2.04514 0.450509 3.12646 0.00184687 4.25438 0.000488281H125.683C126.811 0.00184687 127.892 0.450509 128.69 1.24806C129.487 2.04562 129.936 3.12694 129.938 4.25485Z" fill="#F2F2F2"/>
<path d="M30.345 0.000488281C23.6911 15.5206 24.9671 34.3685 30.345 54.9378H67.6744C72.3425 34.3451 74.7056 14.8783 67.6744 0.000488281H30.345Z" fill="#E4E4E4"/>
<path d="M15.2887 0.000488281C3.13043 14.9629 6.52246 34.21 15.2887 54.9378H30.3449C24.9152 35.3558 24.0275 16.8359 30.3449 0.000488281H15.2887Z" fill="#CACACA"/>
<path d="M60.7733 1.27393H55.127V6.92026H60.7733V1.27393Z" fill="white"/>
<path d="M51.6764 1.27393H46.03V6.92026H51.6764V1.27393Z" fill="white"/>
<path d="M42.5794 1.27393H36.9331V6.92026H42.5794V1.27393Z" fill="white"/>
<path d="M60.6164 14.1353H54.9701V19.7816H60.6164V14.1353Z" fill="white"/>
<path d="M51.5195 14.1353H45.8732V19.7816H51.5195V14.1353Z" fill="white"/>
<path d="M42.4227 14.1353H36.7764V19.7816H42.4227V14.1353Z" fill="white"/>
<path d="M60.4596 26.9961H54.8132V32.6424H60.4596V26.9961Z" fill="white"/>
<path d="M51.3628 26.9961H45.7164V32.6424H51.3628V26.9961Z" fill="white"/>
<path d="M42.2659 26.9961H36.6195V32.6424H42.2659V26.9961Z" fill="white"/>
<path d="M60.3027 39.8574H54.6564V45.5038H60.3027V39.8574Z" fill="white"/>
<path d="M51.2059 39.8574H45.5596V45.5038H51.2059V39.8574Z" fill="white"/>
<path d="M42.109 39.8574H36.4626V45.5038H42.109V39.8574Z" fill="white"/>
<path d="M60.1463 52.7178H54.4988V54.9378H60.1463V52.7178Z" fill="white"/>
<path d="M51.0487 52.7178H45.4031V54.9378H51.0487V52.7178Z" fill="white"/>
<path d="M41.9513 52.7178H36.3057V54.9378H41.9513V52.7178Z" fill="white"/>
<path d="M1.23502e-07 29.1807V50.6831C-0.000231977 51.6466 0.326687 52.5817 0.927223 53.3351C1.52776 54.0886 2.36633 54.6159 3.30563 54.8306C3.5325 54.8823 3.7633 54.9149 3.99562 54.9281C4.08 54.9356 4.16813 54.9374 4.25438 54.9374H20.6213C24.0575 44.8744 30.375 1.68762 4.5 5.43761L1.23502e-07 29.1807Z" fill="#E4E4E4"/>
<path d="M13.2499 39.8574H7.60352V45.5038H13.2499V39.8574Z" fill="white"/>
<path d="M4.15313 39.8574H0V45.503H4.15313V39.8574Z" fill="white"/>
<path d="M13.0931 52.7178H7.44751V54.9378H13.0931V52.7178Z" fill="white"/>
<path d="M0.517456 52.7178C0.807031 53.2466 1.20512 53.7082 1.68562 54.0724C2.16612 54.4366 2.71818 54.695 3.30558 54.8309C3.53245 54.8826 3.76326 54.9153 3.99558 54.9284V52.7178H0.517456Z" fill="white"/>
<path d="M129.937 35.2128V50.6834C129.937 51.3942 129.758 52.0936 129.418 52.7178L129.126 52.4721L128.561 51.9996L125.437 49.3878L126.214 52.5865L125.301 52.6353L125.229 52.639L123.572 52.729L122.122 52.8078H122.117L120.049 52.9203L118.029 53.029L117.356 53.0646L113.068 53.2971L111.24 53.3965L110.411 53.4415L108.219 53.5596L105.279 53.719L104.734 53.749L96.105 54.2159L90.6168 54.514L89.7656 54.559L89.7018 54.5627L89.355 54.5815H89.3531L88.6012 54.6227L87.5212 54.6809L85.7718 54.7746L84.9993 54.8159L82.7718 54.9377L80.625 55.054L78.5962 54.9377L72.0543 54.5627L67.8131 54.319L67.6743 54.3115L60.1462 53.8802L54.4987 53.5559L51.0487 53.359L45.4031 53.0346L42.8006 52.8865L41.9512 52.8378L39.8624 52.7178L30.345 52.1721L29.6362 52.1309L29.5968 52.129L26.1487 51.9321L23.9962 51.8084L28.5187 47.6065L28.5806 47.5484L30.345 45.9097C31.6143 43.6315 32.8331 41.3309 36.4631 40.2247L36.8587 39.8572L42.3093 34.7928L43.2393 34.7797L67.6743 34.4572L71.3643 34.4084L78.9243 34.3091L81.6637 34.2734L83.6868 34.3916L101.214 35.4191L102.356 35.4866L108.184 35.8278L113.576 36.1428L116.139 36.2928L116.766 36.3303L116.807 36.3322L117.122 36.3509L117.966 36.2759L119.002 36.1841L119.387 36.1503L119.563 36.1334L123.255 35.8072L123.564 35.7791L124.447 35.7003L129.562 42.7503L129.937 35.2128Z" fill="#3F3D56"/>
<path d="M110.146 51.9356C107.548 48.1753 105.655 38.6276 106.396 34.6857C106.363 34.5571 107.913 36.7195 107.918 36.5854C107.943 35.9233 108.415 35.4102 108.972 35.4393L115.977 35.8064C116.15 35.8214 116.317 35.8816 116.459 35.981C116.602 36.0803 116.717 36.2155 116.791 36.3728L122.087 46.5152C122.171 46.6773 122.221 46.8546 122.234 47.0366C122.286 47.6965 121.877 48.2813 121.322 48.3426L111.93 49.3799C111.899 49.3833 111.868 49.385 111.837 49.385C111.391 49.3839 110.275 52.443 110.146 51.9356Z" fill="white"/>
<path d="M80.3277 51.9006L80.3965 52.2737L80.6631 53.7099C80.7169 54.002 80.8003 54.2878 80.9119 54.5631C80.9452 54.6493 80.9829 54.7337 81.0229 54.8162C81.0429 54.8574 81.0629 54.8968 81.0851 54.9381H100.316L103.508 54.5687L103.548 54.5631C104.206 54.4726 104.817 54.1728 105.292 53.7081C105.685 53.3162 105.998 52.8504 106.211 52.3375C106.424 51.8246 106.533 51.2747 106.533 50.7193C106.538 50.5642 106.533 50.409 106.52 50.2543C106.503 50.0352 106.469 49.8176 106.418 49.6037C106.777 45.5256 105.831 41.5501 103.653 37.6712C103.474 36.8421 103.037 36.0911 102.404 35.5262C101.884 35.0661 101.223 34.7975 100.53 34.765L85.0055 34.1275C84.4143 34.1085 83.8309 34.2672 83.3307 34.5831C82.3801 35.1719 81.6893 36.2819 81.5538 37.6169C80.247 41.8132 79.8109 46.2322 80.2722 50.6031C80.2294 51.036 80.2481 51.4728 80.3277 51.9006Z" fill="white"/>
<path d="M74.6443 53.8123L34.7568 52.6515C34.2554 52.6369 26.8392 55.5634 26.4792 55.1083C25.6907 54.1116 25.6715 52.4706 26.4362 51.443L43.861 34.1628C44.0207 33.929 44.233 33.7359 44.481 33.5992C44.7289 33.4624 45.0056 33.3858 45.2885 33.3755H77.3963C77.5481 33.3756 77.6992 33.3981 77.8445 33.4422C78.9146 33.7648 79.5814 35.157 79.3338 36.5517L76.6262 51.805C76.4148 52.9783 75.6131 53.8091 74.6884 53.8129C74.6737 53.8129 74.659 53.8128 74.6443 53.8123Z" fill="white"/>
<path d="M116.343 37.0012L82.4433 34.6633L42.3094 34.7932C47.2463 29.5728 68.9452 23.208 92.1845 30.8967C115.434 31.676 117.122 36.3518 117.122 36.3518L117.412 36.8063L116.343 37.0012Z" fill="#F9A826"/>
<path d="M129.773 51.8533C129.687 52.1538 129.568 52.4438 129.418 52.7177C129.19 53.1364 128.893 53.5135 128.539 53.8333C128.513 53.8577 128.486 53.8802 128.46 53.9008C128.139 54.1816 127.777 54.4112 127.386 54.5814C127.212 54.6583 127.034 54.7228 126.851 54.7745C126.731 54.8083 126.608 54.8383 126.484 54.8608C126.316 54.8941 126.146 54.916 125.976 54.9264C125.88 54.9339 125.783 54.9377 125.683 54.9377H82.7719L80.625 55.0539L78.5963 54.9377H4.25442C4.16817 54.9377 4.08004 54.9358 3.99567 54.9283C3.76334 54.9151 3.53253 54.8825 3.30566 54.8308L3.99567 54.7295L5.13942 54.5627L7.44754 54.2252L13.0932 53.4002L15.2888 53.0795L20.6213 52.3014L21.5119 52.172L23.9963 51.8083L26.1882 51.8514L29.5426 51.9189H29.5838L30.3451 51.9339L35.4432 52.0352L37.3163 52.0727L51.0563 52.3445L52.3125 52.3689L54.1857 52.4064L60.15 52.5264L67.6744 52.6745L68.1769 52.6839L76.2338 52.8452L76.3388 52.8471L80.4488 52.5564L84.4707 52.2733L87.5175 52.0596L88.5 51.9902L88.5376 51.9883L88.7551 51.9733L88.8976 51.9621L90.0938 51.8777L94.5694 51.5627L96.5625 51.4221L97.4213 51.3621L98.3194 51.2983L106.534 50.7189L108.821 50.5577H108.823L110.074 50.4696L112.367 50.3083H112.369L114.726 50.1414H114.728L115.643 50.0777L115.993 50.0533L118.663 49.8658L120.278 49.7514L123.049 49.5564L123.906 49.4964L125.057 49.4139L125.372 49.3914L125.438 49.3877C125.438 49.3877 126.401 49.4083 127.658 50.1058C128.055 50.3274 128.431 50.5861 128.781 50.8783C129.023 51.0794 129.253 51.2942 129.471 51.5214C129.572 51.6264 129.671 51.737 129.773 51.8533Z" fill="#F9A826"/>
<path d="M87.2644 54.9377H90.1725L89.9063 54.6902L89.7694 54.5627L89.7657 54.559L89.1525 53.9909L88.665 53.5371L88.2694 53.9327L88.11 54.0921L87.6394 54.5627L87.5213 54.6809L87.2644 54.9377Z" fill="#CACACA"/>
<path d="M103.196 54.9379H107.668L108.356 54.5629L110.411 53.4416L110.895 53.1773L114.726 50.1417H114.727L115.689 49.3804L116.188 48.9848L116.805 48.4954L119.852 46.0823C119.936 46.0154 120.015 45.9414 120.086 45.861C120.252 45.6731 120.378 45.4533 120.456 45.215C120.534 44.9768 120.563 44.7251 120.54 44.4754C120.539 44.4539 120.536 44.4326 120.531 44.4117C120.497 44.1369 120.402 43.8732 120.252 43.6404C120.103 43.4076 119.902 43.2117 119.666 43.0673C119.333 42.8631 118.944 42.77 118.555 42.8014C118.166 42.8327 117.797 42.9869 117.501 43.2417L115.266 45.126L114.373 45.8779L110.917 48.7917L108.823 50.5579H108.821L108.422 50.8954L104.734 53.7491L103.68 54.5629L103.196 54.9379Z" fill="#FFB6B6"/>
<path d="M118.679 48.3513C118.797 48.3675 118.917 48.3445 119.021 48.2859C119.124 48.2273 119.206 48.1362 119.253 48.0267C119.313 47.8927 119.414 47.781 119.541 47.707C119.566 47.693 119.591 47.6807 119.618 47.67C119.778 47.6096 119.921 47.5115 120.036 47.3839C120.15 47.2562 120.232 47.1029 120.274 46.9369C120.405 46.3886 120.827 45.8567 121.25 45.4465C121.714 44.9976 122.208 44.5671 122.551 44.0203C123.045 43.2316 123.183 42.1246 122.23 41.4666C121.82 41.193 121.329 41.069 120.839 41.1155C119.812 41.1991 118.963 41.8256 118.156 42.4328L118.358 42.0364C117.489 42.7149 116.491 43.2108 115.425 43.4944C115.61 43.6621 115.45 43.9974 115.213 44.0753C114.977 44.1533 114.721 44.0711 114.478 44.0194C114.17 43.9542 113.79 43.9597 113.669 44.3266C113.643 44.4152 113.635 44.5083 113.646 44.6001C113.657 44.6919 113.687 44.7803 113.734 44.86C114.59 46.3834 115.752 47.7132 117.147 48.7661C117.457 48.9997 117.817 49.2296 118.202 49.1839C118.588 49.1382 118.915 48.6591 118.679 48.3513Z" fill="#F9A826"/>
<path d="M117.829 51.4541L118.029 53.0291L118.224 54.5628L118.245 54.726L118.273 54.9378H125.683C125.782 54.9378 125.88 54.9341 125.976 54.9266C126.146 54.9162 126.316 54.8942 126.484 54.861L126.568 54.4616L126.617 54.2235L123.517 53.2466L122.122 52.8079H122.119L120.103 52.1704L117.829 51.4541Z" fill="#FFB6B6"/>
<path d="M114.951 47.7529C115.102 48.0885 115.307 48.5366 115.536 49.0448C115.586 49.1535 115.637 49.266 115.689 49.3804C115.787 49.5979 115.888 49.8229 115.993 50.0535C116.456 51.0791 116.961 52.1929 117.356 53.0648C117.684 53.7941 117.939 54.3566 118.031 54.5629C118.059 54.621 118.072 54.651 118.072 54.651L118.245 54.726L118.738 54.9379H125.683C125.782 54.9379 125.88 54.9341 125.976 54.9266C126.146 54.9162 126.316 54.8943 126.484 54.861C126.607 54.8385 126.731 54.8085 126.851 54.7747C127.034 54.723 127.212 54.6585 127.386 54.5816C127.777 54.4114 128.139 54.1819 128.46 53.901C128.475 53.7716 128.505 53.5635 128.537 53.3104C128.587 52.9324 128.614 52.5517 128.617 52.1704C128.617 51.8648 127.867 51.3698 127.657 50.106C127.587 49.6444 127.586 49.1747 127.656 48.7129C128.044 45.8666 127.907 41.511 125.164 40.6598L123.191 37.2061H119.428L118.817 39.0079V39.0098L118.466 40.0429L118.256 40.6598L118.211 40.7198L116.869 42.4804C116.869 42.4804 116.655 42.7523 116.362 43.1817V43.1835C115.94 43.7975 115.573 44.4475 115.266 45.126C115.065 45.5656 114.92 46.0286 114.834 46.5042C114.751 46.9228 114.791 47.3568 114.951 47.7529Z" fill="#2F2E41"/>
<path d="M122.881 33.7254C120.116 35.8287 117.037 37.5026 116.457 39.8173C116.457 39.8173 116.804 36.1805 115.183 36.8698C112.458 38.0281 113.38 31.729 114.144 30.699C115.417 28.9823 119.712 28.0068 119.712 28.0068L122.758 29.6792L122.881 33.7254Z" fill="#2F2E41"/>
<path d="M118.067 36.2779C120.704 36.2779 122.842 34.1399 122.842 31.5027C122.842 28.8655 120.704 26.7275 118.067 26.7275C115.429 26.7275 113.292 28.8655 113.292 31.5027C113.292 34.1399 115.429 36.2779 118.067 36.2779Z" fill="#FFB6B6"/>
<path d="M119.786 29.6753L119.97 30.4824L116.758 31.2137C116.755 31.0504 116.719 30.8895 116.651 30.7411C116.583 30.5927 116.485 30.4599 116.363 30.3511C116.432 30.6676 116.424 30.9961 116.34 31.3088C114.608 32.2809 114.707 32.6253 113.307 32.3774C113.213 32.3988 113.116 32.4015 113.021 32.3853C112.926 32.3691 112.835 32.3344 112.754 32.2831C112.672 32.2318 112.601 32.1649 112.546 32.0863C112.49 32.0077 112.45 31.9189 112.429 31.825C111.866 29.3506 111.681 26.8215 114.143 26.2073C114.741 26.0576 115.364 26.029 115.974 26.123C116.583 26.217 117.168 26.4318 117.694 26.7549C118.219 27.0779 118.675 27.5026 119.035 28.0041C119.394 28.5056 119.649 29.0737 119.786 29.6753Z" fill="#2F2E41"/>
<path d="M119.001 32.8955C118.843 32.2061 118.535 31.5603 118.098 31.0046C117.661 30.4489 117.106 29.9971 116.473 29.6819C115.84 29.3666 115.145 29.1958 114.438 29.1817C113.732 29.1675 113.03 29.3105 112.385 29.6002C112.609 28.9409 113.061 28.3833 113.66 28.0285L117.276 26.4588C119.059 26.0528 121.882 24.9004 123.17 26.004C124.357 27.0177 123.78 29.0021 124.873 30.1135C126.07 31.3315 126.172 32.7716 125.832 33.5999C125.439 34.5582 124.653 35.8656 123.672 36.1486C123.621 35.8113 123.453 35.5029 123.197 35.2773C123.268 35.5987 123.274 35.931 123.215 36.2548L117.276 40.9919C117.83 40.5094 118.303 39.2662 118.628 37.866C118.821 37.0372 119.971 36.7463 119.038 35.3396C118.106 33.933 119.127 33.4516 119.001 32.8955Z" fill="#2F2E41"/>
<path d="M123.758 27.6115L123.741 27.6449C123.721 27.6893 123.7 27.7337 123.684 27.78L123.682 27.7819C123.591 27.8152 123.489 27.7615 123.389 27.6763C123.405 27.8766 123.416 28.0703 123.424 28.2602L120.262 27.0228C120.812 27.1177 120.894 25.1612 121.288 25.5361C121.31 25.5565 121.331 25.5769 121.351 25.5972C121.302 25.4793 121.268 25.3554 121.251 25.2288C121.234 25.0699 121.247 24.9092 121.288 24.7548C121.289 24.7541 121.289 24.7532 121.29 24.7523C121.29 24.7513 121.29 24.7503 121.29 24.7493C121.329 24.6097 121.391 24.4772 121.471 24.3568C121.588 24.1816 121.735 24.0292 121.906 23.9069C122.125 23.7401 122.379 23.627 122.65 23.5768C122.92 23.5266 123.198 23.5408 123.462 23.6181C124.066 23.8466 124.565 24.2886 124.865 24.8604C125.138 25.3004 125.278 25.8105 125.267 26.3285C125.255 26.4645 125.226 26.5983 125.18 26.7266C125.122 26.9067 125.023 27.0711 124.892 27.2069C124.76 27.3428 124.599 27.4464 124.421 27.5097C124.376 27.5245 124.324 27.5412 124.269 27.5616C124.239 27.3206 124.237 27.0771 124.263 26.8358C124.057 27.068 123.887 27.3294 123.758 27.6115Z" fill="#2F2E41"/>
<path d="M120.696 26.8971C120.7 27.0004 120.712 27.1031 120.733 27.2044C120.734 27.2175 120.737 27.2305 120.74 27.2433C120.87 27.8191 121.571 26.6212 122.114 27.023C122.452 27.2665 122.827 27.4541 123.225 27.5784C123.241 27.5321 123.39 27.6228 123.41 27.5784C123.415 27.5673 123.404 27.4044 123.41 27.3933C123.072 27.263 122.758 27.0751 122.484 26.8378C121.975 26.462 122.047 26.8138 121.929 26.2824C121.792 25.6696 120.985 25.9325 121.399 25.6418L121.351 25.5752C121.057 25.7786 120.839 26.0754 120.735 26.4176C120.735 26.4186 120.735 26.4196 120.734 26.4206C120.734 26.4215 120.733 26.4224 120.733 26.4231C120.702 26.5791 120.689 26.7382 120.696 26.8971Z" fill="#F9A826"/>
<path d="M119.902 54.938H123.343L123.382 54.563L123.517 53.2467L123.572 52.7292L123.804 50.4773L123.906 49.4967L124.129 47.3349L124.204 46.6074C124.251 46.1256 124.108 45.6443 123.804 45.2673C123.501 44.8903 123.061 44.6477 122.58 44.5917C122.51 44.5837 122.44 44.5793 122.37 44.5786H122.364C122.279 44.5795 122.194 44.5851 122.109 44.5955C121.676 44.6577 121.279 44.8716 120.988 45.1992C120.714 45.5066 120.551 45.8978 120.527 46.3092L120.525 46.3374V46.3392L120.362 48.5967L120.277 49.7517L120.232 50.3911L120.103 52.1705L120.049 52.9205L119.931 54.563L119.902 54.938Z" fill="#FFB6B6"/>
<path d="M125.008 49.032C125.102 48.9588 125.17 48.8568 125.2 48.7417C125.23 48.6265 125.222 48.5045 125.176 48.3945C125.123 48.2577 125.113 48.1076 125.149 47.965C125.156 47.9375 125.165 47.9105 125.176 47.8842C125.244 47.7273 125.274 47.5561 125.262 47.3852C125.251 47.2143 125.198 47.0487 125.109 46.9026C124.808 46.4258 124.721 45.7527 124.723 45.1631C124.725 44.518 124.762 43.8632 124.61 43.2364C124.39 42.3321 123.694 41.4601 122.557 41.6833C122.075 41.7857 121.644 42.0511 121.334 42.4347C120.678 43.2282 120.533 44.2736 120.405 45.275L120.262 44.8537C120.141 45.9499 119.8 47.0103 119.259 47.9714C119.508 47.9564 119.636 48.3049 119.527 48.5288C119.418 48.7527 119.181 48.8781 118.974 49.0165C118.712 49.191 118.451 49.4669 118.629 49.8098C118.674 49.8906 118.735 49.9613 118.809 50.0174C118.882 50.0734 118.967 50.1137 119.056 50.1356C120.745 50.586 122.508 50.6822 124.236 50.4184C124.619 50.3596 125.035 50.2625 125.272 49.9546C125.508 49.6467 125.394 49.0775 125.008 49.032Z" fill="#F9A826"/>
<path d="M88.5 52.9464C88.5 53.4745 88.7098 53.981 89.0832 54.3544C89.4567 54.7279 89.9632 54.9377 90.4913 54.9377H94.5712C95.0993 54.9377 95.6058 54.7279 95.9793 54.3544C96.3527 53.981 96.5625 53.4745 96.5625 52.9464V51.4283C96.5625 51.107 96.4847 50.7904 96.3359 50.5057C96.187 50.2209 95.9714 49.9764 95.7075 49.7931C95.4437 49.6097 95.1393 49.4929 94.8205 49.4527C94.5017 49.4125 94.178 49.45 93.8768 49.562L89.7969 51.0801C89.4161 51.2218 89.0878 51.4765 88.856 51.8101C88.6242 52.1437 88.5 52.5402 88.5 52.9464Z" fill="#CACACA"/>
<path d="M4.25438 54.5628C4.16813 54.5628 4.08187 54.5591 3.99562 54.5534V54.7297L5.13938 54.5628H4.25438ZM20.6213 54.5628V54.9378H30.345V54.5628H20.6213ZM72.0544 54.5628L78.5963 54.9378H82.7719L84.9994 54.8159L85.7719 54.7747L87.5213 54.6809L88.6012 54.6228L89.3531 54.5816H89.355L89.7019 54.5628H72.0544ZM125.683 54.5628H125.331L125.351 54.9378H125.683C125.783 54.9378 125.88 54.9341 125.976 54.9266L125.993 54.6922L126.004 54.5478C125.897 54.5585 125.79 54.5635 125.683 54.5628ZM4.25438 54.5628C4.16813 54.5628 4.08187 54.5591 3.99562 54.5534V54.7297L5.13938 54.5628H4.25438ZM20.6213 54.5628V54.9378H30.345V54.5628H20.6213ZM72.0544 54.5628L78.5963 54.9378H82.7719L84.9994 54.8159L85.7719 54.7747L87.5213 54.6809L88.6012 54.6228L89.3531 54.5816H89.355L89.7019 54.5628H72.0544ZM4.25438 54.5628C4.16813 54.5628 4.08187 54.5591 3.99562 54.5534V54.7297L5.13938 54.5628H4.25438ZM7.4475 54.5628V54.9378H41.9512V54.5628H7.4475ZM72.0544 54.5628L78.5963 54.9378H82.7719L84.9994 54.8159L85.7719 54.7747L87.5213 54.6809L88.6012 54.6228L89.3531 54.5816H89.355L89.7019 54.5628H72.0544ZM125.683 54.5628H110.991C110.97 54.6866 110.951 54.8122 110.934 54.9378H125.683C125.783 54.9378 125.88 54.9341 125.976 54.9266L125.993 54.6922L126.004 54.5478C125.897 54.5585 125.79 54.5635 125.683 54.5628ZM4.25438 54.5628C4.16813 54.5628 4.08187 54.5591 3.99562 54.5534V54.7297L5.13938 54.5628H4.25438ZM4.25438 54.5628C4.16813 54.5628 4.08187 54.5591 3.99562 54.5534V54.7297L5.13938 54.5628H4.25438ZM4.25438 54.5628C4.16813 54.5628 4.08187 54.5591 3.99562 54.5534V54.7297L5.13938 54.5628H4.25438ZM4.25438 54.5628C4.16813 54.5628 4.08187 54.5591 3.99562 54.5534V54.7297L5.13938 54.5628H4.25438ZM4.25438 54.5628C4.16813 54.5628 4.08187 54.5591 3.99562 54.5534V54.7297L5.13938 54.5628H4.25438ZM4.25438 54.5628C4.16813 54.5628 4.08187 54.5591 3.99562 54.5534V54.7297L5.13938 54.5628H4.25438ZM4.25438 54.5628C4.16813 54.5628 4.08187 54.5591 3.99562 54.5534V54.7297L5.13938 54.5628H4.25438ZM4.25438 54.5628C4.16813 54.5628 4.08187 54.5591 3.99562 54.5534C3.37861 54.5129 2.78031 54.3251 2.25084 54.0057C1.72136 53.6863 1.27615 53.2447 0.9525 52.7178H0.517502C0.807076 53.2466 1.20517 53.7083 1.68567 54.0724C2.16617 54.4366 2.71822 54.6951 3.30563 54.8309L3.99562 54.7297L5.13938 54.5628H4.25438ZM125.683 0.000488281H4.25438C3.12646 0.00184687 2.04514 0.450509 1.24758 1.24806C0.450025 2.04562 0.00135872 3.12694 1.23502e-07 4.25484V50.6834C-0.000231977 51.647 0.326687 52.582 0.927223 53.3355C1.52776 54.089 2.36633 54.6162 3.30563 54.8309C3.53249 54.8827 3.7633 54.9153 3.99562 54.9284C4.08 54.9359 4.16813 54.9378 4.25438 54.9378H125.683C125.783 54.9378 125.88 54.9341 125.976 54.9266C126.146 54.9161 126.316 54.8942 126.484 54.8609C126.608 54.8384 126.731 54.8084 126.851 54.7747C127.034 54.723 127.212 54.6584 127.386 54.5816C127.777 54.4114 128.139 54.1818 128.46 53.9009C128.486 53.8803 128.512 53.8578 128.539 53.8335C128.893 53.5137 129.19 53.1365 129.418 52.7178C129.758 52.0937 129.937 51.3943 129.938 50.6834V4.25484C129.936 3.12694 129.487 2.04562 128.69 1.24806C127.892 0.450509 126.811 0.00184687 125.683 0.000488281ZM129.562 50.6834C129.563 50.9653 129.532 51.2464 129.471 51.5216C129.399 51.8525 129.283 52.1723 129.126 52.4722C128.98 52.7542 128.799 53.0169 128.587 53.2541V53.2559L128.586 53.2578C128.571 53.2747 128.554 53.2934 128.537 53.3103C128.074 53.8161 127.484 54.1889 126.829 54.3903C126.769 54.4091 126.709 54.4259 126.649 54.4428C126.622 54.4503 126.596 54.4559 126.568 54.4616C126.383 54.5049 126.194 54.5337 126.004 54.5478C125.897 54.5585 125.79 54.5635 125.683 54.5628H4.25438C4.16813 54.5628 4.08187 54.5591 3.99562 54.5534C3.01404 54.4873 2.09417 54.0509 1.42205 53.3325C0.749919 52.6141 0.375675 51.6673 0.374992 50.6834V29.5654C0.374992 29.436 0.374991 29.3085 0.376866 29.181C0.474607 21.5054 3.59322 14.1776 9.05681 8.78562C14.5204 3.39365 21.8888 0.371975 29.565 0.375487H125.683C126.193 0.375386 126.697 0.475658 127.168 0.670578C127.639 0.865498 128.066 1.15125 128.426 1.5115C128.787 1.87175 129.072 2.29945 129.267 2.77016C129.462 3.24087 129.563 3.74537 129.562 4.25484L129.562 50.6834ZM4.25438 54.5628C4.16813 54.5628 4.08187 54.5591 3.99562 54.5534V54.7297L5.13938 54.5628H4.25438ZM4.25438 54.5628C4.16813 54.5628 4.08187 54.5591 3.99562 54.5534V54.7297L5.13938 54.5628H4.25438ZM4.25438 54.5628C4.16813 54.5628 4.08187 54.5591 3.99562 54.5534V54.7297L5.13938 54.5628H4.25438ZM4.25438 54.5628C4.16813 54.5628 4.08187 54.5591 3.99562 54.5534V54.7297L5.13938 54.5628H4.25438ZM4.25438 54.5628C4.16813 54.5628 4.08187 54.5591 3.99562 54.5534V54.7297L5.13938 54.5628H4.25438ZM4.25438 54.5628C4.16813 54.5628 4.08187 54.5591 3.99562 54.5534V54.7297L5.13938 54.5628H4.25438ZM4.25438 54.5628C4.16813 54.5628 4.08187 54.5591 3.99562 54.5534V54.7297L5.13938 54.5628H4.25438ZM4.25438 54.5628C4.16813 54.5628 4.08187 54.5591 3.99562 54.5534V54.7297L5.13938 54.5628H4.25438ZM72.0544 54.5628L78.5963 54.9378H82.7719L84.9994 54.8159L85.7719 54.7747L87.5213 54.6809L88.6012 54.6228L89.3531 54.5816H89.355L89.7019 54.5628H72.0544ZM20.6213 54.5628V54.9378H30.345V54.5628H20.6213ZM4.25438 54.5628C4.16813 54.5628 4.08187 54.5591 3.99562 54.5534V54.7297L5.13938 54.5628H4.25438ZM72.0544 54.5628L78.5963 54.9378H82.7719L84.9994 54.8159L85.7719 54.7747L87.5213 54.6809L88.6012 54.6228L89.3531 54.5816H89.355L89.7019 54.5628H72.0544ZM20.6213 54.5628V54.9378H30.345V54.5628H20.6213ZM4.25438 54.5628C4.16813 54.5628 4.08187 54.5591 3.99562 54.5534V54.7297L5.13938 54.5628H4.25438ZM125.683 54.5628H125.331L125.351 54.9378H125.683C125.783 54.9378 125.88 54.9341 125.976 54.9266L125.993 54.6922L126.004 54.5478C125.897 54.5585 125.79 54.5635 125.683 54.5628ZM72.0544 54.5628L78.5963 54.9378H82.7719L84.9994 54.8159L85.7719 54.7747L87.5213 54.6809L88.6012 54.6228L89.3531 54.5816H89.355L89.7019 54.5628H72.0544ZM20.6213 54.5628V54.9378H30.345V54.5628H20.6213Z" fill="#3F3D56"/>
</g>
<defs>
<clipPath id="clip0_910_1159">
<rect width="129.938" height="55.1558" fill="white"/>
</clipPath>
</defs>
</svg>
