<svg width="51" height="51" viewBox="0 0 51 51" fill="none" xmlns="http://www.w3.org/2000/svg">
<path d="M25.0532 7.10254C14.9147 7.10254 7.05322 14.5321 7.05322 24.5626C7.05322 29.8096 9.20422 34.3456 12.7052 37.4776C12.9977 37.7386 13.1777 38.1076 13.1867 38.5036L13.2857 41.7076C13.2929 41.9433 13.3579 42.1737 13.475 42.3785C13.5921 42.5832 13.7577 42.756 13.9572 42.8818C14.1568 43.0076 14.3841 43.0824 14.6193 43.0997C14.8546 43.117 15.0904 43.0763 15.3062 42.9811L18.8792 41.4061C19.1807 41.2711 19.5227 41.2486 19.8422 41.3341C21.4847 41.7841 23.2307 42.0271 25.0532 42.0271C35.1917 42.0271 43.0532 34.5976 43.0532 24.5671C43.0532 14.5366 35.1917 7.10254 25.0532 7.10254Z" fill="white"/>
<path d="M14.2442 29.6702L19.5317 21.2822C19.7306 20.9664 19.9928 20.6952 20.3018 20.4859C20.6108 20.2765 20.9598 20.1335 21.3268 20.0659C21.6939 19.9982 22.0709 20.0074 22.4343 20.0928C22.7976 20.1782 23.1392 20.3381 23.4377 20.5622L27.6452 23.7167C27.833 23.8573 28.0615 23.9329 28.2962 23.9321C28.5308 23.9313 28.7588 23.8541 28.9456 23.7122L34.6246 19.4012C35.3806 18.8252 36.3706 19.7342 35.8666 20.5397L30.5746 28.9232C30.3757 29.239 30.1135 29.5101 29.8045 29.7195C29.4956 29.9288 29.1465 30.0718 28.7795 30.1395C28.4125 30.2072 28.0354 30.198 27.6721 30.1126C27.3087 30.0271 26.9671 29.8673 26.6687 29.6432L22.4612 26.4887C22.2733 26.3481 22.0448 26.2724 21.8102 26.2732C21.5755 26.274 21.3475 26.3513 21.1607 26.4932L15.4817 30.8042C14.7257 31.3802 13.7357 30.4757 14.2442 29.6702Z" fill="black"/>
</svg>
