<svg width="94" height="42" viewBox="0 0 94 42" fill="none" xmlns="http://www.w3.org/2000/svg">
<g clip-path="url(#clip0_1165_2824)">
<path d="M77.0252 39.3274C77.11 39.9937 77.422 40.6034 77.7548 41.1906C77.7658 41.2106 77.7771 41.2303 77.7887 41.2503H81.2476C81.3175 41.2321 81.3866 41.2121 81.4553 41.1906C81.846 41.0714 82.2148 40.8895 82.5475 40.652C83.82 39.7329 84.3096 37.9962 84.0885 36.44C83.9509 35.4732 83.5277 34.4861 82.7035 33.9654C82.2559 33.6921 81.7219 33.5983 81.2083 33.7028C81.1952 33.7052 81.1821 33.7081 81.1687 33.7108C80.9549 33.7523 80.7523 33.8386 80.5742 33.9641C80.396 34.0897 80.2464 34.2516 80.1352 34.4392C79.7423 35.139 79.9762 36.0058 80.1694 36.7847C80.362 37.5635 80.4665 38.4957 79.9075 39.0702C79.9894 38.8299 80.0061 38.5722 79.9557 38.3234C79.9053 38.0745 79.7898 37.8437 79.6209 37.6545C79.4521 37.4652 79.236 37.3245 78.9949 37.2468C78.7538 37.169 78.4964 37.157 78.2492 37.212C78.2087 37.2206 78.1688 37.2305 78.1295 37.2424C78.0346 37.2703 77.943 37.3087 77.8566 37.357C77.1973 37.7261 76.9303 38.5763 77.0252 39.3274Z" fill="#F2F2F2"/>
<path d="M79.0761 41.19C78.9803 41.2124 78.8841 41.2321 78.7874 41.2497H79.3104C79.3788 41.2312 79.447 41.2115 79.5146 41.19C79.6631 41.1434 79.8094 41.09 79.9533 41.0297C80.5373 40.7921 81.0558 40.4173 81.4652 39.937C81.662 39.7019 81.8227 39.4387 81.942 39.1561C82.0714 38.8366 82.1536 38.4999 82.1861 38.1567C82.2455 37.4471 82.1981 36.7326 82.0456 36.0371C81.9022 35.3202 81.6706 34.6239 81.3562 33.9641C81.3184 33.8851 81.2793 33.8065 81.2389 33.7284C81.2362 33.722 81.232 33.7163 81.2266 33.7117C81.2213 33.7072 81.2151 33.7039 81.2083 33.7021C81.1945 33.6995 81.1803 33.7024 81.1687 33.7102C81.1548 33.7182 81.1444 33.7313 81.1398 33.7467C81.1352 33.7622 81.1367 33.7788 81.144 33.7932C81.4681 34.4268 81.7138 35.0978 81.8757 35.7913C82.0423 36.4714 82.1155 37.1712 82.0932 37.8711C82.0813 38.5222 81.8787 39.1553 81.5104 39.6917C81.1523 40.1748 80.6813 40.5622 80.1388 40.82C79.7995 40.9827 79.443 41.1068 79.0761 41.19Z" fill="white"/>
<path d="M77.9283 41.2502H78.0825C78.0998 41.2305 78.1165 41.2105 78.1328 41.1905C78.484 40.7627 78.722 40.2531 78.8246 39.7087C78.9492 39.0293 78.8523 38.3277 78.5481 37.7079C78.4632 37.5341 78.3632 37.3681 78.2492 37.2119C78.2087 37.2206 78.1688 37.2304 78.1295 37.2423C78.4293 37.6405 78.631 38.1041 78.718 38.5953C78.7957 39.0556 78.7699 39.5274 78.6425 39.9764C78.5151 40.4254 78.2893 40.8402 77.9816 41.1905C77.9644 41.2105 77.9465 41.2305 77.9283 41.2502Z" fill="white"/>
<path d="M45.8488 24.0271H35.0235L34.9087 20.6905C34.9037 20.5458 34.9301 20.4018 34.9859 20.2684C35.0418 20.1349 35.1259 20.0152 35.2323 19.9174C35.3388 19.8197 35.4651 19.7462 35.6026 19.702C35.7401 19.6579 35.8855 19.6441 36.0288 19.6617L42.3284 20.435H42.3292C43.2631 20.4375 44.158 20.8111 44.8177 21.4738C45.4774 22.1365 45.8482 23.0344 45.8488 23.9706V24.0271Z" fill="white"/>
<path d="M41.0239 12.1914H33.4738C33.3733 12.1914 33.2739 12.2112 33.1811 12.2497C33.0884 12.2882 33.0041 12.3447 32.9331 12.4158C32.8621 12.487 32.8057 12.5715 32.7673 12.6645C32.7289 12.7575 32.7092 12.8572 32.7092 12.9579V20.5268C32.7092 20.6275 32.7289 20.7271 32.7673 20.8201C32.8057 20.9132 32.8621 20.9977 32.9331 21.0688C33.0041 21.14 33.0884 21.1965 33.1811 21.235C33.2739 21.2735 33.3733 21.2933 33.4738 21.2933H41.0239C41.1243 21.2933 41.2238 21.2735 41.3165 21.235C41.4093 21.1965 41.4936 21.14 41.5646 21.0688C41.6356 20.9977 41.6919 20.9132 41.7304 20.8201C41.7688 20.7271 41.7885 20.6275 41.7885 20.5268V12.9579C41.7885 12.8572 41.7688 12.7575 41.7304 12.6645C41.6919 12.5715 41.6356 12.487 41.5646 12.4158C41.4936 12.3447 41.4093 12.2882 41.3165 12.2497C41.2238 12.2112 41.1243 12.1914 41.0239 12.1914Z" fill="#CCCCCC"/>
<path d="M39.3235 17.8514L35.7588 18.5473C35.5473 18.5883 35.3282 18.5436 35.1497 18.4229C34.9711 18.3022 34.8475 18.1155 34.8061 17.9036L34.5321 16.493C34.4911 16.281 34.5358 16.0614 34.6561 15.8823C34.7765 15.7033 34.9628 15.5794 35.1742 15.5379L38.7389 14.842C38.9504 14.801 39.1694 14.8457 39.348 14.9664C39.5266 15.0871 39.6502 15.2738 39.6916 15.4857L39.9656 16.8963C40.0066 17.1083 39.9619 17.3279 39.8416 17.507C39.7212 17.686 39.5349 17.8099 39.3235 17.8514Z" fill="#3F3D56"/>
<path d="M38.6103 16.1854L35.8898 16.7165C35.8401 16.7262 35.7885 16.7157 35.7465 16.6873C35.7044 16.6589 35.6754 16.6149 35.6657 16.565C35.656 16.5151 35.6665 16.4634 35.6948 16.4213C35.7231 16.3791 35.767 16.35 35.8168 16.3403L38.5372 15.8092C38.587 15.7995 38.6386 15.81 38.6806 15.8384C38.7226 15.8668 38.7517 15.9108 38.7614 15.9607C38.7711 16.0105 38.7606 16.0622 38.7323 16.1044C38.7039 16.1465 38.6601 16.1757 38.6103 16.1854Z" fill="white"/>
<path d="M38.0815 16.9715L36.6744 17.2462C36.6246 17.2559 36.5731 17.2454 36.531 17.217C36.489 17.1886 36.4599 17.1446 36.4502 17.0947C36.4405 17.0449 36.451 16.9932 36.4793 16.951C36.5077 16.9089 36.5516 16.8797 36.6013 16.87L38.0085 16.5953C38.0331 16.5905 38.0584 16.5906 38.083 16.5956C38.1076 16.6006 38.131 16.6105 38.1518 16.6245C38.1726 16.6386 38.1905 16.6566 38.2043 16.6776C38.2182 16.6986 38.2278 16.7221 38.2326 16.7468C38.2374 16.7715 38.2373 16.7969 38.2323 16.8216C38.2273 16.8462 38.2175 16.8696 38.2035 16.8905C38.1895 16.9114 38.1715 16.9293 38.1505 16.9432C38.1296 16.9571 38.1062 16.9667 38.0815 16.9715Z" fill="white"/>
<path d="M41.7885 12.9579V13.9639H32.7092V12.9579C32.7092 12.8572 32.7289 12.7575 32.7673 12.6645C32.8057 12.5715 32.8621 12.487 32.9331 12.4158C33.0041 12.3447 33.0884 12.2882 33.1811 12.2497C33.2739 12.2112 33.3733 12.1914 33.4738 12.1914H41.0239C41.1243 12.1914 41.2238 12.2112 41.3165 12.2497C41.4093 12.2882 41.4936 12.3447 41.5646 12.4158C41.6356 12.487 41.6919 12.5715 41.7304 12.6645C41.7688 12.7575 41.7885 12.8572 41.7885 12.9579Z" fill="#B3B3B3"/>
<path d="M59.919 14.2789C59.8666 14.1093 59.7777 13.9533 59.6586 13.8218C59.5396 13.6903 59.3932 13.5867 59.2298 13.518C59.0664 13.4494 58.89 13.4176 58.713 13.4247C58.5361 13.4318 58.3628 13.4778 58.2054 13.5593L47.8182 9.82324L47.3607 12.4246L57.7148 15.279C57.869 15.5349 58.1114 15.7253 58.3962 15.814C58.681 15.9028 58.9883 15.8837 59.26 15.7604C59.5317 15.6371 59.7489 15.4182 59.8703 15.1452C59.9918 14.8721 60.0091 14.5639 59.919 14.2789Z" fill="#FFB8B8"/>
<path opacity="0.2" d="M59.919 14.2789C59.8666 14.1093 59.7777 13.9533 59.6586 13.8218C59.5396 13.6903 59.3932 13.5867 59.2298 13.518C59.0664 13.4494 58.89 13.4176 58.713 13.4247C58.5361 13.4318 58.3628 13.4778 58.2054 13.5593L47.8182 9.82324L47.3607 12.4246L57.7148 15.279C57.869 15.5349 58.1114 15.7253 58.3962 15.814C58.681 15.9028 58.9883 15.8837 59.26 15.7604C59.5317 15.6371 59.7489 15.4182 59.8703 15.1452C59.9918 14.8721 60.0091 14.5639 59.919 14.2789Z" fill="black"/>
<path d="M49.6618 10.2981L48.681 12.867C48.6531 12.9401 48.6098 13.0063 48.554 13.0611C48.4983 13.1159 48.4314 13.158 48.358 13.1846C48.2846 13.2112 48.2063 13.2215 48.1285 13.215C48.0507 13.2085 47.9752 13.1853 47.9072 13.1469L45.5233 11.8019C45.1511 11.6566 44.8515 11.3693 44.6903 11.0029C44.5291 10.6366 44.5194 10.2211 44.6633 9.84758C44.8071 9.47405 45.0929 9.17296 45.4578 9.0103C45.8228 8.84765 46.2372 8.83671 46.6102 8.97988L49.2723 9.57174C49.3485 9.58871 49.4201 9.62195 49.4824 9.66919C49.5446 9.71643 49.596 9.77656 49.633 9.8455C49.6699 9.91443 49.6916 9.99054 49.6966 10.0686C49.7016 10.1467 49.6897 10.225 49.6618 10.2981Z" fill="white"/>
<path d="M60.7366 16.6582L57.0147 18.3542L57.5033 20.1984C58.447 23.7598 58.6974 27.47 58.2409 31.1263L60.9622 31.6961L63.2179 25.9297L62.4284 19.3718L60.7366 16.6582Z" fill="white"/>
<path d="M68.0395 25.1943C65.5941 25.1943 63.6012 26.9765 63.5045 29.2082H72.5746C72.4779 26.9765 70.485 25.1943 68.0395 25.1943Z" fill="#3F3D56"/>
<path d="M66.1359 25.5788C66.0086 15.5048 60.2855 16.4316 60.2855 16.4316C60.2855 16.4316 60.3925 19.5673 60.444 19.6648C64.091 26.5822 58.072 34.6918 50.4105 33.1999C50.266 33.1717 50.1273 33.1432 49.9941 33.1143C49.0234 32.9111 48.1663 32.3448 47.5971 31.5307C47.028 30.7165 46.7896 29.7156 46.9305 28.7315C47.6852 22.6558 43.9314 22.7633 43.9314 22.7633H38.4425L35.592 20.1915C35.4914 20.1007 35.3701 20.036 35.2388 20.0031C35.1075 19.9702 34.9701 19.97 34.8387 20.0026C34.7073 20.0351 34.5859 20.0995 34.485 20.19C34.3842 20.2805 34.307 20.3944 34.2602 20.5218L33.8934 21.5196C33.8934 21.5196 28.4797 22.0849 28.9308 27.399H30.6046C30.6005 27.55 30.6066 27.7011 30.6226 27.8513L43.1138 27.7495C43.846 27.7435 44.4923 28.3383 44.4954 29.0723C44.4961 29.251 44.4609 29.4281 44.3918 29.5928C44.3228 29.7576 44.2213 29.9066 44.0934 30.0312C43.9655 30.1557 43.8139 30.253 43.6476 30.3175C43.4813 30.3819 43.3038 30.412 43.1256 30.4061L41.1118 30.3388C40.4915 33.1089 42.0141 34.9745 43.6918 36.1476C45.2713 37.236 47.1457 37.8131 49.0624 37.8012H54.5334C61.6389 37.8012 62.8796 31.8086 62.8796 31.8086C66.6015 30.2257 66.1359 25.5788 66.1359 25.5788Z" fill="#3F3D56"/>
<path d="M67.7012 41.0804C71.205 41.0804 74.0454 38.2329 74.0454 34.7204C74.0454 31.2078 71.205 28.3604 67.7012 28.3604C64.1974 28.3604 61.3569 31.2078 61.3569 34.7204C61.3569 38.2329 64.1974 41.0804 67.7012 41.0804Z" fill="#3F3D56"/>
<path d="M67.7012 36.2788C68.56 36.2788 69.2561 35.5809 69.2561 34.72C69.2561 33.859 68.56 33.1611 67.7012 33.1611C66.8424 33.1611 66.1462 33.859 66.1462 34.72C66.1462 35.5809 66.8424 36.2788 67.7012 36.2788Z" fill="white"/>
<path d="M35.6698 41.0806C39.7031 41.0806 42.9728 37.8029 42.9728 33.7595C42.9728 29.7162 39.7031 26.4385 35.6698 26.4385C31.6365 26.4385 28.3669 29.7162 28.3669 33.7595C28.3669 37.8029 31.6365 41.0806 35.6698 41.0806Z" fill="#3F3D56"/>
<path d="M35.6698 35.5536C36.6584 35.5536 37.4598 34.7502 37.4598 33.7592C37.4598 32.7682 36.6584 31.9648 35.6698 31.9648C34.6813 31.9648 33.8799 32.7682 33.8799 33.7592C33.8799 34.7502 34.6813 35.5536 35.6698 35.5536Z" fill="white"/>
<path d="M57.0253 18.8548L55.6861 15.2084C55.6163 15.0184 55.5845 14.8164 55.5926 14.6141C55.6006 14.4117 55.6484 14.213 55.7331 14.0291C55.8178 13.8453 55.9378 13.6799 56.0862 13.5426C56.2346 13.4052 56.4086 13.2985 56.5982 13.2285L60.4374 11.8117C60.771 11.6886 61.1254 11.6325 61.4806 11.6467C61.8358 11.6609 62.1846 11.7451 62.5073 11.8945C62.83 12.0438 63.1202 12.2555 63.3614 12.5173C63.6025 12.7791 63.7898 13.0859 63.9126 13.4203C64.0233 13.7204 64.0799 14.0379 64.0796 14.3579C64.0782 14.7642 63.9865 15.1651 63.8111 15.5314C63.6358 15.8977 63.3812 16.2203 63.0659 16.4756C62.8382 16.6588 62.5822 16.8035 62.308 16.904L57.0253 18.8548Z" fill="#3F3D56"/>
<path d="M64.0232 14.3579C64.0229 14.7559 63.9336 15.1488 63.7618 15.5077C63.5901 15.8665 63.3402 16.1822 63.0307 16.4315C62.5558 16.3059 62.1139 16.0782 61.7357 15.7641C61.3574 15.45 61.052 15.0571 60.8406 14.6127C60.6291 14.1684 60.5167 13.6831 60.5113 13.1908C60.5058 12.6985 60.6073 12.2109 60.8088 11.7619C61.1957 11.6775 61.5965 11.6811 61.9817 11.7724C62.367 11.8636 62.727 12.0402 63.0353 12.2892C63.3436 12.5382 63.5924 12.8533 63.7633 13.2112C63.9343 13.5692 64.0231 13.961 64.0232 14.3579Z" fill="white"/>
<path d="M29.8895 28.1343C30.7616 28.1343 31.4685 27.2737 31.4685 26.2122C31.4685 25.1506 30.7616 24.29 29.8895 24.29C29.0175 24.29 28.3105 25.1506 28.3105 26.2122C28.3105 27.2737 29.0175 28.1343 29.8895 28.1343Z" fill="white"/>
<path d="M50.7619 33.0161H52.1447L52.8026 29.4209L50.7617 29.421L50.7619 33.0161Z" fill="#FFB8B8"/>
<path d="M50.4092 32.5636L53.1323 32.5635H53.1324C53.3603 32.5635 53.586 32.6085 53.7965 32.6959C54.0071 32.7833 54.1984 32.9115 54.3595 33.073C54.5207 33.2345 54.6485 33.4263 54.7357 33.6374C54.8229 33.8485 54.8678 34.0747 54.8678 34.3031V34.3597L50.4093 34.3598L50.4092 32.5636Z" fill="#2F2E41"/>
<path d="M52.3669 31.5402C52.3508 31.5402 52.3346 31.5394 52.3184 31.5379L50.4048 31.3982C50.3274 31.391 50.2527 31.3661 50.1865 31.3254C50.1202 31.2846 50.0641 31.2292 50.0226 31.1633C49.9811 31.0975 49.9552 31.0229 49.947 30.9455C49.9388 30.868 49.9484 30.7896 49.9752 30.7165L52.5362 24.9484C52.5545 24.897 52.5619 24.8424 52.5581 24.7879C52.5543 24.7334 52.5393 24.6803 52.514 24.632C52.4888 24.5831 52.4536 24.54 52.4106 24.5057C52.3676 24.4714 52.3179 24.4467 52.2646 24.433C51.0604 24.1174 47.9706 23.2772 45.296 22.294C44.1501 21.8728 43.4283 21.2641 43.1509 20.4847C42.7851 19.4573 43.3262 18.5203 43.3495 18.481L43.3676 18.4502L45.8844 18.6795L48.6128 18.9122L54.592 22.1264C55.093 22.398 55.4736 22.8489 55.6579 23.3891C55.8423 23.9294 55.8168 24.5194 55.5867 25.0417L52.83 31.2387C52.7902 31.3284 52.7252 31.4046 52.643 31.4582C52.5608 31.5117 52.4649 31.5402 52.3669 31.5402Z" fill="#2F2E41"/>
<path d="M46.322 7.26793C47.8519 7.26793 49.0922 6.02461 49.0922 4.4909C49.0922 2.95719 47.8519 1.71387 46.322 1.71387C44.7921 1.71387 43.5519 2.95719 43.5519 4.4909C43.5519 6.02461 44.7921 7.26793 46.322 7.26793Z" fill="#FFB8B8"/>
<path d="M49.9724 33.3549H51.3552L52.0131 29.7598L49.9722 29.7599L49.9724 33.3549Z" fill="#FFB8B8"/>
<path d="M49.6197 32.9025L52.3428 32.9023H52.3429C52.5708 32.9023 52.7965 32.9473 53.007 33.0348C53.2176 33.1222 53.4089 33.2503 53.57 33.4119C53.7312 33.5734 53.859 33.7652 53.9462 33.9763C54.0334 34.1873 54.0783 34.4136 54.0783 34.642V34.6985L49.6198 34.6987L49.6197 32.9025Z" fill="#2F2E41"/>
<path d="M51.5774 31.88C51.5613 31.88 51.5451 31.8793 51.5289 31.8777L49.6153 31.738C49.5379 31.7308 49.4632 31.7059 49.397 31.6652C49.3307 31.6245 49.2746 31.5691 49.2331 31.5032C49.1916 31.4373 49.1657 31.3628 49.1575 31.2853C49.1493 31.2078 49.1589 31.1295 49.1857 31.0563L51.7467 25.2883C51.765 25.2369 51.7724 25.1822 51.7686 25.1277C51.7648 25.0733 51.7498 25.0202 51.7245 24.9718C51.6993 24.9229 51.6641 24.8799 51.6211 24.8456C51.5781 24.8113 51.5284 24.7865 51.4751 24.7729C50.2709 24.4573 47.1811 23.617 44.5065 22.6339C43.3606 22.2126 42.6388 21.6039 42.3614 20.8246C41.9956 19.7971 42.5367 18.8602 42.56 18.8208L42.5781 18.79L45.0949 19.0194L47.8233 19.252L53.8025 22.4663C54.3035 22.7379 54.6841 23.1887 54.8684 23.729C55.0528 24.2692 55.0273 24.8593 54.7971 25.3816L52.0405 31.5785C52.0007 31.6682 51.9357 31.7445 51.8535 31.798C51.7713 31.8515 51.6754 31.88 51.5774 31.88Z" fill="#2F2E41"/>
<path d="M47.1763 8.8428L44.2439 7.8252C44.2439 7.8252 42.403 9.24305 43.2874 12.7604C43.749 14.5755 43.6146 16.4914 42.9039 18.2238C42.8183 18.4381 42.7197 18.647 42.6085 18.8492C42.6085 18.8492 45.8793 22.8065 48.9245 19.8668L47.7403 14.1569C47.7403 14.1569 49.6013 10.3692 47.1763 8.8428Z" fill="white"/>
<path d="M46.6659 7.36251C46.2717 6.77091 45.9605 5.95058 46.3946 5.3877C46.8231 4.83207 47.6682 4.91393 48.3245 4.66807C49.2385 4.32563 49.7686 3.24916 49.6033 2.28511C49.4379 1.32107 48.666 0.521905 47.7463 0.194913C46.8267 -0.132079 45.7897 -0.0257335 44.8891 0.350818C43.7805 0.814357 42.8295 1.71104 42.4307 2.84691C42.0319 3.98277 42.2451 5.34659 43.0724 6.21964C43.9593 7.15565 45.3513 7.4051 46.639 7.38996" fill="#2F2E41"/>
<path d="M59.7812 14.1661C59.7083 14.0043 59.6009 13.8604 59.4665 13.7447C59.3322 13.629 59.1742 13.5442 59.0036 13.4963C58.833 13.4484 58.654 13.4386 58.4793 13.4676C58.3045 13.4965 58.1382 13.5635 57.9921 13.6639L47.2244 11.2412L47.0906 13.8793L57.7169 15.4312C57.9014 15.6661 58.1654 15.825 58.4589 15.8779C58.7525 15.9307 59.0551 15.8737 59.3096 15.7178C59.564 15.5618 59.7526 15.3178 59.8395 15.0318C59.9264 14.7458 59.9057 14.4378 59.7812 14.1661Z" fill="#FFB8B8"/>
<path d="M49.1123 11.4838L48.4551 14.1544C48.4364 14.2304 48.4016 14.3015 48.353 14.3627C48.3045 14.424 48.2433 14.4741 48.1737 14.5095C48.1041 14.545 48.0277 14.565 47.9497 14.5681C47.8717 14.5713 47.7939 14.5576 47.7217 14.5279L45.1905 13.488C44.803 13.3901 44.4701 13.1421 44.2648 12.7984C44.0595 12.4547 43.9986 12.0434 44.0954 11.6547C44.1923 11.2661 44.439 10.9318 44.7814 10.7253C45.1238 10.5188 45.5339 10.4569 45.9218 10.5531L48.6363 10.8112C48.714 10.8186 48.7893 10.8427 48.8568 10.8819C48.9244 10.9211 48.9828 10.9744 49.028 11.0382C49.0731 11.1021 49.1041 11.1749 49.1186 11.2518C49.1332 11.3287 49.131 11.4078 49.1123 11.4838V11.4838Z" fill="white"/>
<path d="M58.5373 16.2626C58.9733 16.2626 59.3268 15.9083 59.3268 15.4712C59.3268 15.034 58.9733 14.6797 58.5373 14.6797C58.1013 14.6797 57.7478 15.034 57.7478 15.4712C57.7478 15.9083 58.1013 16.2626 58.5373 16.2626Z" fill="white"/>
<path d="M7 37.0938V26.8519C7 25.8308 7.82261 25 8.8338 25H15.4682C16.4794 25 17.302 25.8308 17.302 26.8519V37.0938C17.302 38.115 16.4794 38.9457 15.4682 38.9457H8.8338C7.82261 38.9457 7 38.115 7 37.0938Z" fill="white"/>
<path d="M10.3974 29.4277H13.9045V28.5423H10.3974V29.4277Z" fill="#3F3D56"/>
<path d="M11.2742 27.8779H13.0278V25.0002H11.2742V27.8779Z" fill="#3F3D56"/>
<path d="M11.2742 38.9453H13.0278V36.0676H11.2742V38.9453Z" fill="#3F3D56"/>
<path d="M2 22.0938V11.8519C2 10.8308 2.82261 10 3.8338 10H10.4682C11.4794 10 12.302 10.8308 12.302 11.8519V22.0938C12.302 23.115 11.4794 23.9457 10.4682 23.9457H3.8338C2.82261 23.9457 2 23.115 2 22.0938Z" fill="white"/>
<path d="M5.39744 14.4277H8.9045V13.5423H5.39744V14.4277Z" fill="#3F3D56"/>
<path d="M6.27423 12.8779H8.02776V10.0002H6.27423V12.8779Z" fill="#3F3D56"/>
<path d="M6.27423 23.9453H8.02776V21.0676H6.27423V23.9453Z" fill="#3F3D56"/>
</g>
<defs>
<clipPath id="clip0_1165_2824">
<rect width="93.5" height="41.25" fill="white"/>
</clipPath>
</defs>
</svg>
