<svg width="51" height="51" viewBox="0 0 51 51" fill="none" xmlns="http://www.w3.org/2000/svg">
<rect x="0.46875" y="0.0991211" width="50.2031" height="50.2031" rx="25.1016" fill="#EBEBEB"/>
<path d="M31.1429 16.2758H19.9866C15.7138 16.2758 14.5201 17.3021 14.4197 21.2961C16.5728 21.2961 18.3132 23.0476 18.3132 25.2008C18.3132 27.3539 16.5728 29.0943 14.4197 29.1054C14.5201 33.0994 15.7138 34.1258 19.9866 34.1258H31.1429C35.6054 34.1258 36.721 33.0101 36.721 28.5476V21.8539C36.721 17.3914 35.6054 16.2758 31.1429 16.2758Z" stroke="black" stroke-width="2.0918" stroke-linecap="round" stroke-linejoin="round"/>
<path d="M22.2158 16.2758V20.1804" stroke="black" stroke-width="2.0918" stroke-linecap="round" stroke-linejoin="round"/>
<path d="M22.2158 30.2211V34.1258" stroke="black" stroke-width="2.0918" stroke-linecap="round" stroke-linejoin="round"/>
<path d="M28.945 22.222L29.6367 23.6166C29.7036 23.7504 29.8375 23.8508 29.9825 23.8732L31.5221 24.0963C31.9014 24.1521 32.0576 24.6206 31.7787 24.8884L30.6631 25.9705C30.5515 26.0709 30.5069 26.2271 30.5292 26.3833L30.7969 27.9117C30.8639 28.291 30.4622 28.5811 30.1276 28.4026L28.7553 27.6774C28.6215 27.6105 28.4541 27.6105 28.3202 27.6774L26.948 28.4026C26.6022 28.5811 26.2117 28.291 26.2787 27.9117L26.5464 26.3833C26.5687 26.2271 26.5241 26.0821 26.4125 25.9705L25.3081 24.8884C25.0292 24.6206 25.1853 24.1521 25.5647 24.0963L27.1042 23.8732C27.2604 23.8508 27.3831 23.7616 27.4501 23.6166L28.1306 22.222C28.2868 21.8762 28.7777 21.8762 28.945 22.222Z" stroke="black" stroke-width="2.0918" stroke-linecap="round" stroke-linejoin="round"/>
</svg>
