<svg width="251" height="158" viewBox="0 0 251 158" fill="none" xmlns="http://www.w3.org/2000/svg">
<g clip-path="url(#clip0_23_867)">
<path d="M250.699 65.1771H250.276V53.5952C250.276 52.7149 250.103 51.8432 249.766 51.0299C249.429 50.2166 248.935 49.4777 248.313 48.8552C247.69 48.2328 246.951 47.739 246.138 47.4021C245.325 47.0653 244.453 46.8919 243.573 46.8919H219.036C218.155 46.8919 217.284 47.0653 216.471 47.4021C215.657 47.739 214.918 48.2328 214.296 48.8552C213.673 49.4777 213.18 50.2166 212.843 51.0299C212.506 51.8432 212.333 52.7149 212.333 53.5952V117.134C212.333 118.015 212.506 118.886 212.843 119.7C213.18 120.513 213.673 121.252 214.296 121.874C214.918 122.497 215.657 122.99 216.471 123.327C217.284 123.664 218.155 123.838 219.036 123.838H243.573C244.453 123.838 245.325 123.664 246.138 123.327C246.951 122.99 247.69 122.497 248.313 121.874C248.935 121.252 249.429 120.513 249.766 119.7C250.103 118.886 250.276 118.015 250.276 117.134V73.4212H250.699V65.1771Z" fill="#3F3D56"/>
<path d="M248.85 53.9889V117.436C248.85 118.764 248.322 120.037 247.383 120.976C246.444 121.915 245.171 122.442 243.843 122.442H219.188C218.531 122.442 217.88 122.313 217.272 122.061C216.665 121.809 216.113 121.441 215.649 120.976C215.184 120.511 214.815 119.959 214.564 119.351C214.313 118.744 214.183 118.093 214.184 117.436V53.9889C214.184 52.6617 214.711 51.3888 215.649 50.4503C216.588 49.5118 217.861 48.9845 219.188 48.9845H222.179C222.032 49.3456 221.976 49.7372 222.017 50.125C222.057 50.5127 222.191 50.8846 222.409 51.2081C222.626 51.5316 222.92 51.7967 223.264 51.9802C223.608 52.1636 223.991 52.2597 224.381 52.2601H238.439C238.829 52.2609 239.213 52.1655 239.558 51.9823C239.902 51.7992 240.196 51.534 240.414 51.2102C240.632 50.8864 240.766 50.5139 240.806 50.1257C240.845 49.7375 240.788 49.3456 240.64 48.9845H243.843C245.171 48.9845 246.444 49.5116 247.383 50.4501C248.322 51.3885 248.849 52.6615 248.85 53.9889Z" fill="#D0CDE1"/>
<path d="M244.182 81.4677H215.521V89.2017H244.182V81.4677Z" fill="#E4A90D"/>
<path d="M245.319 87.8369H217.568C217.387 87.8367 217.214 87.7648 217.086 87.6368C216.958 87.5089 216.886 87.3355 216.886 87.1545V80.3303C216.886 80.1494 216.958 79.9759 217.086 79.848C217.214 79.7201 217.387 79.6481 217.568 79.6479H245.319C245.5 79.6481 245.674 79.7201 245.802 79.848C245.93 79.9759 246.001 80.1494 246.002 80.3303V87.1545C246.001 87.3355 245.93 87.5089 245.802 87.6368C245.674 87.7648 245.5 87.8367 245.319 87.8369ZM217.568 80.1029C217.508 80.1029 217.45 80.1269 217.407 80.1696C217.365 80.2122 217.341 80.27 217.341 80.3303V87.1545C217.341 87.2148 217.365 87.2727 217.407 87.3153C217.45 87.358 217.508 87.382 217.568 87.382H245.319C245.38 87.382 245.437 87.358 245.48 87.3153C245.523 87.2727 245.547 87.2148 245.547 87.1545V80.3303C245.547 80.27 245.523 80.2122 245.48 80.1696C245.437 80.1269 245.38 80.1029 245.319 80.1029H217.568Z" fill="#3F3D56"/>
<path d="M222.345 85.7897H218.706V86.2446H222.345V85.7897Z" fill="#3F3D56"/>
<path d="M227.349 85.7897H223.71V86.2446H227.349V85.7897Z" fill="#3F3D56"/>
<path d="M232.354 85.7897H228.714V86.2446H232.354V85.7897Z" fill="#3F3D56"/>
<path d="M237.358 85.7897H233.719V86.2446H237.358V85.7897Z" fill="#3F3D56"/>
<path d="M242.362 85.7897H238.723V86.2446H242.362V85.7897Z" fill="#3F3D56"/>
<path opacity="0.1" d="M248.85 110.985V117.436C248.85 118.764 248.322 120.037 247.383 120.976C246.444 121.915 245.171 122.442 243.843 122.442H219.188C218.531 122.442 217.88 122.313 217.272 122.061C216.665 121.809 216.113 121.441 215.649 120.976C215.184 120.511 214.815 119.959 214.564 119.351C214.313 118.744 214.183 118.093 214.184 117.436V87.7596L248.85 110.985Z" fill="black"/>
<path d="M130.675 105.125H23.0826V157.899H130.675V105.125Z" fill="#D0CDE1"/>
<path opacity="0.1" d="M103.322 157.899H23.5376C23.417 157.898 23.3015 157.85 23.2163 157.765C23.131 157.68 23.083 157.564 23.0826 157.444V105.58C23.083 105.459 23.131 105.344 23.2163 105.258C23.3015 105.173 23.417 105.125 23.5376 105.125H24.5475L103.322 157.899Z" fill="black"/>
<path d="M239.633 112.177H72.8983V112.632H239.633V112.177Z" fill="#3F3D56"/>
<path d="M125.612 1.53622H77.9599V0.554047H56.3524V1.53622H8.50372C8.08042 1.53622 7.66127 1.6196 7.2702 1.78159C6.87913 1.94358 6.5238 2.18101 6.22448 2.48033C5.92517 2.77964 5.68774 3.13499 5.52575 3.52607C5.36377 3.91714 5.2804 4.3363 5.2804 4.7596V70.0115C5.28039 70.8664 5.61999 71.6863 6.22448 72.2908C6.82897 72.8953 7.64884 73.2349 8.50372 73.2349H125.612C126.467 73.2349 127.287 72.8953 127.891 72.2908C128.496 71.6863 128.835 70.8664 128.835 70.0115V4.7596C128.835 4.3363 128.752 3.91714 128.59 3.52607C128.428 3.13499 128.191 2.77964 127.891 2.48033C127.592 2.18101 127.237 1.94358 126.846 1.78159C126.455 1.6196 126.035 1.53622 125.612 1.53622Z" fill="#3F3D56"/>
<path d="M124.513 7.23193H9.60291V72.0572H124.513V7.23193Z" fill="#D0CDE1"/>
<path d="M66.9596 5.46495C67.6105 5.46495 68.1382 4.93726 68.1382 4.28634C68.1382 3.63541 67.6105 3.10773 66.9596 3.10773C66.3087 3.10773 65.781 3.63541 65.781 4.28634C65.781 4.93726 66.3087 5.46495 66.9596 5.46495Z" fill="#E4A90D"/>
<path d="M43.7823 31.4237H41.0526C40.8717 31.4235 40.6983 31.3515 40.5703 31.2236C40.4424 31.0956 40.3704 30.9222 40.3702 30.7412V28.0116C40.3704 27.8306 40.4424 27.6572 40.5703 27.5292C40.6983 27.4013 40.8717 27.3293 41.0526 27.3291H43.7823C43.9632 27.3293 44.1366 27.4013 44.2646 27.5292C44.3925 27.6572 44.4645 27.8306 44.4647 28.0116V30.7412C44.4645 30.9222 44.3925 31.0956 44.2646 31.2236C44.1366 31.3515 43.9632 31.4235 43.7823 31.4237ZM41.0526 27.7841C40.9923 27.7842 40.9345 27.8082 40.8919 27.8508C40.8492 27.8934 40.8253 27.9513 40.8252 28.0116V30.7412C40.8253 30.8015 40.8492 30.8594 40.8919 30.902C40.9345 30.9446 40.9923 30.9686 41.0526 30.9687H43.7823C43.8426 30.9686 43.9004 30.9446 43.943 30.902C43.9857 30.8594 44.0097 30.8015 44.0097 30.7412V28.0116C44.0097 27.9513 43.9857 27.8934 43.943 27.8508C43.9004 27.8082 43.8426 27.7842 43.7823 27.7841H41.0526Z" fill="#3F3D56"/>
<path d="M92.4605 30.9688H40.5977V31.4237H92.4605V30.9688Z" fill="#3F3D56"/>
<path d="M91.0959 43.4797H79.04V47.1193H91.0959V43.4797Z" fill="#E4A90D"/>
<path d="M92.0056 46.2094H80.8597C80.6787 46.2092 80.5053 46.1373 80.3773 46.0093C80.2494 45.8814 80.1774 45.708 80.1772 45.527V42.7973C80.1774 42.6164 80.2494 42.443 80.3773 42.315C80.5053 42.1871 80.6787 42.1151 80.8597 42.1149H92.0056C92.1865 42.1151 92.36 42.1871 92.4879 42.315C92.6159 42.443 92.6878 42.6164 92.688 42.7973V45.527C92.6878 45.708 92.6159 45.8814 92.4879 46.0093C92.36 46.1373 92.1865 46.2092 92.0056 46.2094ZM80.8597 42.5699C80.7993 42.57 80.7415 42.5939 80.6989 42.6366C80.6563 42.6792 80.6323 42.737 80.6322 42.7973V45.527C80.6323 45.5873 80.6563 45.6451 80.6989 45.6878C80.7415 45.7304 80.7993 45.7544 80.8597 45.7545H92.0056C92.0659 45.7544 92.1237 45.7304 92.1664 45.6878C92.209 45.6451 92.233 45.5873 92.2331 45.527V42.7973C92.233 42.737 92.209 42.6792 92.1664 42.6366C92.1237 42.5939 92.0659 42.57 92.0056 42.5699H80.8597Z" fill="#3F3D56"/>
<path d="M183.221 47.5743H160.474V63.4974H183.221V47.5743Z" fill="#E4A90D"/>
<path d="M185.495 62.2462H163.658C163.417 62.246 163.186 62.15 163.015 61.9794C162.844 61.8089 162.749 61.5776 162.748 61.3363V46.3231C162.749 46.0819 162.844 45.8506 163.015 45.68C163.186 45.5094 163.417 45.4135 163.658 45.4132H185.495C185.736 45.4135 185.968 45.5094 186.138 45.68C186.309 45.8506 186.405 46.0819 186.405 46.3231V61.3363C186.405 61.5776 186.309 61.8089 186.138 61.9794C185.968 62.15 185.736 62.246 185.495 62.2462ZM163.658 46.3231V61.3363H185.496L185.495 46.3231H163.658Z" fill="#3F3D56"/>
<path d="M182.993 45.7545H182.083C182.083 43.7636 181.292 41.8543 179.884 40.4465C178.477 39.0387 176.567 38.2479 174.576 38.2479C172.586 38.2479 170.676 39.0387 169.269 40.4465C167.861 41.8543 167.07 43.7636 167.07 45.7545H166.16C166.16 43.5223 167.047 41.3815 168.625 39.8031C170.204 38.2247 172.344 37.338 174.576 37.338C176.809 37.338 178.949 38.2247 180.528 39.8031C182.106 41.3815 182.993 43.5223 182.993 45.7545Z" fill="#3F3D56"/>
<path d="M176.851 52.01C176.852 51.6139 176.749 51.2245 176.553 50.8804C176.356 50.5363 176.074 50.2494 175.733 50.0481C175.391 49.8469 175.004 49.7382 174.608 49.7328C174.212 49.7274 173.821 49.8256 173.474 50.0175C173.128 50.2095 172.838 50.4886 172.632 50.8272C172.427 51.1658 172.313 51.5523 172.303 51.9482C172.292 52.3442 172.386 52.736 172.573 53.0849C172.761 53.4337 173.036 53.7276 173.373 53.9372V56.3788C173.373 56.5369 173.404 56.6935 173.464 56.8396C173.525 56.9857 173.613 57.1185 173.725 57.2303C173.837 57.3422 173.97 57.4309 174.116 57.4914C174.262 57.5519 174.419 57.5831 174.577 57.5831C174.896 57.5831 175.202 57.4562 175.428 57.2303C175.654 57.0045 175.781 56.6982 175.781 56.3788V53.9372C176.108 53.7334 176.379 53.4494 176.566 53.1122C176.753 52.775 176.851 52.3957 176.851 52.01Z" fill="#3F3D56"/>
<path d="M68.69 128.555H65.0505V129.01H68.69V128.555Z" fill="#3F3D56"/>
<path d="M73.6944 128.555H70.0549V129.01H73.6944V128.555Z" fill="#3F3D56"/>
<path d="M78.6988 128.555H75.0593V129.01H78.6988V128.555Z" fill="#3F3D56"/>
<path d="M83.7031 128.555H80.0636V129.01H83.7031V128.555Z" fill="#3F3D56"/>
<path d="M88.7074 128.555H85.0679V129.01H88.7074V128.555Z" fill="#3F3D56"/>
<path d="M135.452 154.032H28.7694C28.5281 154.031 28.2969 153.935 28.1263 153.765C27.9557 153.594 27.8598 153.363 27.8595 153.122V101.258C27.8598 101.017 27.9557 100.785 28.1263 100.615C28.2969 100.444 28.5281 100.348 28.7694 100.348H135.452C135.693 100.348 135.925 100.444 136.095 100.615C136.266 100.785 136.362 101.017 136.362 101.258V153.122C136.362 153.363 136.266 153.594 136.095 153.765C135.925 153.935 135.693 154.031 135.452 154.032ZM28.7694 101.258V153.122H135.453L135.452 101.258H28.7694Z" fill="#3F3D56"/>
<path d="M33.5463 108.992C34.3001 108.992 34.9111 108.381 34.9111 107.627C34.9111 106.873 34.3001 106.262 33.5463 106.262C32.7926 106.262 32.1815 106.873 32.1815 107.627C32.1815 108.381 32.7926 108.992 33.5463 108.992Z" fill="#3F3D56"/>
<path d="M38.3232 108.992C39.0769 108.992 39.688 108.381 39.688 107.627C39.688 106.873 39.0769 106.262 38.3232 106.262C37.5694 106.262 36.9584 106.873 36.9584 107.627C36.9584 108.381 37.5694 108.992 38.3232 108.992Z" fill="#3F3D56"/>
<path d="M43.0998 108.992C43.8536 108.992 44.4646 108.381 44.4646 107.627C44.4646 106.873 43.8536 106.262 43.0998 106.262C42.346 106.262 41.735 106.873 41.735 107.627C41.735 108.381 42.346 108.992 43.0998 108.992Z" fill="#3F3D56"/>
<path d="M92.2332 131.739H61.5249C61.344 131.739 61.1706 131.667 61.0426 131.539C60.9147 131.411 60.8427 131.238 60.8425 131.057V123.323C60.8427 123.142 60.9147 122.968 61.0426 122.84C61.1706 122.712 61.344 122.64 61.5249 122.64H92.2332C92.4141 122.64 92.5876 122.712 92.7155 122.84C92.8434 122.968 92.9154 123.142 92.9156 123.323V131.057C92.9154 131.238 92.8434 131.411 92.7155 131.539C92.5876 131.667 92.4141 131.739 92.2332 131.739ZM61.5249 123.095C61.4646 123.095 61.4068 123.119 61.3642 123.162C61.3215 123.205 61.2975 123.262 61.2975 123.323V131.057C61.2975 131.117 61.3215 131.175 61.3642 131.218C61.4068 131.26 61.4646 131.284 61.5249 131.284H92.2332C92.2935 131.284 92.3513 131.26 92.3939 131.218C92.4366 131.175 92.4606 131.117 92.4606 131.057V123.323C92.4606 123.262 92.4366 123.205 92.3939 123.162C92.3513 123.119 92.2935 123.095 92.2332 123.095H61.5249Z" fill="#3F3D56"/>
<path d="M99.967 131.967C102.228 131.967 104.061 130.134 104.061 127.872C104.061 125.611 102.228 123.778 99.967 123.778C97.7057 123.778 95.8726 125.611 95.8726 127.872C95.8726 130.134 97.7057 131.967 99.967 131.967Z" fill="#E4A90D"/>
<path d="M101.332 131.512C100.477 131.512 99.6415 131.258 98.9308 130.783C98.2201 130.308 97.6661 129.633 97.339 128.844C97.0119 128.054 96.9263 127.185 97.0931 126.347C97.2598 125.508 97.6714 124.738 98.2759 124.134C98.8803 123.529 99.6504 123.118 100.489 122.951C101.327 122.784 102.196 122.87 102.986 123.197C103.776 123.524 104.451 124.078 104.925 124.789C105.4 125.499 105.654 126.335 105.654 127.19C105.653 128.336 105.197 129.434 104.387 130.244C103.576 131.055 102.478 131.51 101.332 131.512ZM101.332 123.323C100.567 123.323 99.8195 123.549 99.1835 123.974C98.5476 124.399 98.052 125.003 97.7593 125.71C97.4666 126.416 97.39 127.194 97.5393 127.944C97.6885 128.694 98.0567 129.383 98.5976 129.924C99.1384 130.465 99.8274 130.833 100.578 130.982C101.328 131.132 102.105 131.055 102.812 130.762C103.518 130.47 104.122 129.974 104.547 129.338C104.972 128.702 105.199 127.955 105.199 127.19C105.198 126.164 104.79 125.182 104.065 124.457C103.34 123.732 102.357 123.324 101.332 123.323Z" fill="#3F3D56"/>
<path d="M101.392 128.804L99.1903 126.602L99.8336 125.958L101.271 127.395L105.282 121.696L106.026 122.22L101.392 128.804Z" fill="#3F3D56"/>
<path opacity="0.1" d="M99.0367 72.0572H9.60291V12.1431L99.0367 72.0572Z" fill="black"/>
<path d="M132.062 70.8778H120.847V70.0697C120.847 70.0487 120.843 70.0279 120.835 70.0084C120.827 69.989 120.815 69.9713 120.8 69.9564C120.785 69.9416 120.768 69.9298 120.748 69.9217C120.729 69.9137 120.708 69.9095 120.687 69.9095H116.842C116.821 69.9095 116.8 69.9137 116.781 69.9217C116.761 69.9298 116.744 69.9416 116.729 69.9564C116.714 69.9713 116.702 69.989 116.694 70.0084C116.686 70.0279 116.682 70.0487 116.682 70.0697V70.8778H114.279V70.0697C114.279 70.0487 114.275 70.0279 114.267 70.0084C114.258 69.989 114.247 69.9713 114.232 69.9564C114.217 69.9416 114.199 69.9298 114.18 69.9217C114.16 69.9137 114.14 69.9095 114.118 69.9095H110.273C110.252 69.9095 110.232 69.9137 110.212 69.9217C110.193 69.9298 110.175 69.9416 110.16 69.9564C110.145 69.9713 110.133 69.989 110.125 70.0084C110.117 70.0279 110.113 70.0487 110.113 70.0697V70.8778H107.71V70.0697C107.71 70.0487 107.706 70.0279 107.698 70.0084C107.69 69.989 107.678 69.9713 107.663 69.9564C107.648 69.9416 107.631 69.9298 107.611 69.9217C107.592 69.9137 107.571 69.9095 107.55 69.9095H103.705C103.684 69.9095 103.663 69.9137 103.644 69.9217C103.624 69.9298 103.606 69.9416 103.592 69.9564C103.577 69.9713 103.565 69.989 103.557 70.0084C103.549 70.0279 103.545 70.0487 103.545 70.0697V70.8778H101.142V70.0697C101.142 70.0487 101.137 70.0279 101.129 70.0084C101.121 69.989 101.109 69.9713 101.095 69.9564C101.08 69.9416 101.062 69.9298 101.043 69.9217C101.023 69.9137 101.002 69.9095 100.981 69.9095H97.1363C97.1152 69.9095 97.0944 69.9137 97.075 69.9217C97.0555 69.9298 97.0379 69.9416 97.023 69.9564C97.0081 69.9713 96.9963 69.989 96.9883 70.0084C96.9802 70.0279 96.9761 70.0487 96.9761 70.0697V70.8778H94.5729V70.0697C94.5729 70.0487 94.5688 70.0279 94.5607 70.0084C94.5527 69.989 94.5409 69.9713 94.526 69.9564C94.5111 69.9416 94.4935 69.9298 94.474 69.9217C94.4546 69.9137 94.4337 69.9095 94.4127 69.9095H90.5677C90.5466 69.9095 90.5258 69.9137 90.5064 69.9217C90.4869 69.9298 90.4693 69.9416 90.4544 69.9564C90.4395 69.9713 90.4277 69.989 90.4197 70.0084C90.4116 70.0279 90.4075 70.0487 90.4075 70.0697V70.8778H88.0043V70.0697C88.0043 70.0487 88.0002 70.0279 87.9921 70.0084C87.9841 69.989 87.9723 69.9713 87.9574 69.9564C87.9425 69.9416 87.9249 69.9298 87.9054 69.9217C87.886 69.9137 87.8652 69.9095 87.8441 69.9095H83.9991C83.978 69.9095 83.9572 69.9137 83.9378 69.9217C83.9183 69.9298 83.9007 69.9416 83.8858 69.9564C83.8709 69.9713 83.8591 69.989 83.8511 70.0084C83.843 70.0279 83.8389 70.0487 83.8389 70.0697V70.8778H81.4357V70.0697C81.4357 70.0487 81.4316 70.0279 81.4235 70.0084C81.4155 69.989 81.4037 69.9713 81.3888 69.9564C81.3739 69.9416 81.3563 69.9298 81.3368 69.9217C81.3174 69.9137 81.2966 69.9095 81.2755 69.9095H51.1561C51.1351 69.9095 51.1142 69.9137 51.0948 69.9217C51.0753 69.9298 51.0577 69.9416 51.0428 69.9564C51.0279 69.9713 51.0161 69.989 51.0081 70.0084C51 70.0279 50.9959 70.0487 50.9959 70.0697V70.8778H48.5927V70.0697C48.5927 70.0487 48.5886 70.0279 48.5805 70.0084C48.5725 69.989 48.5607 69.9713 48.5458 69.9564C48.5309 69.9416 48.5133 69.9298 48.4938 69.9217C48.4744 69.9137 48.4536 69.9095 48.4325 69.9095H44.5875C44.5665 69.9095 44.5456 69.9137 44.5262 69.9217C44.5067 69.9298 44.4891 69.9416 44.4742 69.9564C44.4593 69.9713 44.4475 69.989 44.4395 70.0084C44.4314 70.0279 44.4273 70.0487 44.4273 70.0697V70.8778H42.0241V70.0697C42.0241 70.0487 42.02 70.0279 42.0119 70.0084C42.0039 69.989 41.9921 69.9713 41.9772 69.9564C41.9623 69.9416 41.9447 69.9298 41.9252 69.9217C41.9058 69.9137 41.885 69.9095 41.8639 69.9095H38.0189C37.9979 69.9095 37.977 69.9137 37.9576 69.9217C37.9382 69.9298 37.9205 69.9416 37.9056 69.9564C37.8907 69.9713 37.8789 69.989 37.8709 70.0084C37.8628 70.0279 37.8587 70.0487 37.8587 70.0697V70.8778H35.4555V70.0697C35.4555 70.0487 35.4514 70.0279 35.4434 70.0084C35.4353 69.989 35.4235 69.9713 35.4086 69.9564C35.3937 69.9416 35.3761 69.9298 35.3566 69.9217C35.3372 69.9137 35.3164 69.9095 35.2953 69.9095H31.4503C31.4293 69.9095 31.4084 69.9137 31.389 69.9217C31.3696 69.9298 31.3519 69.9416 31.337 69.9564C31.3221 69.9713 31.3103 69.989 31.3023 70.0084C31.2942 70.0279 31.2901 70.0487 31.2901 70.0697V70.8778H28.8869V70.0697C28.8869 70.0487 28.8828 70.0279 28.8748 70.0084C28.8667 69.989 28.8549 69.9713 28.84 69.9564C28.8251 69.9416 28.8075 69.9298 28.788 69.9217C28.7686 69.9137 28.7478 69.9095 28.7267 69.9095H24.8817C24.8607 69.9095 24.8398 69.9137 24.8204 69.9217C24.801 69.9298 24.7833 69.9416 24.7684 69.9564C24.7535 69.9713 24.7417 69.989 24.7337 70.0084C24.7256 70.0279 24.7215 70.0487 24.7215 70.0697V70.8778H22.3184V70.0697C22.3184 70.0487 22.3142 70.0279 22.3062 70.0084C22.2981 69.989 22.2863 69.9713 22.2714 69.9564C22.2566 69.9416 22.2389 69.9298 22.2195 69.9217C22.2 69.9137 22.1792 69.9095 22.1582 69.9095H18.3131C18.2921 69.9095 18.2712 69.9137 18.2518 69.9217C18.2324 69.9298 18.2147 69.9416 18.1998 69.9564C18.1849 69.9713 18.1731 69.989 18.1651 70.0084C18.157 70.0279 18.1529 70.0487 18.1529 70.0697V70.8778H15.7498V70.0697C15.7498 70.0487 15.7456 70.0279 15.7376 70.0084C15.7295 69.989 15.7177 69.9713 15.7028 69.9564C15.688 69.9416 15.6703 69.9298 15.6509 69.9217C15.6314 69.9137 15.6106 69.9095 15.5895 69.9095H11.7445C11.7235 69.9095 11.7026 69.9137 11.6832 69.9217C11.6638 69.9298 11.6461 69.9416 11.6312 69.9564C11.6164 69.9713 11.6046 69.989 11.5965 70.0084C11.5884 70.0279 11.5843 70.0487 11.5843 70.0697V70.8778H4.21466C3.70972 70.8778 3.20973 70.9772 2.74323 71.1704C2.27673 71.3637 1.85286 71.6469 1.49581 72.004C1.13877 72.361 0.855544 72.7849 0.662314 73.2514C0.469083 73.7179 0.369629 74.2179 0.369629 74.7229V76.4615C0.369631 77.4813 0.774733 78.4593 1.49582 79.1804C2.2169 79.9015 3.1949 80.3066 4.21466 80.3066H132.062C132.567 80.3066 133.067 80.2072 133.533 80.0139C134 79.8207 134.424 79.5375 134.781 79.1804C135.138 78.8234 135.421 78.3995 135.614 77.933C135.808 77.4665 135.907 76.9665 135.907 76.4615V74.7229C135.907 74.2179 135.808 73.7179 135.614 73.2514C135.421 72.7849 135.138 72.361 134.781 72.004C134.424 71.6469 134 71.3637 133.533 71.1704C133.067 70.9772 132.567 70.8778 132.062 70.8778Z" fill="#3F3D56"/>
<path d="M97.0101 50.0765H36.9584C36.7775 50.0763 36.604 50.0043 36.4761 49.8764C36.3482 49.7485 36.2762 49.575 36.276 49.3941V24.3721C36.2762 24.1911 36.3482 24.0177 36.4761 23.8897C36.604 23.7618 36.7775 23.6898 36.9584 23.6896H97.0101C97.191 23.6898 97.3645 23.7618 97.4924 23.8897C97.6203 24.0177 97.6923 24.1911 97.6925 24.3721V49.3941C97.6923 49.575 97.6203 49.7485 97.4924 49.8764C97.3645 50.0043 97.191 50.0763 97.0101 50.0765ZM36.9584 24.1446C36.8981 24.1447 36.8403 24.1687 36.7976 24.2113C36.755 24.2539 36.731 24.3117 36.7309 24.3721V49.3941C36.731 49.4544 36.755 49.5122 36.7976 49.5548C36.8403 49.5975 36.8981 49.6215 36.9584 49.6215H97.0101C97.0704 49.6215 97.1282 49.5975 97.1708 49.5548C97.2135 49.5122 97.2375 49.4544 97.2375 49.3941V24.3721C97.2375 24.3117 97.2135 24.2539 97.1708 24.2113C97.1282 24.1687 97.0704 24.1447 97.0101 24.1446H36.9584Z" fill="#3F3D56"/>
<path d="M43.7823 38.2478H41.0526C40.8717 38.2476 40.6983 38.1757 40.5703 38.0477C40.4424 37.9198 40.3704 37.7463 40.3702 37.5654V34.8357C40.3704 34.6548 40.4424 34.4813 40.5703 34.3534C40.6983 34.2255 40.8717 34.1535 41.0526 34.1533H43.7823C43.9632 34.1535 44.1366 34.2255 44.2646 34.3534C44.3925 34.4813 44.4645 34.6548 44.4647 34.8357V37.5654C44.4645 37.7463 44.3925 37.9198 44.2646 38.0477C44.1366 38.1757 43.9632 38.2476 43.7823 38.2478ZM41.0526 34.6083C40.9923 34.6083 40.9345 34.6323 40.8919 34.675C40.8492 34.7176 40.8253 34.7754 40.8252 34.8357V37.5654C40.8253 37.6257 40.8492 37.6835 40.8919 37.7262C40.9345 37.7688 40.9923 37.7928 41.0526 37.7929H43.7823C43.8426 37.7928 43.9004 37.7688 43.943 37.7262C43.9857 37.6835 44.0097 37.6257 44.0097 37.5654V34.8357C44.0097 34.7754 43.9857 34.7176 43.943 34.675C43.9004 34.6323 43.8426 34.6083 43.7823 34.6083H41.0526Z" fill="#3F3D56"/>
<path d="M92.4605 37.7929H40.5977V38.2479H92.4605V37.7929Z" fill="#3F3D56"/>
<path d="M227.349 61.905H60.6149V62.36H227.349V61.905Z" fill="#3F3D56"/>
<path d="M60.615 65.0897C62.3738 65.0897 63.7995 63.6639 63.7995 61.9051C63.7995 60.1463 62.3738 58.7205 60.615 58.7205C58.8562 58.7205 57.4304 60.1463 57.4304 61.9051C57.4304 63.6639 58.8562 65.0897 60.615 65.0897Z" fill="#3F3D56"/>
<path d="M227.35 64.8622C228.731 64.8622 229.852 63.7419 229.852 62.36C229.852 60.9781 228.731 59.8578 227.35 59.8578C225.968 59.8578 224.847 60.9781 224.847 62.36C224.847 63.7419 225.968 64.8622 227.35 64.8622Z" fill="#3F3D56"/>
<path d="M239.633 115.134C241.014 115.134 242.135 114.013 242.135 112.631C242.135 111.25 241.014 110.129 239.633 110.129C238.251 110.129 237.13 111.25 237.13 112.631C237.13 114.013 238.251 115.134 239.633 115.134Z" fill="#3F3D56"/>
<path d="M73.5805 115.134C74.9624 115.134 76.0827 114.013 76.0827 112.631C76.0827 111.25 74.9624 110.129 73.5805 110.129C72.1986 110.129 71.0784 111.25 71.0784 112.631C71.0784 114.013 72.1986 115.134 73.5805 115.134Z" fill="#3F3D56"/>
</g>
<defs>
<clipPath id="clip0_23_867">
<rect width="250.329" height="157.345" fill="white" transform="translate(0.369507 0.554077)"/>
</clipPath>
</defs>
</svg>
