<svg width="24" height="25" viewBox="0 0 24 25" fill="none" xmlns="http://www.w3.org/2000/svg">
<g id="Frame 478">
<path id="Vector" d="M18.4965 4.31445H4.6413C4.17602 4.31445 3.77966 4.71081 3.77966 5.19333V6.76151C3.77966 7.24403 4.17602 7.64039 4.6413 7.64039H18.4965C18.979 7.64039 19.3581 7.24403 19.3754 6.76151V5.21056C19.3754 4.71081 18.979 4.31445 18.4965 4.31445ZM18.4965 13.017H4.6413C4.41728 13.017 4.19325 13.1032 4.03816 13.2755C3.86583 13.4478 3.77966 13.6546 3.77966 13.8959V15.4641C3.77966 15.9466 4.17602 16.343 4.6413 16.343H18.4965C18.979 16.343 19.3581 15.9638 19.3754 15.4641V13.8959C19.3581 13.3961 18.979 13.017 18.4965 13.017ZM12.4478 17.3597H4.6413C4.41728 17.3597 4.19325 17.4459 4.03816 17.6182C3.88306 17.7905 3.77966 17.9973 3.77966 18.2386V19.8068C3.77966 20.2893 4.17602 20.6856 4.6413 20.6856H12.4305C12.9131 20.6856 13.2922 20.2893 13.2922 19.824V18.2558C13.3094 17.7388 12.9303 17.3425 12.4478 17.3597ZM19.3754 8.65712H4.6413C4.41728 8.65712 4.19325 8.74328 4.03816 8.91561C3.88306 9.08794 3.77966 9.29474 3.77966 9.536V11.1042C3.77966 11.5867 4.17602 11.9831 4.6413 11.9831H19.3581C19.8406 11.9831 20.2198 11.5867 20.2198 11.1042V9.536C20.237 9.05348 19.8406 8.67435 19.3754 8.65712Z" fill="#00C3F7"/>
</g>
</svg>
