<svg width="48" height="48" viewBox="0 0 48 48" fill="none" xmlns="http://www.w3.org/2000/svg">
<rect x="0.46875" y="0.559387" width="47.4281" height="47.4281" rx="23.7141" fill="#EBEBEB"/>
<path d="M24.1829 25.0234C21.0129 25.0234 18.4329 22.4434 18.4329 19.2734C18.4329 16.1034 21.0129 13.5234 24.1829 13.5234C27.3529 13.5234 29.9329 16.1034 29.9329 19.2734C29.9329 22.4434 27.3529 25.0234 24.1829 25.0234ZM24.1829 15.0234C21.8429 15.0234 19.9329 16.9334 19.9329 19.2734C19.9329 21.6134 21.8429 23.5234 24.1829 23.5234C26.5229 23.5234 28.4329 21.6134 28.4329 19.2734C28.4329 16.9334 26.5229 15.0234 24.1829 15.0234Z" fill="#292D32"/>
<path d="M15.593 35.0234C15.183 35.0234 14.843 34.6834 14.843 34.2734C14.843 30.0034 19.033 26.5234 24.183 26.5234C25.193 26.5234 26.183 26.6535 27.143 26.9235C27.543 27.0335 27.773 27.4434 27.663 27.8434C27.553 28.2434 27.143 28.4735 26.743 28.3635C25.923 28.1335 25.063 28.0234 24.183 28.0234C19.863 28.0234 16.343 30.8234 16.343 34.2734C16.343 34.6834 16.003 35.0234 15.593 35.0234Z" fill="#292D32"/>
<path d="M30.1829 35.0234C29.0029 35.0234 27.8828 34.5835 27.0128 33.7935C26.6628 33.4935 26.3529 33.1234 26.1129 32.7134C25.6729 31.9934 25.4329 31.1434 25.4329 30.2734C25.4329 29.0234 25.9129 27.8534 26.7729 26.9634C27.6729 26.0334 28.8829 25.5234 30.1829 25.5234C31.5429 25.5234 32.8329 26.1035 33.7129 27.1035C34.4929 27.9735 34.9329 29.0934 34.9329 30.2734C34.9329 30.6534 34.8829 31.0334 34.7829 31.3934C34.6829 31.8434 34.4928 32.3134 34.2328 32.7234C33.4028 34.1434 31.8429 35.0234 30.1829 35.0234ZM30.1829 27.0234C29.2929 27.0234 28.4729 27.3734 27.8529 28.0034C27.2629 28.6134 26.9329 29.4134 26.9329 30.2734C26.9329 30.8634 27.0929 31.4434 27.4029 31.9434C27.5629 32.2234 27.7728 32.4734 28.0128 32.6834C28.6128 33.2334 29.3829 33.5334 30.1829 33.5334C31.3129 33.5334 32.3829 32.9334 32.9629 31.9634C33.1329 31.6834 33.2629 31.3635 33.3329 31.0535C33.4029 30.7935 33.4329 30.5434 33.4329 30.2834C33.4329 29.4834 33.1329 28.7135 32.5929 28.1135C31.9929 27.4135 31.1129 27.0234 30.1829 27.0234Z" fill="#292D32"/>
<path d="M31.6826 31.0034H28.6926C28.2826 31.0034 27.9426 30.6634 27.9426 30.2534C27.9426 29.8434 28.2826 29.5034 28.6926 29.5034H31.6826C32.0926 29.5034 32.4326 29.8434 32.4326 30.2534C32.4326 30.6634 32.0926 31.0034 31.6826 31.0034Z" fill="#292D32"/>
<path d="M30.1829 32.5334C29.7729 32.5334 29.4329 32.1934 29.4329 31.7834V28.7935C29.4329 28.3835 29.7729 28.0435 30.1829 28.0435C30.5929 28.0435 30.9329 28.3835 30.9329 28.7935V31.7834C30.9329 32.2034 30.5929 32.5334 30.1829 32.5334Z" fill="#292D32"/>
</svg>
