<svg width="113" height="55" viewBox="0 0 113 55" fill="none" xmlns="http://www.w3.org/2000/svg">
<g clip-path="url(#clip0_910_1083)">
<path d="M22.6831 39.0049C22.3501 39.0053 22.0308 39.1423 21.7954 39.386C21.5599 39.6296 21.4275 39.96 21.4271 40.3046V43.3452C21.4275 43.6898 21.5599 44.0202 21.7954 44.2638C22.0308 44.5075 22.3501 44.6445 22.6831 44.6449H24.2761C24.6091 44.6445 24.9283 44.5075 25.1637 44.2638C25.3992 44.0202 25.5316 43.6898 25.532 43.3452V40.3046C25.5316 39.96 25.3992 39.6296 25.1637 39.386C24.9283 39.1423 24.6091 39.0053 24.2761 39.0049H22.6831Z" fill="#3F3D56"/>
<path d="M52.1306 44.7461H50.5376C50.1787 44.7457 49.8347 44.598 49.5809 44.3354C49.3271 44.0727 49.1844 43.7167 49.184 43.3453V40.3046C49.1844 39.9333 49.3271 39.5772 49.5809 39.3146C49.8347 39.052 50.1787 38.9042 50.5376 38.9038H52.1306C52.4895 38.9042 52.8336 39.052 53.0874 39.3146C53.3412 39.5772 53.4839 39.9333 53.4843 40.3046V43.3453C53.4839 43.7167 53.3412 44.0727 53.0874 44.3354C52.8336 44.598 52.4895 44.7457 52.1306 44.7461Z" fill="#3F3D56"/>
<path d="M51.0737 42.3116H23.6424C22.3939 42.3116 21.3783 41.55 21.3783 40.6138V35.1552L22.7399 33.6714H52.2411L53.3378 35.1583V40.6138C53.3378 41.55 52.3221 42.3116 51.0737 42.3116Z" fill="#CCCCCC"/>
<path d="M52.113 36.4021H22.8963L22.5994 31.6909L22.7883 31.2088L23.8865 28.4121H50.925L52.41 31.5879L52.113 36.4021Z" fill="#CCCCCC"/>
<path d="M52.3604 31.5979L52.1424 35.1378H45.7144V32.5081L52.1776 31.2075L52.3604 31.5979Z" fill="white"/>
<path d="M29.1972 32.5079V35.1376H22.8658L22.6488 31.6988L22.8336 31.2275L29.1972 32.5079Z" fill="white"/>
<path d="M50.7621 29.2211H24.0492L26.8983 19.3933C27.0145 18.9874 27.2538 18.631 27.5809 18.3767C27.9079 18.1224 28.3053 17.9837 28.7144 17.9811L46.4054 17.8067C46.8329 17.8024 47.2494 17.9463 47.5887 18.2154C47.928 18.4845 48.1705 18.8634 48.2776 19.2916L50.7621 29.2211Z" fill="#CCCCCC"/>
<path d="M48.7057 28.292L26.1013 28.0146C26.0727 28.0142 26.0446 28.007 26.0192 27.9933C25.9939 27.9797 25.9719 27.9601 25.9552 27.9361C25.9385 27.9121 25.9275 27.8844 25.923 27.8552C25.9186 27.826 25.9208 27.7961 25.9295 27.7679L28.0965 20.7715C28.1083 20.7333 28.1315 20.7001 28.1628 20.6765C28.194 20.6529 28.2317 20.6401 28.2704 20.6401H46.4516C46.4903 20.6401 46.528 20.6528 46.5592 20.6764C46.5905 20.7 46.6137 20.7333 46.6255 20.7714L48.8817 28.0452C48.8906 28.0737 48.8927 28.104 48.8881 28.1336C48.8834 28.1632 48.872 28.1911 48.8548 28.2152C48.8376 28.2393 48.8151 28.2589 48.7891 28.2722C48.7632 28.2856 48.7346 28.2923 48.7057 28.292Z" fill="white"/>
<path d="M40.4519 19.0061H34.3592C34.3078 19.0061 34.2613 18.9538 34.2376 18.8695C34.2141 18.7833 34.2175 18.6915 34.2473 18.6074L34.7498 17.2926C34.7754 17.2255 34.8172 17.1855 34.8616 17.1855H39.9495C39.9939 17.1855 40.0357 17.2255 40.0613 17.2926L40.5637 18.6074C40.5936 18.6915 40.597 18.7833 40.5734 18.8695C40.5498 18.9538 40.5032 19.0061 40.4519 19.0061Z" fill="black"/>
<path d="M24.066 29.0189H20.0588V28.1074C20.0592 27.8128 20.1724 27.5303 20.3737 27.322C20.5751 27.1136 20.8481 26.9964 21.1328 26.9961H24.066V29.0189Z" fill="#CCCCCC"/>
<path d="M54.755 29.0189H50.7478V26.9961H53.681C53.9657 26.9964 54.2387 27.1136 54.4401 27.322C54.6414 27.5303 54.7546 27.8128 54.755 28.1074V29.0189Z" fill="#CCCCCC"/>
<path d="M19.59 43.2269L0.00012207 50.5093L0.0832826 50.7488L19.6732 43.4664L19.59 43.2269Z" fill="#3F3D56"/>
<path d="M55.1002 43.2272L55.0171 43.4668L74.6076 50.7474L74.6907 50.5078L55.1002 43.2272Z" fill="#3F3D56"/>
<path d="M38.4953 48.5076H37.3228V46.9403H38.4953V48.5076ZM38.4953 45.3729H37.3228V43.8057H38.4953V45.3729Z" fill="#E6E6E6"/>
<path d="M38.4953 54.9998H37.3228V53.4325H38.4953V54.9998ZM38.4953 51.8651H37.3228V50.2979H38.4953V51.8651Z" fill="#E6E6E6"/>
<path d="M90.0177 49.5859H88.7263L88.1117 44.4312H90.0177V49.5859Z" fill="#FFB8B8"/>
<path d="M90.3471 50.8817H86.1829V50.8272C86.1834 50.3825 86.3543 49.9562 86.6582 49.6417C86.9621 49.3273 87.374 49.1504 87.8038 49.1499H90.3471L90.3471 50.8817Z" fill="#2F2E41"/>
<path d="M106.671 47.0538L105.564 47.7421L102.472 43.6511L104.106 42.6353L106.671 47.0538Z" fill="#FFB8B8"/>
<path d="M104.029 50.2076L104.002 50.1609C103.781 49.7795 103.715 49.3229 103.819 48.8915C103.923 48.46 104.188 48.0888 104.557 47.8593L106.737 46.5039L107.599 47.9884L104.029 50.2076Z" fill="#2F2E41"/>
<path d="M90.3535 48.5222L90.3312 48.5221C89.703 48.5201 89.0753 48.4827 88.451 48.4101C88.213 48.3858 87.9549 48.3594 87.6439 48.333L87.6332 48.3309C87.421 48.2657 87.4151 46.2063 87.5051 39.157C87.5511 35.5464 87.6033 31.4542 87.5412 28.848L87.5406 28.8224L87.5593 28.8055C89.863 26.732 92.8215 25.9548 95.8899 26.617L95.9126 26.6219L95.9244 26.6426C97.1937 28.8649 99.1101 32.0661 100.963 35.162C105.218 42.2686 106.435 44.3587 106.301 44.5163L106.285 44.5292C105.995 44.6795 105.777 44.7952 105.591 44.8936C104.97 45.2231 104.713 45.3595 103.332 45.948L103.298 45.9625L103.273 45.9343C98.9564 41.0393 95.3641 35.5714 93.1421 30.5166C92.8824 32.2423 92.5673 34.4957 92.2343 36.8766C91.2768 43.723 90.6296 48.2313 90.3691 48.5058L90.3535 48.5222Z" fill="#2F2E41"/>
<path d="M97.0582 6.98914C97.493 5.13158 97.8613 3.03646 97.0414 1.32563C96.4725 0.138574 94.368 -0.261175 93.1616 0.166475C91.9552 0.594125 91.083 1.75437 90.6994 3.01941C90.3158 4.28444 90.3604 5.64761 90.5276 6.9627C92.7463 6.91859 94.965 6.87449 97.0582 6.98914Z" fill="#2F2E41"/>
<path d="M93.3141 6.98852C94.743 6.98852 95.9013 5.78982 95.9013 4.31116C95.9013 2.83249 94.743 1.63379 93.3141 1.63379C91.8852 1.63379 90.7268 2.83249 90.7268 4.31116C90.7268 5.78982 91.8852 6.98852 93.3141 6.98852Z" fill="#FFB8B8"/>
<path d="M96.4769 3.75985C96.4852 3.30924 96.4058 2.86151 96.2435 2.44328C96.0812 2.02504 95.8393 1.64483 95.5322 1.32524C95.2252 1.00565 94.8591 0.75319 94.4559 0.582872C94.0527 0.412553 93.6205 0.327847 93.185 0.333788C92.7495 0.339729 92.3196 0.436196 91.9209 0.617455C91.5221 0.798714 91.1627 1.06107 90.8638 1.38893C90.565 1.71679 90.3329 2.10346 90.1813 2.52598C90.0297 2.94849 89.9618 3.39823 89.9815 3.84846C92.196 3.85332 94.4105 3.85819 96.4769 3.75985Z" fill="#2F2E41"/>
<path d="M91.5166 29.3747C94.0906 29.3628 96.6477 29.8058 99.0776 30.6847C99.1621 26.4643 97.7581 22.2361 95.2194 19.073L95.2004 19.0494L95.2101 19.0203C95.8882 16.9928 96.5891 14.897 97.2154 12.8116L97.2059 12.7766C96.7666 11.1607 95.8238 9.52781 94.3237 7.78452C94.161 7.61006 93.9402 7.50617 93.7062 7.4939C93.4722 7.48163 93.2424 7.56191 93.0634 7.71847C90.3969 10.248 88.9471 14.0381 89.2797 17.6097L89.2807 17.6202L89.2777 17.6304C88.1031 21.7486 87.6767 23.8638 87.3004 25.7301C87.026 27.0915 86.7884 28.2703 86.3113 29.9546C88.0214 29.5695 89.7665 29.3751 91.5166 29.3747Z" fill="#3F3D56"/>
<path opacity="0.1" d="M95.3063 16.3564L91.4849 24.9656L89.3019 22.6789L95.3063 16.3564Z" fill="black"/>
<path d="M86.7289 21.1383L86.9953 21.674C86.9978 21.6789 86.9982 21.6847 86.9966 21.69C86.995 21.6953 86.9914 21.6997 86.9866 21.7023L86.9737 21.7091L88.3617 24.4999C88.4001 24.5771 88.4073 24.667 88.3817 24.7497C88.356 24.8324 88.2997 24.9012 88.2251 24.941L86.54 25.8384C86.503 25.8581 86.4627 25.8701 86.4213 25.8736C86.3799 25.8771 86.3382 25.8722 86.2986 25.8591C86.2591 25.846 86.2224 25.8249 86.1907 25.7971C86.159 25.7693 86.1329 25.7353 86.1139 25.6971L84.7746 23.0042L84.7653 23.0091C84.7619 23.0109 84.758 23.0113 84.7544 23.0101C84.7507 23.0089 84.7477 23.0063 84.746 23.0028L84.5943 22.6979C84.5935 22.6961 84.593 22.6943 84.5928 22.6923C84.5926 22.6904 84.5929 22.6884 84.5934 22.6865C84.594 22.6847 84.5949 22.683 84.5962 22.6815C84.5974 22.68 84.5989 22.6788 84.6005 22.6779L84.6098 22.6729L84.5527 22.5581L84.5433 22.5631C84.5398 22.5649 84.5357 22.5653 84.5319 22.564C84.5281 22.5627 84.5249 22.56 84.5231 22.5563L84.3736 22.2556C84.3717 22.2519 84.3714 22.2477 84.3726 22.2437C84.3738 22.2398 84.3765 22.2366 84.38 22.2347L84.3894 22.2297L84.3114 22.0729L84.3019 22.078C84.2988 22.0797 84.2951 22.08 84.2918 22.0789C84.2884 22.0778 84.2856 22.0753 84.284 22.0721L84.2024 21.9079C84.2007 21.9047 84.2004 21.9009 84.2015 21.8974C84.2026 21.8939 84.2049 21.891 84.2081 21.8893L84.2176 21.8842L84.0523 21.5519C84.0139 21.4747 84.0068 21.3849 84.0324 21.3022C84.058 21.2195 84.1143 21.1508 84.1889 21.111L85.874 20.2135C85.9486 20.1738 86.0354 20.1664 86.1153 20.1929C86.1953 20.2193 86.2617 20.2776 86.3002 20.3548L86.6887 21.136L86.7015 21.1292C86.7063 21.1267 86.7119 21.1262 86.717 21.1279C86.7222 21.1296 86.7264 21.1333 86.7289 21.1383Z" fill="#3F3D56"/>
<path d="M86.1941 20.4838L88.2389 24.5955C88.2633 24.6445 88.2678 24.7015 88.2516 24.7539C88.2353 24.8064 88.1996 24.85 88.1522 24.8752L86.5392 25.7343C86.492 25.7596 86.437 25.7644 86.3863 25.7477C86.3357 25.731 86.2935 25.6942 86.2691 25.6453L86.2688 25.6447L84.2239 21.5331C84.2118 21.5088 84.2045 21.4823 84.2023 21.4551C84.2002 21.4279 84.2032 21.4006 84.2112 21.3746C84.2193 21.3486 84.2322 21.3245 84.2492 21.3037C84.2663 21.2829 84.2871 21.2657 84.3105 21.2532L84.552 21.1247L84.5679 21.1567C84.5779 21.1767 84.5915 21.1945 84.6081 21.209C84.6246 21.2235 84.6438 21.2345 84.6645 21.2414C84.6852 21.2482 84.7069 21.2508 84.7286 21.2489C84.7502 21.2471 84.7713 21.2408 84.7906 21.2306L85.611 20.7936C85.65 20.7729 85.6794 20.7369 85.6928 20.6937C85.7061 20.6505 85.7024 20.6036 85.6823 20.5632L85.6664 20.5312L85.9236 20.3942C85.971 20.3689 86.026 20.3642 86.0767 20.381C86.1274 20.3978 86.1696 20.4347 86.194 20.4837L86.1941 20.4838Z" fill="black"/>
<path d="M86.7867 25.5071C86.9412 25.496 87.0914 25.4499 87.2269 25.3722C87.3623 25.2945 87.4796 25.187 87.5706 25.0573C87.6615 24.9276 87.7238 24.7788 87.7532 24.6215C87.7826 24.4641 87.7783 24.302 87.7405 24.1466L90.8892 22.0118L89.0935 21.209L86.3788 23.3593C86.1306 23.4422 85.9205 23.6164 85.7882 23.8488C85.6559 24.0813 85.6106 24.356 85.6609 24.6207C85.7111 24.8854 85.8535 25.1219 86.061 25.2853C86.2685 25.4486 86.5267 25.5275 86.7867 25.5071Z" fill="#FFB8B8"/>
<path d="M89.8165 23.9692L89.7768 23.9401C89.0274 23.3693 88.1955 22.7791 87.391 22.2083L87.3427 22.174L87.3807 22.1279C89.0979 20.0489 90.8169 17.8773 92.4797 15.7765C92.4784 15.7732 92.4773 15.7707 92.4765 15.769L92.4921 15.7607L92.4988 15.7524L92.5023 15.7554L92.5123 15.7501L92.467 15.7537L91.9545 11.5948C91.4916 10.9413 91.403 9.64394 92.0096 8.73828C92.638 7.8001 93.9673 7.48612 94.8545 8.06608C95.0869 8.22755 95.2813 8.44104 95.4232 8.69076C95.5651 8.94047 95.6509 9.22001 95.6743 9.50869C95.7072 9.76587 95.6842 10.0274 95.607 10.2742C95.5298 10.5211 95.4003 10.7469 95.228 10.9353C95.4458 13.1363 95.4541 15.1036 95.4622 17.0066L95.4623 17.0256L95.4509 17.0413C93.6784 19.3716 91.7313 21.6896 89.8484 23.9313L89.8165 23.9692Z" fill="#3F3D56"/>
<path d="M37.3715 12.6157C40.5843 12.6157 43.1889 9.92045 43.1889 6.59569C43.1889 3.27093 40.5843 0.575684 37.3715 0.575684C34.1586 0.575684 31.5541 3.27093 31.5541 6.59569C31.5541 9.92045 34.1586 12.6157 37.3715 12.6157Z" fill="black"/>
<path d="M36.8171 9.1368L35.0759 6.82007L36.0885 6.00509L36.9129 7.10204L39.698 4.05957L40.6293 4.97269L36.8171 9.1368Z" fill="white"/>
<path d="M112.877 51.0471H83.4762C83.4436 51.0471 83.4123 51.0337 83.3892 51.0098C83.3662 50.9859 83.3532 50.9535 83.3532 50.9198C83.3532 50.886 83.3662 50.8536 83.3892 50.8298C83.4123 50.8059 83.4436 50.7925 83.4762 50.7925H112.877C112.91 50.7925 112.941 50.8059 112.964 50.8298C112.987 50.8536 113 50.886 113 50.9198C113 50.9535 112.987 50.9859 112.964 51.0098C112.941 51.0337 112.91 51.0471 112.877 51.0471Z" fill="#3F3D56"/>
</g>
<defs>
<clipPath id="clip0_910_1083">
<rect width="113" height="55" fill="white"/>
</clipPath>
</defs>
</svg>
