<svg width="51" height="51" viewBox="0 0 51 51" fill="none" xmlns="http://www.w3.org/2000/svg">
<rect x="0.46875" y="0.444458" width="50.2031" height="50.2031" rx="25.1016" fill="#EBEBEB"/>
<path d="M25.5703 28.893C27.4187 28.893 28.9171 27.3945 28.9171 25.5461C28.9171 23.6977 27.4187 22.1992 25.5703 22.1992C23.7218 22.1992 22.2234 23.6977 22.2234 25.5461C22.2234 27.3945 23.7218 28.893 25.5703 28.893Z" stroke="black" stroke-width="2.0918" stroke-miterlimit="10" stroke-linecap="round" stroke-linejoin="round"/>
<path d="M14.4141 26.5278V24.5643C14.4141 23.404 15.3623 22.4446 16.5338 22.4446C18.553 22.4446 19.3786 21.0166 18.3634 19.2651C17.7833 18.261 18.1291 16.9557 19.1443 16.3756L21.0743 15.2711C21.9557 14.7468 23.0936 15.0591 23.618 15.9405L23.7407 16.1525C24.7447 17.904 26.3959 17.904 27.4111 16.1525L27.5338 15.9405C28.0582 15.0591 29.1961 14.7468 30.0774 15.2711L32.0075 16.3756C33.0227 16.9557 33.3685 18.261 32.7884 19.2651C31.7732 21.0166 32.5988 22.4446 34.618 22.4446C35.7783 22.4446 36.7377 23.3929 36.7377 24.5643V26.5278C36.7377 27.688 35.7894 28.6475 34.618 28.6475C32.5988 28.6475 31.7732 30.0755 32.7884 31.827C33.3685 32.8422 33.0227 34.1363 32.0075 34.7165L30.0774 35.8209C29.1961 36.3453 28.0582 36.0329 27.5338 35.1516L27.4111 34.9396C26.407 33.1881 24.7559 33.1881 23.7407 34.9396L23.618 35.1516C23.0936 36.0329 21.9557 36.3453 21.0743 35.8209L19.1443 34.7165C18.1291 34.1363 17.7833 32.831 18.3634 31.827C19.3786 30.0755 18.553 28.6475 16.5338 28.6475C15.3623 28.6475 14.4141 27.688 14.4141 26.5278Z" stroke="black" stroke-width="2.0918" stroke-miterlimit="10" stroke-linecap="round" stroke-linejoin="round"/>
</svg>
