<svg width="38" height="39" viewBox="0 0 38 39" fill="none" xmlns="http://www.w3.org/2000/svg">
<rect x="0.5" y="1.41675" width="37" height="37" rx="18.5" fill="white"/>
<g clip-path="url(#clip0_237_606)">
<path d="M15.25 24.4167C14.425 24.4167 13.7575 25.0917 13.7575 25.9167C13.7575 26.7417 14.425 27.4167 15.25 27.4167C16.075 27.4167 16.75 26.7417 16.75 25.9167C16.75 25.0917 16.075 24.4167 15.25 24.4167ZM10.75 13.1667C10.75 13.5792 11.0875 13.9167 11.5 13.9167H12.25L14.95 19.6092L13.9375 21.4392C13.39 22.4442 14.11 23.6667 15.25 23.6667H23.5C23.9125 23.6667 24.25 23.3292 24.25 22.9167C24.25 22.5042 23.9125 22.1667 23.5 22.1667H15.25L16.075 20.6667H21.6625C22.225 20.6667 22.72 20.3592 22.975 19.8942L25.66 15.0267C25.9375 14.5317 25.5775 13.9167 25.0075 13.9167H13.9075L13.405 12.8442C13.285 12.5817 13.015 12.4167 12.73 12.4167H11.5C11.0875 12.4167 10.75 12.7542 10.75 13.1667ZM22.75 24.4167C21.925 24.4167 21.2575 25.0917 21.2575 25.9167C21.2575 26.7417 21.925 27.4167 22.75 27.4167C23.575 27.4167 24.25 26.7417 24.25 25.9167C24.25 25.0917 23.575 24.4167 22.75 24.4167Z" fill="#323232"/>
</g>
<rect x="0.5" y="1.41675" width="37" height="37" rx="18.5" stroke="black"/>
<defs>
<clipPath id="clip0_237_606">
<rect width="18" height="18" fill="white" transform="translate(10 10.9167)"/>
</clipPath>
</defs>
</svg>
