<svg width="38" height="39" viewBox="0 0 38 39" fill="none" xmlns="http://www.w3.org/2000/svg">
<rect x="0.5" y="1.41675" width="37" height="37" rx="18.5" fill="white"/>
<g clip-path="url(#clip0_237_612)">
<path d="M25 15.4167H23.365C23.4475 15.1842 23.5 14.9292 23.5 14.6667C23.5 13.4217 22.495 12.4167 21.25 12.4167C20.4625 12.4167 19.78 12.8217 19.375 13.4292L19 13.9317L18.625 13.4217C18.22 12.8217 17.5375 12.4167 16.75 12.4167C15.505 12.4167 14.5 13.4217 14.5 14.6667C14.5 14.9292 14.5525 15.1842 14.635 15.4167H13C12.1675 15.4167 11.5075 16.0842 11.5075 16.9167L11.5 25.1667C11.5 25.9992 12.1675 26.6667 13 26.6667H25C25.8325 26.6667 26.5 25.9992 26.5 25.1667V16.9167C26.5 16.0842 25.8325 15.4167 25 15.4167ZM21.25 13.9167C21.6625 13.9167 22 14.2542 22 14.6667C22 15.0792 21.6625 15.4167 21.25 15.4167C20.8375 15.4167 20.5 15.0792 20.5 14.6667C20.5 14.2542 20.8375 13.9167 21.25 13.9167ZM16.75 13.9167C17.1625 13.9167 17.5 14.2542 17.5 14.6667C17.5 15.0792 17.1625 15.4167 16.75 15.4167C16.3375 15.4167 16 15.0792 16 14.6667C16 14.2542 16.3375 13.9167 16.75 13.9167ZM25 25.1667H13V23.6667H25V25.1667ZM25 21.4167H13V17.6667C13 17.2542 13.3375 16.9167 13.75 16.9167H16.81L15.7 18.4317C15.4525 18.7692 15.5275 19.2417 15.865 19.4817C16.195 19.7217 16.6675 19.6467 16.9075 19.3167L19 16.4667L21.0925 19.3167C21.3325 19.6467 21.805 19.7217 22.135 19.4817C22.4725 19.2417 22.5475 18.7692 22.3 18.4317L21.19 16.9167H24.25C24.6625 16.9167 25 17.2542 25 17.6667V21.4167Z" fill="#323232"/>
</g>
<rect x="0.5" y="1.41675" width="37" height="37" rx="18.5" stroke="black"/>
<defs>
<clipPath id="clip0_237_612">
<rect width="18" height="18" fill="white" transform="translate(10 10.9167)"/>
</clipPath>
</defs>
</svg>
