<svg width="57" height="51" viewBox="0 0 57 51" fill="none" xmlns="http://www.w3.org/2000/svg">
<path d="M43.2202 17.571C43.2427 17.8964 43.2427 18.2219 43.2427 18.5504C43.2427 28.5593 35.6232 40.1025 21.6906 40.1025V40.0965C17.5749 40.1025 13.5446 38.9236 10.0798 36.7008C10.6783 36.7728 11.2798 36.8087 11.8827 36.8102C15.2935 36.8132 18.6068 35.6688 21.2901 33.5615C18.0488 33.5 15.2065 31.3866 14.2136 28.3013C15.349 28.5203 16.5189 28.4753 17.6334 28.1708C14.0996 27.4568 11.5572 24.352 11.5572 20.7463C11.5572 20.7133 11.5572 20.6818 11.5572 20.6503C12.6102 21.2367 13.7891 21.5622 14.995 21.5982C11.6667 19.3738 10.6408 14.9461 12.6507 11.4843C16.4964 16.2165 22.1706 19.0934 28.2617 19.3978C27.6512 16.767 28.4852 14.0102 30.4531 12.1608C33.5039 9.29298 38.3021 9.43997 41.1699 12.4893C42.8663 12.1548 44.4922 11.5323 45.9801 10.6504C45.4146 12.4038 44.2312 13.8932 42.6503 14.8396C44.1517 14.6626 45.6186 14.2607 47 13.6472C45.9831 15.1711 44.7022 16.4985 43.2202 17.571Z" fill="white"/>
</svg>
