<svg width="131" height="55" viewBox="0 0 131 55" fill="none" xmlns="http://www.w3.org/2000/svg">
<g clip-path="url(#clip0_910_1204)">
<path d="M98.0045 23.6543V13.4125C98.0045 12.3913 98.8271 11.5605 99.8383 11.5605H106.473C107.484 11.5605 108.306 12.3913 108.306 13.4125V23.6543C108.306 24.6755 107.484 25.5063 106.473 25.5063H99.8383C98.8271 25.5063 98.0045 24.6755 98.0045 23.6543Z" fill="white"/>
<path d="M101.402 15.9878H104.909V15.1024H101.402V15.9878Z" fill="#3F3D56"/>
<path d="M102.279 14.4385H104.032V11.5608H102.279V14.4385Z" fill="#3F3D56"/>
<path d="M102.279 25.5063H104.032V22.6287H102.279V25.5063Z" fill="#3F3D56"/>
<path d="M93.2919 24.0685H83.1504C82.1393 24.0685 81.3167 23.2377 81.3167 22.2165V15.5165C81.3167 14.4953 82.1393 13.6646 83.1504 13.6646H93.2919C94.3031 13.6646 95.1257 14.4953 95.1257 15.5165V22.2165C95.1257 23.2377 94.3031 24.0685 93.2919 24.0685Z" fill="white"/>
<path d="M90.1939 15.1035H86.6869V15.989H90.1939V15.1035Z" fill="#3F3D56"/>
<path d="M84.1661 19.7518V17.981H81.3167V19.7518H84.1661Z" fill="#3F3D56"/>
<path d="M95.1257 19.7518V17.981H92.2762V19.7518H95.1257Z" fill="#3F3D56"/>
<path d="M11.0265 43.2204L9.33354 33.2468C8.58124 28.8149 11.8292 24.7139 16.2757 24.4813L40.4111 23.2189L46.1713 13.6312C46.935 12.3602 48.3003 11.584 49.7725 11.584H67.1144C68.4776 11.584 69.6294 12.6049 69.8063 13.9699L70.2467 21.6415L113.482 21.7722L118.921 39.874L113.873 39.6254L114.132 45.116L107.53 45.3774L105.329 39.093C104.915 37.9097 103.099 36.5754 101.211 35.4591C96.98 32.9565 91.5439 33.7597 88.3418 37.5101C87.5864 38.3949 87.0583 39.3167 86.9107 40.1811L85.912 46.0311L37.4986 45.2467L31.1535 36.2831C29.2789 34.2229 20.4296 33.4662 19.6327 36.2831L14.8452 43.4165L11.0265 43.2204Z" fill="#E6E6E6"/>
<path d="M63.6467 17.4179L65.071 24.1993L46.9484 24.5915L50.7759 16.2922C51.1232 15.5393 51.8854 15.0718 52.707 15.1079L61.3912 15.4892C62.4906 15.5375 63.4183 16.3308 63.6467 17.4179Z" fill="white"/>
<path d="M44.4888 24.0686L48.1133 14.6561L47.1643 13.6978L41.2526 22.7613L42.4538 24.5915L44.4888 24.0686Z" fill="white"/>
<path d="M96.3973 54.6591C101.116 54.6591 104.941 50.7961 104.941 46.0309C104.941 41.2658 101.116 37.4028 96.3973 37.4028C91.6788 37.4028 87.8538 41.2658 87.8538 46.0309C87.8538 50.7961 91.6788 54.6591 96.3973 54.6591Z" fill="#3F3D56"/>
<path d="M90.5074 46.0312C90.5074 42.7513 93.1496 40.083 96.3973 40.083C99.645 40.083 102.287 42.7513 102.287 46.0312C102.287 49.311 99.645 51.9793 96.3973 51.9793C93.1496 51.9793 90.5074 49.311 90.5074 46.0312ZM90.6369 46.0312C90.6369 49.2389 93.221 51.8486 96.3973 51.8486C99.5736 51.8486 102.158 49.2389 102.158 46.0312C102.158 42.8235 99.5736 40.2137 96.3973 40.2137C93.221 40.2137 90.6369 42.8235 90.6369 46.0312Z" fill="white"/>
<path d="M91.3488 46.031C91.3488 48.8468 93.6091 51.1295 96.3973 51.1295C99.1855 51.1295 101.446 48.8468 101.446 46.031C101.446 43.2153 99.1855 40.9326 96.3973 40.9326C93.6091 40.9326 91.3488 43.2153 91.3488 46.031ZM99.6789 44.8102L98.7845 45.3989L98.4408 44.8664L99.6789 44.8102ZM98.3172 47.8044L98.5554 47.2161L99.3054 48.2125L98.3172 47.8044ZM96.0268 49.8222L96.6562 48.7439V49.8222H96.0268ZM96.0268 43.5796L96.6562 42.5014V43.5796H96.0268ZM93.2302 48.2125L93.9803 47.2161L94.2185 47.8044L93.2302 48.2125ZM92.8567 44.8102L94.0949 44.8664L93.7512 45.3989L92.8567 44.8102Z" fill="#E6E6E6"/>
<path d="M24.6833 54.6591C29.4018 54.6591 33.2269 50.7961 33.2269 46.0309C33.2269 41.2658 29.4018 37.4028 24.6833 37.4028C19.9648 37.4028 16.1398 41.2658 16.1398 46.0309C16.1398 50.7961 19.9648 54.6591 24.6833 54.6591Z" fill="#3F3D56"/>
<path d="M18.7935 46.0312C18.7935 42.7513 21.4356 40.083 24.6833 40.083C27.931 40.083 30.5732 42.7513 30.5732 46.0312C30.5732 49.311 27.931 51.9793 24.6833 51.9793C21.4356 51.9793 18.7935 49.311 18.7935 46.0312ZM18.9229 46.0312C18.9229 49.2389 21.507 51.8486 24.6833 51.8486C27.8597 51.8486 30.4437 49.2389 30.4437 46.0312C30.4437 42.8235 27.8597 40.2137 24.6833 40.2137C21.507 40.2137 18.9229 42.8235 18.9229 46.0312Z" fill="white"/>
<path d="M19.6349 46.031C19.6349 48.8468 21.8952 51.1295 24.6833 51.1295C27.4715 51.1295 29.7318 48.8468 29.7318 46.031C29.7318 43.2153 27.4715 40.9326 24.6833 40.9326C21.8952 40.9326 19.6349 43.2153 19.6349 46.031ZM27.965 44.8102L27.0705 45.3989L26.7269 44.8664L27.965 44.8102ZM26.6033 47.8044L26.8415 47.2161L27.5915 48.2125L26.6033 47.8044ZM24.3128 49.8222L24.9422 48.7439V49.8222H24.3128ZM24.3128 43.5796L24.9422 42.5014V43.5796H24.3128ZM21.5163 48.2125L22.2663 47.2161L22.5045 47.8044L21.5163 48.2125ZM21.1428 44.8102L22.3809 44.8664L22.0373 45.3989L21.1428 44.8102Z" fill="#E6E6E6"/>
<path d="M60.3461 27.6636H65.2651V26.6177H60.3461V27.6636Z" fill="#3F3D56"/>
<path d="M129.679 48.194C129.633 48.0523 129.286 48.1147 129.252 47.9879C129.219 47.8617 129.553 47.7558 129.808 47.3999C129.854 47.3357 130.145 46.9313 130.034 46.7612C129.822 46.4388 128.352 47.2418 127.999 46.7912C127.922 46.6923 127.89 46.5225 127.659 46.2066C127.568 46.0809 127.509 46.0202 127.438 46.022C127.339 46.0246 127.303 46.1507 127.146 46.3791C126.911 46.7217 126.826 46.6787 126.671 46.9594C126.556 47.1678 126.542 47.3009 126.459 47.3088C126.342 47.3199 126.293 47.0605 126.15 47.0504C126.003 47.0401 125.857 47.2965 125.784 47.4968C125.648 47.8726 125.732 48.1599 125.751 48.4462C125.771 48.7574 125.724 49.2128 125.389 49.7974L122.231 54.8778C122.909 53.8421 124.834 51.0179 125.61 49.982C125.834 49.6829 126.074 49.3827 126.445 49.3262C126.801 49.2718 127.235 49.4499 127.84 49.4395C127.911 49.4383 128.108 49.4324 128.156 49.3271C128.195 49.24 128.097 49.1643 128.133 49.0824C128.181 48.9726 128.396 49.0197 128.69 48.9468C128.898 48.8954 129.039 48.8104 129.16 48.7374C129.196 48.7153 129.74 48.3826 129.679 48.194Z" fill="#F2F2F2"/>
<path d="M121.409 49.3797C121.327 49.3616 121.257 49.5518 121.186 49.5318C121.115 49.5118 121.16 49.316 121.06 49.0866C121.043 49.0452 120.93 48.7845 120.815 48.7906C120.597 48.8023 120.564 49.7627 120.243 49.8075C120.172 49.8174 120.081 49.7842 119.861 49.8074C119.773 49.8166 119.726 49.8283 119.707 49.8637C119.679 49.9139 119.73 49.968 119.796 50.1116C119.895 50.3271 119.849 50.3568 119.941 50.5146C120.009 50.6318 120.07 50.6769 120.05 50.7203C120.021 50.7817 119.881 50.7309 119.835 50.7991C119.788 50.8687 119.87 51.0153 119.946 51.1091C120.09 51.2851 120.254 51.3262 120.398 51.3995C120.555 51.4792 120.763 51.6343 120.951 51.9689L122.509 54.9998C122.201 54.3648 121.384 52.5959 121.104 51.9126C121.023 51.7153 120.947 51.5095 121.026 51.3096C121.103 51.1172 121.314 50.9536 121.484 50.6505C121.504 50.6151 121.558 50.5158 121.52 50.4617C121.489 50.417 121.424 50.4438 121.395 50.4025C121.355 50.3471 121.44 50.2537 121.49 50.087C121.525 49.9694 121.524 49.8751 121.523 49.794C121.523 49.7695 121.518 49.4039 121.409 49.3797Z" fill="#F2F2F2"/>
<path d="M122.963 50.1196L123.012 49.663L123.042 49.6343C123.181 49.5016 123.268 49.3611 123.301 49.2165C123.306 49.1935 123.31 49.1702 123.314 49.1466C123.331 49.0527 123.351 48.936 123.44 48.8147C123.49 48.7472 123.622 48.5945 123.759 48.6479C123.796 48.6618 123.821 48.6859 123.838 48.7115C123.842 48.7071 123.847 48.7026 123.851 48.6978C123.91 48.64 123.952 48.6188 123.991 48.5984C124.022 48.5827 124.053 48.5665 124.107 48.5234C124.13 48.5045 124.149 48.4875 124.165 48.4732C124.213 48.4301 124.274 48.3795 124.358 48.3995C124.447 48.4241 124.477 48.5098 124.497 48.5665C124.533 48.6676 124.545 48.7372 124.552 48.7834C124.555 48.8002 124.558 48.8192 124.56 48.8254C124.579 48.8749 124.824 48.8877 124.916 48.8931C125.122 48.9044 125.301 48.9142 125.344 49.0571C125.375 49.1594 125.311 49.2709 125.148 49.3974C125.097 49.4367 125.046 49.4639 125.002 49.4842C125.029 49.5102 125.051 49.5456 125.052 49.5937C125.055 49.7078 124.939 49.7953 124.708 49.8542C124.65 49.8691 124.573 49.8887 124.472 49.8837C124.424 49.8813 124.382 49.874 124.347 49.8671C124.341 49.8876 124.332 49.9089 124.314 49.9291C124.263 49.9886 124.179 50.0037 124.067 49.9702C123.942 49.9351 123.843 49.8874 123.757 49.8455C123.681 49.809 123.615 49.7778 123.56 49.7692C123.458 49.7548 123.363 49.8185 123.249 49.9032L122.963 50.1196Z" fill="#F2F2F2"/>
<path d="M123.778 47.5188L123.329 47.5867L123.294 47.5647C123.131 47.4626 122.975 47.4133 122.828 47.4181C122.805 47.4189 122.781 47.4209 122.758 47.4228C122.663 47.4308 122.547 47.4407 122.408 47.3841C122.33 47.3524 122.151 47.2618 122.167 47.115C122.171 47.0755 122.188 47.0451 122.208 47.0217C122.203 47.0186 122.197 47.0154 122.191 47.012C122.121 46.969 122.09 46.9341 122.061 46.9005C122.038 46.8747 122.014 46.848 121.96 46.8068C121.936 46.7887 121.915 46.7748 121.897 46.763C121.843 46.7271 121.779 46.6801 121.777 46.5931C121.778 46.5 121.853 46.4485 121.902 46.4143C121.99 46.3534 122.053 46.3248 122.096 46.3059C122.111 46.2991 122.129 46.2913 122.134 46.2874C122.176 46.2558 122.127 46.0139 122.109 45.9227C122.067 45.7179 122.031 45.5407 122.157 45.4625C122.247 45.4064 122.37 45.4409 122.533 45.5683C122.583 45.608 122.622 45.6508 122.653 45.6889C122.671 45.6557 122.699 45.6255 122.745 45.612C122.854 45.5801 122.967 45.6711 123.082 45.8821C123.111 45.9345 123.149 46.0051 123.17 46.1052C123.18 46.1524 123.183 46.195 123.186 46.2316C123.207 46.2315 123.23 46.2356 123.253 46.2477C123.323 46.2829 123.359 46.3603 123.356 46.4791C123.354 46.6097 123.333 46.718 123.315 46.8135C123.299 46.8969 123.286 46.9687 123.292 47.0245C123.304 47.128 123.389 47.2048 123.499 47.2947L123.778 47.5188Z" fill="#F2F2F2"/>
<path d="M123.839 46.1547L123.888 45.6981L123.918 45.6694C124.057 45.5368 124.144 45.3963 124.177 45.2517C124.182 45.2287 124.186 45.2054 124.19 45.1817C124.206 45.0878 124.226 44.9711 124.316 44.8499C124.366 44.7824 124.498 44.6297 124.635 44.683C124.671 44.697 124.696 44.7211 124.714 44.7466C124.718 44.7422 124.722 44.7378 124.727 44.733C124.786 44.6751 124.827 44.6539 124.867 44.6335C124.898 44.6178 124.929 44.6017 124.982 44.5586C125.006 44.5397 125.025 44.5227 125.04 44.5084C125.088 44.4652 125.149 44.4147 125.233 44.4347C125.322 44.4592 125.353 44.5449 125.373 44.6016C125.409 44.7028 125.42 44.7724 125.428 44.8185C125.43 44.8354 125.433 44.8544 125.436 44.8605C125.455 44.9101 125.699 44.9229 125.791 44.9282C125.998 44.9396 126.177 44.9494 126.22 45.0923C126.251 45.1945 126.186 45.306 126.023 45.4325C125.972 45.4719 125.922 45.4991 125.877 45.5193C125.905 45.5453 125.926 45.5807 125.928 45.6289C125.931 45.7429 125.815 45.8304 125.583 45.8894C125.526 45.9042 125.449 45.9238 125.347 45.9189C125.3 45.9165 125.258 45.9091 125.222 45.9022C125.217 45.9227 125.207 45.944 125.19 45.9642C125.138 46.0238 125.055 46.0389 124.942 46.0053C124.818 45.9703 124.719 45.9226 124.632 45.8806C124.556 45.8441 124.491 45.8129 124.436 45.8044C124.334 45.79 124.239 45.8536 124.125 45.9384L123.839 46.1547Z" fill="#F2F2F2"/>
<path d="M122.381 54.9035L122.301 54.8241L122.191 54.8123C122.191 54.8018 122.19 54.7773 122.19 54.7389C122.185 54.5289 122.172 53.8896 122.26 52.9073C122.322 52.2216 122.425 51.5255 122.566 50.8382C122.708 50.1497 122.854 49.6375 122.972 49.2258C123.061 48.9152 123.151 48.6207 123.239 48.3338C123.473 47.5673 123.694 46.8432 123.831 46.0174C123.862 45.833 123.925 45.4492 123.795 44.9963C123.72 44.7336 123.59 44.4863 123.41 44.2615L123.584 44.1196C123.783 44.368 123.926 44.6418 124.01 44.9335C124.154 45.4357 124.085 45.8539 124.052 46.0548C123.912 46.8953 123.689 47.6263 123.453 48.4002C123.365 48.6861 123.276 48.9793 123.187 49.2886C123.07 49.6965 122.925 50.2042 122.785 50.8839C122.645 51.563 122.544 52.2505 122.483 52.9276C122.396 53.8975 122.409 54.5273 122.413 54.7342C122.415 54.8447 122.416 54.8678 122.381 54.9035Z" fill="#F2F2F2"/>
<path d="M122.933 44.5216C122.924 44.5196 122.915 44.5173 122.906 44.5146C122.723 44.4627 122.575 44.3116 122.469 44.0658C122.418 43.9502 122.407 43.8286 122.383 43.5859C122.379 43.5485 122.363 43.3592 122.383 43.1083C122.396 42.9444 122.414 42.8786 122.458 42.8269C122.507 42.7693 122.573 42.7363 122.643 42.7197C122.645 42.698 122.652 42.6768 122.666 42.6567C122.723 42.5732 122.819 42.6075 122.872 42.6254C122.898 42.6349 122.931 42.647 122.967 42.6533C123.025 42.6634 123.06 42.6531 123.112 42.6378C123.162 42.6231 123.225 42.6049 123.311 42.6064C123.481 42.6088 123.606 42.6859 123.648 42.7113C123.866 42.8438 123.942 43.0552 124.029 43.2999C124.046 43.349 124.104 43.5264 124.117 43.7547C124.127 43.9195 124.105 43.9869 124.081 44.0352C124.031 44.1343 123.954 44.1803 123.764 44.277C123.565 44.3783 123.465 44.429 123.383 44.455C123.193 44.5154 123.074 44.5533 122.933 44.5216Z" fill="#F2F2F2"/>
<path d="M0 54.7073C0 54.7936 0.119775 54.8629 0.268929 54.8629H128.651C128.8 54.8629 128.92 54.7936 128.92 54.7073C128.92 54.621 128.8 54.5518 128.651 54.5518H0.268929C0.119775 54.5518 0 54.621 0 54.7073Z" fill="#CCCCCC"/>
<path d="M65.2339 53.7251L67.0312 53.7249L67.8862 46.7236L65.2335 46.7238L65.2339 53.7251Z" fill="#FFB6B6"/>
<path d="M71.3918 53.6841C71.4478 53.7793 71.4773 54.0865 71.4773 54.1972C71.4773 54.5375 71.2042 54.8133 70.8673 54.8133L65.3011 54.8133C65.0713 54.8133 64.885 54.6251 64.885 54.393V54.159C64.885 54.159 64.6096 53.4556 65.1765 52.5886C65.1765 52.5886 65.8811 53.2675 66.9339 52.2042L67.2444 51.6362L69.4918 53.2961L70.7374 53.451C71.01 53.4848 71.2516 53.4457 71.3918 53.6841Z" fill="#2F2E41"/>
<path d="M57.1586 53.7251L58.9559 53.7249L59.8109 46.7236L57.1582 46.7238L57.1586 53.7251Z" fill="#FFB6B6"/>
<path d="M63.3165 53.6841C63.3724 53.7793 63.402 54.0865 63.402 54.1972C63.402 54.5375 63.1289 54.8133 62.792 54.8133L57.2258 54.8133C56.996 54.8133 56.8097 54.6251 56.8097 54.393V54.159C56.8097 54.159 56.5343 53.4556 57.1012 52.5886C57.1012 52.5886 57.8058 53.2675 58.8586 52.2042L59.1691 51.6362L61.4164 53.2961L62.6621 53.451C62.9347 53.4848 63.1763 53.4457 63.3165 53.6841Z" fill="#2F2E41"/>
<path d="M64.9493 5.91857L65.2905 9.13472L61.3097 8.79013L61.9921 5.80371L64.9493 5.91857Z" fill="#FFB6B6"/>
<path opacity="0.1" d="M64.9493 5.91857L65.2905 9.13472L61.3097 8.79013L61.9921 5.80371L64.9493 5.91857Z" fill="black"/>
<path d="M63.5276 6.32077C64.9723 6.32077 66.1435 5.13798 66.1435 3.67894C66.1435 2.2199 64.9723 1.03711 63.5276 1.03711C62.0828 1.03711 60.9116 2.2199 60.9116 3.67894C60.9116 5.13798 62.0828 6.32077 63.5276 6.32077Z" fill="#FFB6B6"/>
<path d="M65.2336 7.8142L69.6124 10.3986L68.1778 17.4052L69.1575 26.8239L68.4751 49.9112L64.2668 49.4517L63.6982 29.8103L60.3998 50.1409H56.3134L56.9877 28.2022L59.035 18.8984L57.7839 8.79052L61.594 7.58447L65.2336 7.8142Z" fill="#2F2E41"/>
<path d="M65.4042 4.42562C65.4042 4.42562 65.6317 3.62158 66.1435 3.67901C66.6553 3.73645 66.769 3.277 66.6553 3.04727C66.5416 2.81755 66.3141 1.66893 66.3141 1.66893C66.3141 1.66893 66.4278 0.864891 65.7454 0.750029C65.063 0.635167 64.8355 0.520305 64.7218 0.290581C64.608 0.0608561 62.902 -0.168867 62.3333 0.175719C61.7646 0.520305 61.3097 1.18144 60.9116 1.36775C60.5135 1.55407 60.1723 1.89865 60.3998 2.47296C60.6273 3.04727 60.9572 4.1705 60.9572 4.1705C60.9572 4.1705 61.5372 3.96617 61.6509 4.31076C61.7646 4.65534 61.3097 4.19589 61.8784 3.277C62.447 2.3581 62.4471 1.4392 63.3569 1.78379C64.2668 2.12838 65.2905 2.01351 65.1767 2.70269C65.063 3.39186 65.4042 4.42562 65.4042 4.42562Z" fill="#2F2E41"/>
<path d="M67.3543 24.7634C66.8069 25.3488 66.6622 26.1086 67.0311 26.4604C67.4001 26.8122 68.1429 26.6227 68.6904 26.0371C68.9123 25.8061 69.0763 25.5249 69.1685 25.2169L71.457 22.7069L70.2679 21.6475L68.138 24.2343C67.8387 24.3449 67.5699 24.5264 67.3543 24.7634Z" fill="#FFB6B6"/>
<path d="M69.5663 10.3408L73.4203 16.9718L73.9913 19.999L70.28 24.756L68.7099 22.7379L70.5655 19.999L67.568 14.6654L69.5663 10.3408Z" fill="#2F2E41"/>
<path d="M58.7305 24.1458V16.3275C58.7305 15.1359 59.6904 14.1665 60.8703 14.1665H72.7044C73.8843 14.1665 74.8442 15.1359 74.8442 16.3275V24.1458C74.8442 25.3375 73.8843 26.3069 72.7044 26.3069H60.8703C59.6904 26.3069 58.7305 25.3375 58.7305 24.1458Z" fill="white"/>
<path d="M64.4854 19.1011H68.5778V18.0679H64.4854V19.1011Z" fill="#3F3D56"/>
<path d="M68.2424 26.2378V24.1714H64.9174V26.2378H68.2424Z" fill="#3F3D56"/>
<path d="M68.3986 16.3023V14.2358H65.0735V16.3023H68.3986Z" fill="#3F3D56"/>
<path d="M59.9282 23.2702C60.4756 23.8556 60.6203 24.6154 60.2513 24.9672C59.8824 25.319 59.1396 25.1296 58.5921 24.5439C58.3702 24.313 58.2062 24.0317 58.114 23.7237L55.8254 21.2138L57.0146 20.1543L59.1445 22.7411C59.4438 22.8518 59.7125 23.0332 59.9282 23.2702Z" fill="#FFB6B6"/>
<path d="M57.7162 8.84814L53.8622 15.4791L53.2913 18.5063L57.0025 23.2633L58.5726 21.2452L56.717 18.5063L59.7145 13.1727L57.7162 8.84814Z" fill="#2F2E41"/>
<path d="M9.79477 40.4665C11.7251 40.4665 13.2899 39.0911 13.2899 37.3944C13.2899 35.6977 11.7251 34.3223 9.79477 34.3223C7.86449 34.3223 6.29968 35.6977 6.29968 37.3944C6.29968 39.0911 7.86449 40.4665 9.79477 40.4665Z" fill="#E6E6E6"/>
</g>
<defs>
<clipPath id="clip0_910_1204">
<rect width="130.059" height="55" fill="white"/>
</clipPath>
</defs>
</svg>
