<svg width="51" height="51" viewBox="0 0 51 51" fill="none" xmlns="http://www.w3.org/2000/svg">
<rect x="0.46875" y="0.662537" width="50.2031" height="50.2031" rx="25.1016" fill="#EBEBEB"/>
<path d="M29.3522 18.1889L30.9252 21.335C31.1372 21.7701 31.7062 22.1829 32.1859 22.2721L35.0307 22.7407C36.8492 23.0419 37.2731 24.3583 35.9679 25.6748L33.7477 27.8949C33.3796 28.263 33.1677 28.9882 33.2904 29.5125L33.9263 32.257C34.4283 34.4213 33.268 35.2691 31.3603 34.1312L28.694 32.547C28.2142 32.257 27.411 32.257 26.9313 32.547L24.2649 34.1312C22.3572 35.258 21.197 34.4213 21.699 32.257L22.3349 29.5125C22.4576 28.9993 22.2457 28.2742 21.8775 27.8949L19.6574 25.6748C18.3521 24.3695 18.7761 23.053 20.5946 22.7407L23.4394 22.2721C23.9191 22.194 24.4881 21.7701 24.7 21.335L26.2731 18.1889C27.1098 16.482 28.4932 16.482 29.3522 18.1889Z" stroke="black" stroke-width="2.0918" stroke-linecap="round" stroke-linejoin="round"/>
<path d="M21.1078 17.9547H14.4141" stroke="black" stroke-width="2.0918" stroke-linecap="round" stroke-linejoin="round"/>
<path d="M17.7609 33.5735H14.4141" stroke="black" stroke-width="2.0918" stroke-linecap="round" stroke-linejoin="round"/>
<path d="M15.5297 25.7641H14.4141" stroke="black" stroke-width="2.0918" stroke-linecap="round" stroke-linejoin="round"/>
</svg>
